<ttFont>
          <CharString index="0">
            -33 -27 -27 -33 -33 27 -27 33 33 27 27 33 hvcurveto
            33 -27 27 -33 vhcurveto
            return
          </CharString>
          <CharString index="1">
            -36 -1 -16 -36 0 -39 0 -63 20 -152 12 -114 3 -29 5 -10 10 0 10 0 5 17 3 22 15 114 21 130 0 87 0 37 -17 38 -35 -1 rrcurveto
            return
          </CharString>
          <CharString index="2">
            -9 2 -14 5 vhcurveto
            5 0 9 13 5 12 16 36 19 50 10 69 3 21 0 31 -15 0 -16 0 -11 -9 -16 -12 -9 -7 -11 -15 1 -14 5 -62 0 -37 -2 -53 rrcurveto
            return
          </CharString>
          <CharString index="3">
            40 0 25 -90 1 -66 1 -65 -18 -90 -45 0 -45 0 -22 97 -1 70 -1 61 25 83 40 0 rrcurveto
            return
          </CharString>
          <CharString index="4">
            -91 -54 -96 -86 -92 41 -88 86 95 48 97 94 85 -42 86 -83 hvcurveto
            return
          </CharString>
          <CharString index="5">
            -5 -7 12 -8 9 0 15 0 13 2 8 13 rrcurveto
            412 649 rlineto
            4 7 -9 10 -8 0 -17 0 -13 -3 -9 -14 rrcurveto
            return
          </CharString>
          <CharString index="6">
            0 -170 109 -235 71 -71 6 -6 7 -1 9 1 8 1 5 2 5 6 4 6 2 8 -4 4 -71 71 -91 226 0 170 0 170 91 160 71 71 rrcurveto
            4 4 -1 8 -4 4 -6 6 -7 1 -8 -1 -10 -1 -7 -2 -7 -7 -71 -71 -105 -184 0 -170 rrcurveto
            return
          </CharString>
          <CharString index="7">
            0 170 -104 172 -71 71 -7 7 -7 3 -10 0 -11 0 -7 -1 -8 -8 -4 -4 4 -5 4 -4 71 -71 90 -174 0 -170 0 -170 -94 -212 -71 -71 rrcurveto
            -4 -4 -2 -7 4 -5 6 -8 6 -2 10 -1 9 -1 7 1 6 6 71 71 112 247 0 170 rrcurveto
            return
          </CharString>
          <CharString index="8">
            22 -2 17 -26 0 -16 0 -70 -53 -30 -43 -9 -21 -4 3 -20 24 1 51 2 91 64 0 101 rrcurveto
            56 -35 41 -48 -29 -26 -19 -27 vhcurveto
            0 -22 18 -17 29 -3 rrcurveto
            return
          </CharString>
          <CharString index="9">
            64 7 61 9 60 9 16 2 3 27 2 25 0 4 -4 2 -4 0 -64 -7 -64 -9 -64 -9 -10 -1 -4 -31 -2 -22 0 -5 1 -2 9 1 rrcurveto
            return
          </CharString>
          <CharString index="10">
            -30.3350067139 -24.6649932861 -24.6649932861 -30.3350067139 -30.3350067139 24.6649932861 -24.6649932861 30.3350067139 30.3350067139 24.6649932861 24.6649932861 30.3350067139 30.3350067139 -24.6649932861 24.6649932861 -30.3350067139 hvcurveto
            return
          </CharString>
          <CharString index="11">
            -3 -8 10 -7 9 0 15 0 15 1 6 14 rrcurveto
            297 695 rlineto
            3 8 -8 9 -8 0 -17 0 -15 -2 -7 -15 rrcurveto
            return
          </CharString>
          <CharString index="12">
            84 46 -86 -83 -125 -60 -52 -82 -81.6064453125 -47.3935546875 93 85 97 59.3828125 71 81.6171875 hvcurveto
            return
          </CharString>
          <CharString index="13">
            -116.380859375 0.2734375 -96.619140625 -92.892578125 0 -116.380859375 0 -119.14453125 93.85546875 -99.576171875 119.14453125 -0.279296875 119.137695312 -0.279296875 94.8623046875 99.140625 0 119.138671875 0 116.932617188 -97.068359375 92.7939453125 -116.931640625 0.2734375 rrcurveto
            return
          </CharString>
          <CharString index="14">
            0 -41 -46 -3 -27 -2 -17 -1 5 -24 12 0 54 0 13 5 43 0 41 0 9 -5 57 0 16 0 1 23 -17 2 -44 6 -26 1 -1 39 rrcurveto
            -1 47 -1 129 2 89 1 47 32 -2 28 6 10 2 2 20 -12 0 -58 0 -1 -3 -38 0 -39 0 -1 3 -60 0 -9 0 -1 -21 10 -1 rrcurveto
            27 -4 36 0 0 -47 rrcurveto
            return
          </CharString>
          <CharString index="15">
            34 38 37 10 45 0 39 0 27 -33 -1 -48 -2 -79 -112 -93 -22 -18 -16 -13 -28 -27 -17 -17 -8 -8 2 -12 6 0 64 3 35 0 64 0 rrcurveto
            70 0 45 0 64 -4 5 0 7 -1 3 17 7 40 10 29 16 45 2 5 0 7 -5 0 -8 1 -8 -6 -3 -5 -19 -38 -36 -25 -38 0 rrcurveto
            -49 0 -88 1 -26 -1 -6 0 -9 4 6 4 10 7 81 75 30 36 24 29 17 38 0 32 rrcurveto
            63 -40 60 -64 -118 -47 -100 -9 vhcurveto
            0 -6 2 -6 6 -2 5 -2 3 5 4 4 rrcurveto
            return
          </CharString>
          <CharString index="16">
            0 44 -31 62 -92 2 -5 0 0 4 4 2 rrcurveto
            return
          </CharString>
          <CharString index="17">
            74 12 -63 -32 hvcurveto
            0 -96 -39 -30 -51 -27 -17 -9 -41 -1 -9 0 rrcurveto
            -12 -15 -20 -10 -7 16 -7 11 hvcurveto
            12 0 33 9 24 12 rrcurveto
            79 39 85 62 0 121 rrcurveto
            return
          </CharString>
          <CharString index="18">
            -3 -4 6 -9 6 0 rrcurveto
            return
          </CharString>
          <CharString index="19">
            140 67 99 105 72 -56 51 -69 hvcurveto
            -37 0 -46 -22 -15 -11 -11 -8 -6 -5 -10 -11 -7 -8 2 -9 12 6 14 7 0 -1 12 3 18 5 12 1 24 0 53 0 41 -57 0 -61 rrcurveto
            0 -49 -21 -33 -22 -17 -16 -13 -21 -8 -29 0 -43 0 -43 36 -17 21 -18 22 -16 39 0 50 0 120 55 97 34 49 51 73 61 46 90 39 rrcurveto
            7 3 13 5 6 12 3 5 -11 1 -6 -1 -122 -32 -100 -74 -49 -56 -35 -41 -81 -95 1 -151 1 -118 59 -86 131 0 rrcurveto
            return
          </CharString>
          <CharString index="20">
            -69 -119 -96 -164 -90 -156 -9 -16 -12 -21 0 -4 0 -15 13 -11 15 0 4 0 9 16 6 11 100 174 111 195 69 120 12 21 17 30 9 18 rrcurveto
            1 4 -4 11 -4 0 -28 -6 -192 -2 -93 3 -25 1 -35 3 -3 0 -3 0 -7 -1 0 -10 0 -25 -5 -30 -7 -29 -2 -9 -6 -21 9 0 rrcurveto
            9 0 12 16 5 6 20 26 32 -3 21 0 32 0 135 -2 39 -1 15 -1 -3 -4 -2 -5 rrcurveto
            return
          </CharString>
          <CharString index="21">
            -4 -3 -4 0 -4 3 -65 53 -46 21 0 72 rrcurveto
            46 47 33 48 47 35 -46 -47 vhcurveto
            0 -56 -11 -41 -43 -35 rrcurveto
            return
          </CharString>
          <CharString index="22">
            -10 7 -1 1 16 12 22 16 10 7 18 16 22 19 26 27 0 45 rrcurveto
            75 -73 49 -74 -82 -88 -46 -76 vhcurveto
            0 -79 51 -46 57 -47 8 -6 4 -2 -9 -5 rrcurveto
            return
          </CharString>
          <CharString index="23">
            -48 -26 -74 -42 0 -82 rrcurveto
            -85 76 -60 85 92 89 73 97 vhcurveto
            0 75 -47 37 -70 46 rrcurveto
            return
          </CharString>
          <CharString index="24">
            12 9 2 -3 12 -8 54 -37 56 -46 0 -58 rrcurveto
            -53 -41 -41 -56 -63 -42 60 63 vhcurveto
            0 60 26 22 40 32 rrcurveto
            return
          </CharString>
          <CharString index="25">
            -121 -77 -108 -91 -72 60 -54 69 hvcurveto
            37 0 40 22 15 11 11 8 15 14 7 13 2 4 -4 9 -5 -2 -10 -5 -10 -7 -12 -5 -13 -6 -11 -3 -24 0 rrcurveto
            -53 -45 64 61 49 31 62 65 73 55 -68 -83 hvcurveto
            0 -113 -40 -66 -36 -48 -42 -56 -116 -94 -57 -18 -7 -2 -7 -4 0 -7 0 -6 8 0 6 1 69 10 121 75 55 54 54 53 72 90 0 114 rrcurveto
            118 -78 86 -97 vhcurveto
            return
          </CharString>
          <CharString index="26">
            -3 1 -1 3 3 1 rrcurveto
            373 174 rlineto
            20 9 5 16 6 21 2 7 -8 10 -7 -3 rrcurveto
            -437 -200 rlineto
            -20 -9 -13 -28 0 -9 0 -6 24 -13 17 -8 rrcurveto
            429 -200 rlineto
            7 -3 7 9 0 6 0 9 -5 30 -19 9 rrcurveto
            return
          </CharString>
          <CharString index="27">
            -17.5283203125 -6.4716796875 -29 -9 -6 6.80859375 -6 7.19140625 hvcurveto
            445 hlineto
            18.5283203125 0 6.1962890625 18.5673828125 6.275390625 17.4326171875 2.52381896973 7.0106048584 -8.07264709473 6.9893951416 -7.451171875 0 rrcurveto
            return
          </CharString>
          <CharString index="28">
            3 -1 1 -3 -3 -1 rrcurveto
            -373 -174 rlineto
            -20 -9 -5 -16 -6 -21 -2 -7 8 -10 7 3 rrcurveto
            437 200 rlineto
            20 9 13 28 0 9 0 6 -24 13 -17 8 rrcurveto
            -429 200 rlineto
            -7 3 -7 -9 0 -6 0 -9 5 -30 19 -9 rrcurveto
            return
          </CharString>
          <CharString index="29">
            -17 -23 -17 -19 -27 21 -29 21 hvcurveto
            19 0 9 4 19 0 68 -1 33 -48 0 -66 0 -29 -33 -28 -28 -14 -65 -33 -39 -25 3 -36 rrcurveto
            return
          </CharString>
          <CharString index="30">
            4 -46 6 -14 6 -23 4 -16 11 -13 7 0 10 0 5 13 0 10 1 32 3 29 28 18 32 21 10 6 44 24 20 11 22 24 0 49 rrcurveto
            0 51 -37 86 -56 56 -33 33 -42 17 -33 0 rrcurveto
            return
          </CharString>
          <CharString index="31">
            8 23 1 0 8 -24 16 -49 47 -142 16 -48 4 -14 -1 -1 -15 0 rrcurveto
            -155 hlineto
            -17 0 -7 1 5 14 28 78 38 96 24 66 rrcurveto
            return
          </CharString>
          <CharString index="32">
            -3 80 4 21 3 72 1 30 6 16 55 0 113 0 23 -75 0 -57 0 -58 -31 -29 -14 -8 -50 -30 -59 0 -18 2 rrcurveto
            -17 2 -12 -1 -1 35 rrcurveto
            return
          </CharString>
          <CharString index="33">
            0 -48 -28 -18 -50 -9 -23 -4 -10 -5 0 -9 0 -8 12 -3 17 0 54 0 18 4 46 1 rrcurveto
            return
          </CharString>
          <CharString index="34">
            44 1 43 -5 20 0 66 0 52 13 42 21 41 21 63 33 0 110 0 116 -82 30 -60 19 -6 2 1 6 5 2 33 13 13 10 21 20 rrcurveto
            return
          </CharString>
          <CharString index="35">
            15 15 19 36 0 45 0 109 -76 40 -146 0 -58 0 -15 -5 -38 0 -41 0 -9 1 -54 0 -17 0 -12 -3 0 -8 0 -9 10 -7 23 -4 rrcurveto
            50 -9 17 -16 0 -48 rrcurveto
            return
          </CharString>
          <CharString index="36">
            -86 -78 -66 -78 vhcurveto
            -25 0 -24 8 -11 11 -12 12 -4 22 -1 18 -2 53 -3 87 3 59 1 12 1 7 9 6 9 6 19 5 18 0 50 0 36 -15 18 -10 rrcurveto
            27 -15 47 -37 0 -77 rrcurveto
            return
          </CharString>
          <CharString index="37">
            0 49 2.8564453125 155.8515625 1.1435546875 9.1484375 2 16 19 14 11 0 rrcurveto
            131 hlineto
            25 0 23 -6 19 -21 9 -10 7 -17 7 -22 2 -7 2 -3 7 0 6 0 8 3 0 6 -1 35 -4 30 -7 38 -1 7 -10 2 -7 0 rrcurveto
            -26 1 -157.034179688 -5.923828125 -116.965820312 2.923828125 -40 1 -9 1 -54 0 -17 0 -12 -3 0 -8 0 -9 10 -7 23 -4 50 -9 17 -16 0 -48 rrcurveto
            -450 vlineto
            0 -48 -24 -18 -50 -9 -23 -4 -10 -5 0 -9 0 -8 12 -3 17 0 54 0 16.0888671875 6 44.9111328125 0 100 0 99.4482421875 -6 127.551757812 0 10 0 2 9 2 8 rrcurveto
            8 32 5 31 4 39 1 7 -7.119140625 4.490234375 -6.880859375 0.509765625 -6.69140625 0.49609375 -3.30859375 -2.49609375 -4 -8 -8 -17 -16 -32 -18 -14 rrcurveto
            return
          </CharString>
          <CharString index="38">
            -13 -10 -58 -8 -5 0 rrcurveto
            -104 hlineto
            -45 0 -17 27 -1 51 -1.1181640625 57.0244140625 -1.8818359375 59.9755859375 0 61 -1 17 11.701171875 5.591796875 13.298828125 2.408203125 39.5341796875 7.16015625 22.4658203125 -3.16015625 41 -6 16 -2 21 -6 10 -31 2 -7 8.314453125 -16 12.685546875 0 rrcurveto
            8 1 8 9 hvcurveto
            -3 51 -2 20 5 52 1 9 -9 7 -5 0 -5 0 -11 -12 -2 -5 -5 -12 -3 -4 -9 -8 -12 -11 -17 -4 -15 0 rrcurveto
            -104 hlineto
            -10 0 11 11 hvcurveto
            return
          </CharString>
          <CharString index="39">
            127 hlineto
            25 0 23 -6 19 -21 9 -10 7 -17 7 -22 2 -7 6 -5 7 0 6 0 3 15 0 6 -1 35 3 27 -7 38 rrcurveto
            return
          </CharString>
          <CharString index="40">
            452 vlineto
            0 38 3 23 50 9 23 4 10 7 0 9 0 8 -12 3 -17 0 -54 0 -1.490234375 -3 -35.509765625 0 -45.2548828125 0 -16.7451171875 3 -54 0 -17 0 -12 -3 0 -8 rrcurveto
            0 -9 10 -7 23 -4 50 -9 15 -25 0 -36 0 -76 1 -52 0 -62 0 -9 -1.5849609375 -2.828125 -5.4150390625 -0.171875 -144.6171875 -4.5908203125 -81.732421875 1.208984375 -144.650390625 3.3818359375 -6.4892578125 0.15234375 -7.5107421875 0.84765625 0 8 rrcurveto
            192 vlineto
            0 39 18 23 50 9 23 4 10 7 0 9 0 8 -12 3 -17 0 -54 0 -10.6435546875 -3 -41.3564453125 0 -40.1884765625 0 -8.8115234375 3 -54 0 -17 0 -12 -3 0 -8 rrcurveto
            0 -9 10 -7 23 -4 50 -9 3 -16 0 -46 rrcurveto
            -452 vlineto
            0 -48 -10 -18 -50 -9 -23 -4 -10 -5 0 -9 0 -8 12 -3 17 0 54 0 13.0556640625 5 42.9443359375 0 45.671875 0 17.328125 -5 54 0 17 0 12 3 0 8 rrcurveto
            0 9 -10 5 -23 4 -46 8 -32 32 0 42 0 77 -1 50 0 58 0 8 0.2890625 2.8662109375 4.7109375 0.1337890625 148.919921875 4.2333984375 84.1240234375 -1.5390625 148.956054688 -2.6943359375 3.353515625 -0.060546875 1.646484375 0.060546875 0 -7 rrcurveto
            0 -59 2 -63 -2 -76 0 -43 -26 -22 -42 -8 -23 -4 -10 -5 0 -9 0 -8 12 -3 17 0 54 0 11.224609375 5 41.775390625 0 40.6064453125 0 9.3935546875 -5 54 0 rrcurveto
            17 12 3 8 hvcurveto
            0 9 -10 5 -23 4 -50 9 -4 18 -1 49 rrcurveto
            return
          </CharString>
          <CharString index="41">
            -452 vlineto
            0 -47 -28 -18 -50 -9 -23 -4 -10 -5 0 -9 0 -8 12 -3 17 0 54 0 24 5 50 0 46 0 17 -5 54 0 17 0 12 3 0 8 rrcurveto
            0 9 -10 5 -23 4 -50 9 -29 18 0 47 rrcurveto
            452 vlineto
            0 47 21 16 50 9 23 4 10 7 0 9 0 8 -12 3 -17 0 -54 0 -12 -3 -43 0 -46 0 -17 3 -54 0 -17 0 -12 -3 0 -8 rrcurveto
            0 -9 10 -7 23 -4 50 -9 17 -16 0 -47 rrcurveto
            return
          </CharString>
          <CharString index="42">
            0 39 39 7 50 9 23 4 10 7 0 9 0 8 -12 3 -17 0 -54 0 -23 -3 -49 0 -44 0 -14 3 -54 0 -17 0 -12 -3 0 -8 rrcurveto
            0 -9 10 -7 23 -4 50 -9 11 -5 0 -48 rrcurveto
            -464 vlineto
            0 -44 -29 -18 -52 -10 -4 -1 -18 -4 0 -12 0 -7 10 -5 18 0 0 0 85 5 50 0 100 0 109 -5 134 0 10 0 3 8 1 9 rrcurveto
            4 42 9 33 14 52 2 7 -3 16 -10 0 -9 0 -10 -22 -3 -8 -17 -36 -9 -12 -26 -23 rrcurveto
            return
          </CharString>
          <CharString index="43">
            -18 -16 -33 -10 -5 0 rrcurveto
            -146 hlineto
            -66 -11 20 41 hvcurveto
            return
          </CharString>
          <CharString index="44">
            0 32 49 13 34 10 6 2 20 10 0 11 0 11 -21 -1 -3 0 -20 0 -48 -8 -43 0 rrcurveto
            -36 hlineto
            -15 0 2 -56 -15 -32 rrcurveto
            -197 -410 rlineto
            -9 -18 -7 3 -7 18 rrcurveto
            -158 401 rlineto
            -10 27 -8 66 -18 0 -26 0 -103 8 -37 0 -6 0 -17 -1 0 -10 0 -9 8 -6 6 -2 24 -6 39 -5 20 -23 17 -20 -1 -9 0 -26 rrcurveto
            0 -84 -17 -172 -24 -180 -2 -13 -10 -56 -50 -9 -23 -4 -10 -5 0 -9 0 -8 12 -3 17 0 54 0 1 5 36 0 37 0 3 -5 54 0 rrcurveto
            17 12 3 8 hvcurveto
            0 9 -10 5 -23 4 -50 9 -16 45 1 26 6 136 7 89 19 142 2 15 5 -1 6 -14 75 -175 52 -124 52 -156 9 -28 5 -11 17 37 rrcurveto
            222 450 rlineto
            9 19 6 4 1 -23 rrcurveto
            return
          </CharString>
          <CharString index="45">
            6 -135 6 -89 0 -144 0 -47 -12 -20 -39 -5 -23 -3 -10 -6 0 -9 0 -8 12 -3 17 0 54 0 10 5 41 0 46 0 17 -5 54 0 rrcurveto
            17 12 3 8 hvcurveto
            0 9 -10 5 -23 4 -50 9 -23 21 -2 41 rrcurveto
            -8 151 -14 136 0 186 rrcurveto
            return
          </CharString>
          <CharString index="46">
            160 86 -130 -190 -171 -76 -109 -150 -148 -105 154 171 140 85 135 148 hvcurveto
            return
          </CharString>
          <CharString index="47">
            -190 160 -144 177 219 117 169 180 vhcurveto
            0 200 -159 133 -177 -4 -219 -5 -118 -159 0 -180 rrcurveto
            return
          </CharString>
          <CharString index="48">
            38 0 6 -7 54 0 17 0 12 3 0 8 0 9 -10 5 -23 4 -50 9 -17 30 0 48 rrcurveto
            477 vlineto
            30 26 12 38 vhcurveto
            76 0 101 -47 -2 -112 -1 -58 -15 -70 -47 -36 -25 -19 -46 -14 -41 6 -14 2 -15 -19 31 -6 49 -9 82 13 56 43 44 34 30 77 0 45 rrcurveto
            136 -117 61 -146 vhcurveto
            -28 0 -43 -5 -40 0 rrcurveto
            return
          </CharString>
          <CharString index="49">
            -41 0 -3 1 -54 0 -17 0 -12 -3 0 -8 0 -9 10 -7 23 -4 50 -9 11 -31 0 -60 rrcurveto
            -422 vlineto
            0 -49 -23 -18 -50 -9 -23 -4 -10 -5 0 -9 0 -8 12 -3 17 0 rrcurveto
            54 0 25 7 51 0 rrcurveto
            return
          </CharString>
          <CharString index="50">
            1 79 0 56 3 72 1 30 8 24 55 0 113 0 21 -81 0 -57 0 -58 -17 -36 -28 -27 -25 -23 -27 -17 -57 1 rrcurveto
            -31 1 -18 2 1 34 rrcurveto
            return
          </CharString>
          <CharString index="51">
            25 56 6 29 8 -5 3 -10 hvcurveto
            -47 0 -32 1 -36 32 -95 85 -46 75 -62 94 -4 6 -1 1 5 2 12 6 40 32 21 20 15 15 29 50 0 45 0 109 -78 59 -146 0 rrcurveto
            -58 0 -19 -5 -38 0 -41 0 -3 1 -54 0 -17 0 -12 -3 0 -8 0 -9 10 -7 23 -4 50 -9 11 -31 0 -60 rrcurveto
            -422 vlineto
            return
          </CharString>
          <CharString index="52">
            0 -49 -23 -18 -50 -9 -23 -4 -10 -5 0 -9 0 -8 12 -3 17 0 54 0 25 7 51 0 38 0 6 -7 54 0 17 0 12 3 0 8 rrcurveto
            0 9 -10 5 -23 4 -50 9 -17 34 0 43 rrcurveto
            172 vlineto
            0 12 4 9 11 -1 18 -2 32 -6 29 -14 20 -10 12 -11 11 -18 69 -112 34 -36 49 -60 rrcurveto
            35 -43 46 -11 57 0 rrcurveto
            return
          </CharString>
          <CharString index="53">
            82 -55 63 -52 0 -66 rrcurveto
            -70 -40 -58 -75 vhcurveto
            return
          </CharString>
          <CharString index="54">
            2 40 13 28 35 7 23 5 10 6 0 9 0 8 -12 3 -17 0 -23 0 -26 -3 -32 0 -29 0 -16 1 -30 0 -17 0 -12 -3 0 -8 rrcurveto
            0 -9 19 -7 14 -4 28 -8 12 -50 1 -51 rrcurveto
            return
          </CharString>
          <CharString index="55">
            2 -77 2 -90 0 -44 rrcurveto
            -156 -62 -108 -127 -132 -88 126 132 vhcurveto
            255 vlineto
            0 40 26 27 16 5 22 7 11 4 0 9 0 8 -12 3 -17 0 -21 0 -28 -2 -31 0 -37 0 -29 3 -30 0 -17 0 -12 -3 0 -8 rrcurveto
            0 -9 10 -7 23 -6 22 -6 24 -19 0 -48 rrcurveto
            -225 vlineto
            -194 85 -142 192 vhcurveto
            144 0 106 113 5 155 rrcurveto
            3 92 0 86 7 115 rrcurveto
            return
          </CharString>
          <CharString index="56">
            0 -48 -28 -27 -50 -9 -23 -4 -10 -5 0 -9 0 -8 12 -3 17 0 54 0 24 5 50 0 46 0 17 -5 54 0 17 0 12 3 0 8 rrcurveto
            0 9 -10 5 -23 4 -50 9 -29 30 0 45 rrcurveto
            148 vlineto
            0 38 0 9 25 43 46 79 11 19 54 82 21 31 44 58 35 7 23 5 10 6 0 9 0 8 -12 3 -17 0 -23 0 -36 -3 -37 0 rrcurveto
            -29 0 -16 1 -30 0 -17 0 -12 -3 0 -8 0 -9 19 -7 14 -4 28 -8 11 -43 -16 -35 -26 -58 -25 -35 -33 -46 -34 -47 3 -6 -30 53 rrcurveto
            -31 55 -9 20 -52 90 -23 40 26 16 16 5 22 7 11 4 0 9 0 8 -12 3 -17 0 -21 0 -28 -2 -31 0 -46 0 -41 3 -30 0 rrcurveto
            -17 -12 -3 -8 hvcurveto
            0 -9 11 -6 22 -7 34 -10 40 -64 15 -24 48 -80 28 -46 41 -66 5 -9 20 -25 0 -40 rrcurveto
            return
          </CharString>
          <CharString index="57">
            -94 -7 -102 0 -58 7 -11 1 -3 18 6 10 124 192 76 102 138 186 24 32 15 21 22 28 4 5 -9 13 -6 0 -115 -3 -114 -1 -147 2 rrcurveto
            -29 0 -36 2 -8 6 -10 8 -10 6 -5 0 -5 0 -9 -2 -1 -15 -4 -42 -16 -48 -7 -21 -5 -14 -8 -24 15 0 15 0 8 20 5 12 rrcurveto
            18 49 42 18 32 2 60 4 126 -2 62 -2 24 -1 -4 -8 -5 -7 -127 -193 -79 -105 -136 -186 -23 -31 -35 -52 0 -10 0 0 1 -14 6 0 rrcurveto
            48 0 22 -1 50 1 106 3 124 -5 148 0 10 0 4 9 4 8 11 24 26 103 0 11 0 9 -3 4 -6 0 -10 0 -9 -13 -3 -8 rrcurveto
            -28 -66 -48 -31 -48 -4 rrcurveto
            return
          </CharString>
          <CharString index="58">
            -297 695 rlineto
            -7 15 -15 2 -17 0 -8 0 -8 -9 3 -8 rrcurveto
            297 -695 rlineto
            6 -14 15 -1 15 0 9 0 10 7 -3 8 rrcurveto
            return
          </CharString>
          <CharString index="59">
            -28 -39 -133 -195 -38 -64 -7 -11 6 -12 9 2 12 3 18 8 7 7 27 30 91 138 30 44 4 6 1 0 5 -6 30 -44 84 -129 36 -39 rrcurveto
            6 -7 19 -8 12 -3 9 -2 6 12 -7 11 -41 70 -132 191 -26 37 rrcurveto
            return
          </CharString>
          <CharString index="60">
            6 15 0 0 6 -15 11 -31 37 -103 7 -27 3 -10 -1 0 -10 0 rrcurveto
            -117 hlineto
            -12 0 -5 1 4 9 22 48 32 71 17 42 rrcurveto
            return
          </CharString>
          <CharString index="61">
            -2 55 0 4 1 50 1 21 8 10 38 0 78 0 10 -42 0 -39 0 -40 -19 -19 -10 -6 -34 -20 -38 0 -12 1 rrcurveto
            -12 1 -8 1 -1 23 rrcurveto
            return
          </CharString>
          <CharString index="62">
            45 0 41 0 27 17 25 14 45 28 0 76 0 80 -57 17 -42 13 -4 1 1 5 3 1 23 9 19 7 15 14 rrcurveto
            return
          </CharString>
          <CharString index="63">
            -60 -37 -39 -53 vhcurveto
            -18 0 -18 6 -7 8 -8 8 -3 15 -1 13 -1 36 -1 44 2 41 0 9 1 4 7 4 6 5 13 3 12 0 35 0 25 -10 12 -7 rrcurveto
            19 -11 15 -16 0 -53 rrcurveto
            return
          </CharString>
          <CharString index="64">
            -14 11 -9 9 0 28 rrcurveto
            292 vlineto
            28 31 11 57 vhcurveto
            111 -1 64 -102 0 -77 0 -87 -22 -49 -23 -25 -19 -20 -28 -28 -62 0 rrcurveto
            -43 0 -29 -1 -14 11 rrcurveto
            return
          </CharString>
          <CharString index="65">
            85 0 71 40 33 42 23 29 30 45 1 82 1 116 -87 102 -177 0 -18 0 -85 -7 -25 0 -31.9893035889 0 -22.0106964111 2 -28 0 -9.75779724121 0 4.75779724121 -23 6 -2 rrcurveto
            25 -7 2 -1 13 -15 7 -8 2 -23 0 -19 rrcurveto
            -261 vlineto
            -1 -18 -5.83590698242 -10.2471008301 -12.1640930176 -12.7528991699 rrcurveto
            return
          </CharString>
          <CharString index="66">
            6 -8 -4 -26 0 -21 0 -24 -4 -21 -17 -11 rrcurveto
            -12 -7 -41 -15 -35 0 rrcurveto
            return
          </CharString>
          <CharString index="67">
            6 1 4 23 -10 0 -18 1 -61 -4 -51 0 -30 0 -17 2 -29 0 -9 0 3 -23 6 -1 27 -8 3 1 14 -15 7 -8 2 -24 0 -20 rrcurveto
            -270 vlineto
            0 -18 -7 -11 -13 -13 -14 -14 -9 -1 -23 -6 -6 -1 1 -21 5 0 rrcurveto
            return
          </CharString>
          <CharString index="68">
            0 71 3 35 vhcurveto
            70 0 92 -4 104 0 7 0 8 6 0 6 3 29 9 37 10 36 1 5 -5 4 -5 0 -11 1 -14 -3 -3 -5 -12 -25 -8 -18 -21 -21 rrcurveto
            -12 -12 -24 -6 -4 0 rrcurveto
            -96 hlineto
            -46 -8 26 28 hvcurveto
            267 vlineto
            0 20 5 25 8 8 rrcurveto
            13 15 24 0 28 8 rrcurveto
            return
          </CharString>
          <CharString index="69">
            120 51 -111 -101 -79 -34 -111 -115 -112 -56 93 117 95 34 97 112 hvcurveto
            return
          </CharString>
          <CharString index="70">
            -129 104 -103 133 164 85 113 123 136 -116 99 -133 -128 -109 -116 -123 vhcurveto
            return
          </CharString>
          <CharString index="71">
            116 59 -101 -109 -99 -52 -110 -107 -117 -69 109 121 hvcurveto
            -1 99 67 90 104 0 rrcurveto
            return
          </CharString>
          <CharString index="72">
            336 -186 167 0 44 -1 40 -2 184 3 120 116 5 4 -2 7 -4 5 -4 4 -6 -1 -4 -3 -115 -97 -112 2 -99 0 -108 0 -161 63 -142 90 rrcurveto
            -10 6 -7 8 11 6 56 28 118 65 0 167 rrcurveto
            124 -134 83 -123 -147 -109 -113 -140 vhcurveto
            0 -117 118 -91 50 -12 11 -2 11 -7 16 -9 rrcurveto
            return
          </CharString>
          <CharString index="73">
            -1 55 2 23 2 50 1 21 5 17 38 0 78 0 12 -51 0 -39 0 -41 -8 -26 -23 -14 -18 -12 -14 -8 -41 0 rrcurveto
            -21 0 -11 -2 -1 27 rrcurveto
            return
          </CharString>
          <CharString index="74">
            25 -30 46 -8 40 0 17 0 23 9 9 6 rrcurveto
            return
          </CharString>
          <CharString index="75">
            -79 0 -32 97 -8 0 -8 0 -12 -5 0 -6 1 -25 14 -54 8 -16 2 -3 -2 -3 11 -2 25 -5 29 -13 54 0 113 0 46 76 0 55 rrcurveto
            0 70 -71 50 -39 25 -37 24 -57 31 0 44 0 38 22 21 47 0 rrcurveto
            return
          </CharString>
          <CharString index="76">
            59 -38 40 -21 0 -45 rrcurveto
            -42 -16 -33 -62 vhcurveto
            return
          </CharString>
          <CharString index="77">
            -951 vlineto
            -7.19140625 6 -6.80859375 6 9 39 3.0703125 20.9296875 vhcurveto
            959 vlineto
            7.451171875 -7 5.548828125 -7 -6 -40 -9.3662109375 -21.6337890625 vhcurveto
            return
          </CharString>
          <CharString index="78">
            -3 -6 13 -17 5 5 16 18 54 29 23 0 rrcurveto
            return
          </CharString>
          <CharString index="79">
            54 0 65 -48 48 0 49 0 62 75 14 27 3 6 -11 19 -5 -7 -17 -22 -56 -25 -27 0 rrcurveto
            return
          </CharString>
          <CharString index="80">
            -66 0 -50 48 -46 0 rrcurveto
            -45 0 -59 -63 -21 -39 rrcurveto
            return
          </CharString>
          <CharString index="81">
            33 27 27 33 33 -27 27 -33 -33 -27 -27 -33 hvcurveto
            -33 27 -27 33 vhcurveto
            return
          </CharString>
          <CharString index="82">
            34 0 34 -40 1 -33 0 -10 0 -9 -1 -3 -3 -7 8 -7 7 0 13 0 29 29 0 27 rrcurveto
            0 47 -24 36 -80 -1 rrcurveto
            return
          </CharString>
          <CharString index="83">
            -25 -25 -25 -25 -25 25 -25 25 25 25 25 25 25 -25 25 -25 hvcurveto
            return
          </CharString>
          <CharString index="84">
            0 14 15 20 50 14 11 3 4 -2 0 -12 rrcurveto
            -1 -29 rlineto
            0 -15 -2 -4 -5 -4 -10 -8 -13 -11 -17 0 -13 0 -19 11 0 23 rrcurveto
            return
          </CharString>
          <CharString index="85">
            24 0 24 30 1 3 2 6 -10 16 -5 -7 -4 -6 -5 -2 -12 0 rrcurveto
            -19 -2 22 17 hvcurveto
            3 124 rlineto
            1 28 -32 25 -31 0 -34 0 -46 -25 -20 -17 -16 -13 -3 -10 -6 -15 -3 -7 3 -4 4 1 15 4 31 7 -1 8 -1 7 0 12 3 6 rrcurveto
            5 8 22 5 16 0 rrcurveto
            24 13 -16 -20 hvcurveto
            -23 vlineto
            0 -16 -1 -2 -17 -6 rrcurveto
            -79 -28 rlineto
            -32 -12 -6 -16 0 -25 0 -23 32 -36 27 0 53 0 18 31 9 0 5 0 13 -31 37 0 rrcurveto
            return
          </CharString>
          <CharString index="86">
            44 34 52 40 56 85 7 11 -1 15 -8 -2 -12 -3 -10 -9 -6 -6 -69 -66 -55 -37 -102 -61 -8 -5 10 -25 13 -6 59 -27 77 -51 69 -67 rrcurveto
            6 -6 10 -9 12 -3 8 -2 7 12 -7 11 -56 85 -52 44 -44 34 -8 6 0 2 8 6 rrcurveto
            return
          </CharString>
          <CharString index="87">
            -17.5283203125 -6.4716796875 -29 -9 -6 6.80859375 -6 7.19140625 hvcurveto
            215 hlineto
            18.5283203125 0 6.1962890625 18.5673828125 6.275390625 17.4326171875 2.5234375 7.0107421875 -8.072265625 6.9892578125 -7.451171875 0 rrcurveto
            return
          </CharString>
          <CharString index="88">
            28 30 15 8 36 0 31 0 27 -27 -1 -38 -1 -63 -94 -78 -16 -16 -9 -9 -17 -18 -13 -13 -7 -7 2 -10 5 1 51 2 24 0 48 0 rrcurveto
            33 0 0 0 51 -3 4 -1 6 0 2 14 6 31 8 24 13 36 1 3 0 6 -4 0 -6 1 -7 -4 -2 -5 -15 -30 -29 -20 -30 0 rrcurveto
            -40 0 -8 1 -21 -1 -4 0 -12 2 4 4 7 8 70 59 22 33 17 25 17 20 0 34 rrcurveto
            51 -40 42 -51 -70 -47 -67 -20 vhcurveto
            0 -5 2 -4 5 -2 4 -2 3 4 2 4 rrcurveto
            return
          </CharString>
          <CharString index="89">
            0 -32 -25 -10 -30 -20 -13 -9 -21 -1 -15 -15 -5 -5 13 -8 6 2 rrcurveto
            return
          </CharString>
          <CharString index="90">
            11 3 16 4 10 0 rrcurveto
            38 29 -29 -36 -58 -46 -4 -13 hvcurveto
            -30 0 -23 14 -12 8 -2 2 -5 3 -6 0 -9 0 -9 -20 0 -8 0 -5 2 -10 9 -6 17 -11 12 -1 26 0 53 0 88 46 0 81 rrcurveto
            0 37 -32 27 -37 2 -4 0 0 3 4 2 rrcurveto
            return
          </CharString>
          <CharString index="91">
            36 18 23 24 0 25 0 51 -37 19 -51 1 -53 0 -34 -41 -16 -31 -2 -4 4 -5 4 -2 4 -1 3 4 3 3 24 20 24 9 22 1 rrcurveto
            18 1 31 -16 0 -22 rrcurveto
            return
          </CharString>
          <CharString index="92">
            0 40 31 128.809997559 0 42.1900024414 rrcurveto
            48 -10 27 -29 -39.1943054199 -12.8056945801 -43.9519958496 -42.0480041504 vhcurveto
            return
          </CharString>
          <CharString index="93">
            0 -32 -7 -43 0 -17 0 -75 6 -135 9 -24 11.7772979736 -31.4049987793 19.6114044189 -19.5950012207 31.6112976074 0 rrcurveto
            return
          </CharString>
          <CharString index="94">
            5 2 4 0 7 0 35 -2 32 -15 0 -36 0 -26 -13 -19 -26 0 -22 0 -12 4 -15 6 -6.56640625 2.6259765625 -6.87890625 -4.9833984375 -1.5546875 -6.642578125 -3.396484375 -14.509765625 0.115234375 -10.48828125 7.28125 -13.001953125 rrcurveto
            5.11328125 -9.130859375 4.88671875 -2.869140625 14 0 36 0 89 55 0 80 0 33 -29 29 -32 14 -4.93359375 2.158203125 -8.8115234375 9.0205078125 6.7451171875 8.8212890625 rrcurveto
            39 51 -31 0 -88 -112 rlineto
            -11.8681640625 -15.103515625 20.302734375 -12.5224609375 6.5654296875 2.6259765625 rrcurveto
            return
          </CharString>
          <CharString index="95">
            -13 -11 -14 -9 -6 7 -6 7 hvcurveto
            214 hlineto
            15 0 9 8 7 13 3 7 -9 7 -7 0 rrcurveto
            return
          </CharString>
          <CharString index="96">
            45 29 -50 -52 -48 -19 -42 -44 -44 -30 48 55 46 18 43 45 hvcurveto
            return
          </CharString>
          <CharString index="97">
            -74 -61 -62 -74 -72 56 -48 67 90 46 66 70 65 -59 55 -65 hvcurveto
            return
          </CharString>
          <CharString index="98">
            8 -6 0 -2 -8 -6 -44 -34 -52 -44 -56 -85 -7 -11 6 -12 9 2 12 3 9 9 7 6 69 67 77 51 59 27 13 6 10 25 -8 5 rrcurveto
            -102 61 -55 37 -69 66 -7 6 -9 9 -12 3 -9 2 0 -15 7 -11 56 -85 52 -40 44 -34 rrcurveto
            return
          </CharString>
          <CharString index="99">
            -91 hlineto
            -2 0 1 3 1 2 29 37 26 33 38 42 2 2 4 -1 0 -2 rrcurveto
            -111 vlineto
            -3 -5 -2 -3 vhcurveto
            return
          </CharString>
          <CharString index="100">
            -2 -2 4 -6 4 0 63 1 34 3 49 0 1 0 8 -1 0 -4 rrcurveto
            -102 vlineto
            -6 4 -2 5 4 39 14 15 vhcurveto
            84 vlineto
            0 1 5 2 3 1 11 2 21 -2 16 0 4 0 7 21 2 14 1 4 -5 2 -3 0 -22 -1 -14 -1 -23 1 -2 0 -1 2 0 2 rrcurveto
            -2 74 0 91 0 26 0 3 -3 6 -4 -1 -4 -1 -6 -6 -5 -5 -23 -25 -23 -25 -12 -15 -43 -54 -21 -24 -39 -49 -8 -11 -5 -7 -15 -19 rrcurveto
            return
          </CharString>
          <CharString index="101">
            -12 -6 -40 -34 -51 -5 -9 -1 -8 -20 18 -6 17 -6 37 -14 0 -27 rrcurveto
            -153 vlineto
            0 -41 -27 -3 -27 -2 -17 -1 5 -24 12 0 54 0 -4 5 32 0 32 0 -7 -5 57 0 16 0 1 23 -17 2 -44 6 -5 1 -1 39 rrcurveto
            -1 47 0 54 1 89 0 32 2 24 2 14 1 10 -6 7 -11 -5 rrcurveto
            return
          </CharString>
          <CharString index="102">
            9 -2 13 -3 12 3 8 2 0 13 -11 7 -69 44 -32 20 -63 32 -18 10 -16 4 -18 -9 -21 -10 -13 -14 -1 -22 0 -16 18 -7 14 -3 rrcurveto
            61 -15 74 -19 53 -15 rrcurveto
            return
          </CharString>
          <CharString index="103">
            13 44 10 31 15 49 4 14 3.34375 4 9.65625 0 rrcurveto
            191 hlineto
            20 0 5 -1 3 -10 11 -42 11 -52 7 -34 8 -41 -0.7841796875 -18.978515625 -54.2158203125 -14.021484375 -18.39453125 -4.7568359375 -14.60546875 -6.2431640625 0 -9 0 -8 12 -3 17 0 30 0 48.69921875 2.056640625 50.30078125 -1.056640625 rrcurveto
            42.564453125 -0.89453125 43.435546875 -5.10546875 23 0 17 0 12 2 0 8 0 9 -9.5859375 9.90234375 -23.4140625 4.09765625 -40 7 -33 13 -28 80 -33 95 -81 236 -64 203 -3 9 -2 5 -5 0 rrcurveto
            -5 0 -2.2275390625 -15.818359375 -13.7724609375 -9.181640625 -12 -8 -12 -3 -12 -4 -2 -1 0.587890625 -16.27734375 -2.587890625 -10.72265625 -2.8935546875 -11.98828125 -4.1064453125 -9.01171875 -3 -9 -67 -185 -45 -114 -75 -171 -22 -50 -30 -17 -34 -10 rrcurveto
            -22 -7 -11 -7 0 -9 0 -8 12 -5 17 0 30 0 33.990234375 5.22265625 41.009765625 0.77734375 41.33984375 0.783203125 43.66015625 -2.783203125 21 0 17 0 12 3 0 8 0 9 -10 5 -23 6 rrcurveto
            -37 9 -30 26 11 37 rrcurveto
            return
          </CharString>
          <CharString index="104">
            53 15 74 19 61 15 14 3 18 7 0 16 -1 22 -13 14 -21 10 -18 9 -16 -4 -18 -10 -63 -32 -32 -20 -69 -44 -11 -7 0 -13 8 -2 rrcurveto
            12 -3 13 3 9 2 rrcurveto
            return
          </CharString>
          <CharString index="105">
            26 -15 21 -8 49 -26 12 -7 10 -8 13 0 15 0 5 13 -12 10 -68 57 58 -47 -98 78 -20 16 -6 6 -15 0 -15 0 -6 -6 -20 -16 rrcurveto
            -98 -78 58 47 -68 -57 -12 -10 5 -12 15 0 13 0 27 11 12 7 49 26 4 4 26 15 11 7 -2 0 11 -7 rrcurveto
            return
          </CharString>
          <CharString index="106">
            -3.8486328125 -5.4970703125 19.8486328125 -17.5029296875 5 5 16 18 24 14 15 0 rrcurveto
            return
          </CharString>
          <CharString index="107">
            25 0 112 -8 25 0 15 0 49.5576171875 57.08984375 17.4423828125 24.91015625 3.8486328125 5.4970703125 -17.8486328125 19.5029296875 -5 -7 -17 -22 -25 -15 -15 0 rrcurveto
            return
          </CharString>
          <CharString index="108">
            -25 0 -107 8 -25 0 rrcurveto
            -15 0 -46.595703125 -40.7197265625 -25.404296875 -36.2802734375 rrcurveto
            return
          </CharString>
          <CharString index="109">
            -30 -25 -25 -30 -30 25 -25 30 30 25 25 30 30 -25 25 -30 hvcurveto
            return
          </CharString>
          <CharString index="110">
            -49 -44 -36 -49 -50 40 -29 45 50 43 37 50 48 -37 29 -48 hvcurveto
            return
          </CharString>
          <CharString index="111">
            29 18 30 30 31 23 -28 -31 -28 -17 -32 -29 -32 -24 28 32 vhcurveto
            return
          </CharString>
          <CharString index="112">
            0 -43 1 -70 1 -55 1 -48 -26 -18 -50 -9 -23 -4 -10 -5 0 -9 0 -8 12 -3 17 0 54 0 16 6 45 0 101 1 97 -7 126 0 rrcurveto
            10 0 2 9 2 8 8 32 5 31 4 39 1 7 -7 4 -7 1 -7 0 -3 -2 -4 -8 -8 -17 -16 -32 -18 -14 rrcurveto
            return
          </CharString>
          <CharString index="113">
            -13 -10 -58 -8 -5 0 rrcurveto
            -104 hlineto
            -45 0 -17 37 -1 41 -2 57 -1 31 0 61 -1 17 11 8 14 0 37 0 24 0 42 -2 16 -1 21 -7 10 -31 2 -7 8 -16 13 0 rrcurveto
            8 1 8 9 hvcurveto
            -3 51 -2 29 5 52 1 9 -9 7 -5 0 -5 0 -11 -12 -2 -5 -5 -12 -3 -4 -9 -8 -12 -11 -13 -1 -19 -1 -24 -1 -38 -1 -42 0 rrcurveto
            -10 0 11 11 hvcurveto
            0 49 1 69 2 48 1 28 5 35 2 9 2 12 12 14 11 0 rrcurveto
            131 hlineto
            25 0 23 -6 19 -21 9 -10 7 -17 7 -22 2 -7 2 -3 7 0 6 0 8 3 0 6 -1 35 -4 30 -7 38 -1 7 -10 2 -7 0 rrcurveto
            -26 1 -162 -6 -121 0 rrcurveto
            return
          </CharString>
          <CharString index="114">
            -68 0 -65 3 -42 0 -10 0 -7 -19 17 -6 rrcurveto
            88 -15 rlineto
            13 -1 9 -8 -5 -8 -75 -130 -92 -156 -106 -182 -28 -48 -42 -40 -34 -10 -22 -7 -11 -6 0 -9 0 -8 12 -3 17 0 30 0 36 5 42 1 rrcurveto
            42 1 44 -3 21 0 17 0 12 3 0 8 0 9 -10 5 -23 6 -37 9 -47 19 28 54 32 62 24 44 26 44 7 13 8 10 15 0 rrcurveto
            141 hlineto
            20 2 -8 -10 hvcurveto
            return
          </CharString>
          <CharString index="115">
            6 11 4 6 3 0 3 0 0 -6 0 -12 rrcurveto
            -237 vlineto
            -15 -1 0 -15 vhcurveto
            -124 hlineto
            -17 0 -3 2 8 13 41 72 60 105 35 61 rrcurveto
            return
          </CharString>
          <CharString index="116">
            -196 -164 -156 -197 -178 142 -147 177 hvcurveto
            26 0 -63 -85 rlineto
            -4 -5 -3 -12 3 -5 4 -7 12 -4 7 1 11 2 9 -1 7 0 35 -2 12 -26 0 -24 0 -29 -25 -10 -17 0 -13 0 -24 2 -23 10 rrcurveto
            -6 3 -6 -7 -2 -7 -5 -16 -3 -12 10 -13 9 -13 9 0 20 0 45 0 84 48 0 68 0 47 -38 30 -28 12 -5 2 -10 7 5 7 rrcurveto
            27 40 rlineto
            43 3 42 5 23 11 24 11 12 3 5 8 15 23 22 55 4 25 2 11 -3 20 -7 -5 -5 -4 -16 -3 -4 -12 -5 -18 -15 -34 -39 -23 rrcurveto
            -39 -22 -46 -15 -39 0 rrcurveto
            -156 -101 152 157 147 94 143 146 hvcurveto
            92 0 53 -33 10 -10 12 -11 27 -28 5 -40 4 -23 2 -7 11 -1 10 -1 2 15 -1 9 -1 52 -3 26 -4 31 -1 14 -4 14 -8 2 rrcurveto
            -17 5 -41 7 -18 6 -18 6 -56 6 -32 0 rrcurveto
            return
          </CharString>
          <CharString index="117">
            -12 -12 -9 -9 -6 5 -12 9 hvcurveto
            299 hlineto
            15 0 9 9 7 13 3 7 -9 7 -7 0 rrcurveto
            return
          </CharString>
          <CharString index="118">
            79.9951171875 -0.5107421875 105.004882812 -6.4892578125 20 0 rrcurveto
            191 142 155.837890625 186.162109375 195 -93 129 -271 hvcurveto
            -28 0 -112 -9 -38 1 -41 0 -9 2 -54 0 -17 0 -12 -3 0 -8 0 -9 10 -7 23 -4 50 -9 17 -16 0 -48 rrcurveto
            -450 vlineto
            0 -48 -17 -18 -50 -9 -23 -4 -10 -5 0 -9 0 -8 12 -3 17 0 54 0 11.8359375 5.26953125 42.1640625 -0.26953125 rrcurveto
            return
          </CharString>
          <CharString index="119">
            -153.119140625 -79.880859375 -162.880859375 -153.119140625 vhcurveto
            -52 0 -37.890625 -11.3212890625 -41.109375 31.3212890625 -21 16 -14 14 0 41 rrcurveto
            446 vlineto
            60 48 1 87 157 107 -125 -157 vhcurveto
            return
          </CharString>
          <CharString index="120">
            1.3740234375 32.9716796875 11.6259765625 12.0283203125 50 9 23 4 10 7 0 9 0 8 -12 3 -17 0 -54 0 -2.1064453125 -2.3740234375 -35.8935546875 -0.6259765625 -31.1953125 -0.5439453125 5.1953125 0.5439453125 -54 0 -17 0 -12 -3 0 -8 rrcurveto
            0 -9 10 -7 23 -4 22 -4 35 -25 1 -26 1 -50 -0.802734375 -313.0546875 -2.197265625 -43.9453125 -2 -40 -24.2578125 28.5087890625 -8.7421875 10.4912109375 -20 24 -342 429 -19 27 -6.6005859375 9.3798828125 -5.3994140625 7.6201171875 -12 0 rrcurveto
            return
          </CharString>
          <CharString index="121">
            -72 0 -4 3 -78 2 -7 0 -16 -2 0 -12 0 -12 25 -10 6 -2 38 -12 24.0087890625 -11.8916015625 18.9912109375 -20.1083984375 17 -18 4.875 -26.044921875 -1.875 -27.955078125 -11 -164 -9 -159 -9 -74 rrcurveto
            -1.57421875 -12.9423828125 -18.42578125 -63.0576171875 -38 -7 -22.958984375 -4.2294921875 -10.041015625 -4.7705078125 0 -9 0 -8 12 -3 17 0 54 0 1.4560546875 5 35.5439453125 0 36.7119140625 0 3.2880859375 -5 54 0 17 0 12 3 0 8 rrcurveto
            0 9 -10 5 -23 4 -50 9 -14.294921875 34.9912109375 0.294921875 36.0087890625 1 122 4 155 9 98 1.1884765625 12.9453125 1.822265625 24.912109375 26.9892578125 -32.857421875 23 -28 314.99609375 -385.244140625 18.00390625 -24.755859375 32 -44 36.9580078125 -19 12.0419921875 0 rrcurveto
            10 11 4 21 hvcurveto
            0 55 1 481 1 24 rrcurveto
            return
          </CharString>
          <CharString index="122">
            83 0 64 -35 41 -61 rrcurveto
            -374 -369 rlineto
            -30 54 -17 67 0 69 0 140 85 135 148 0 rrcurveto
            return
          </CharString>
          <CharString index="123">
            0 -86 32 -76 52 -58 rrcurveto
            -75 -74 rlineto
            -8 -8 -5 -10 4 -8 3 -5 23 -16 10 10 rrcurveto
            80 80 rlineto
            61 -52 78 -31 82 0 219 0 117 169 0 180 0 85 -29 74 -47 55 rrcurveto
            72 72 rlineto
            9 9 -2 15 -3 9 -3 9 -14 2 -7 -7 rrcurveto
            -80 -79 rlineto
            -62 56 -83 31 -87 -2 -219 -5 -118 -159 0 -180 rrcurveto
            return
          </CharString>
          <CharString index="124">
            25 -51 12 -64 0 -72 0 -171 -76 -109 -150 0 -73 0 -63 38 -45 59 rrcurveto
            return
          </CharString>
          <CharString index="125">
            27 0 16.2412109375 5 27.7587890625 0 38.6591796875 0 20.3408203125 -5 40 0 9 0 0 22 -9 2 -13 3 -18 10 -11 17 -4 7 0.5068359375 13.3681640625 2.4931640625 12.6318359375 3.46484375 17.5546875 0.53515625 -5.5546875 12 31 rrcurveto
            4 9 1.3818359375 3 6.6181640625 0 rrcurveto
            142 hlineto
            14 0 3 -1 2 -6 10 -27 -1 9 5 -25 3 -13 3.4130859375 -14.3798828125 -8.4130859375 -13.6201171875 -9.8896484375 -16.0126953125 -14.1103515625 -7.9873046875 -16 -3 -6 -1 -4.3681640625 -23 9.3681640625 0 33 0 30.3935546875 5 40.6064453125 0 rrcurveto
            38 0 20.5087890625 -5 37.4912109375 0 12 0 -5 22 -7 2 -17 4 -16 12 -12 13 -18 19 -9 15 -8 23 -47 125 -30 91 -48 131 -2 6 -1 3 -4 0 rrcurveto
            -3 0 -3 -5 -8 -9 -6 -7 -30 -22 -9 -2 -1 -1 -1.4404296875 -18.630859375 -2.5595703125 -12.369140625 -2.1279296875 -10.283203125 -2.8720703125 -9.716796875 -2 -6 -48 -117 -19.2021484375 -48.0927734375 -48.7978515625 -102.907226562 -8.72265625 -18.3955078125 -6.4326171875 -10.8212890625 -15.8447265625 -12.783203125 rrcurveto
            -19.4111328125 -15.6611328125 -16.5888671875 -6.3388671875 -21 -7 -6 -2 -2 -22 8 0 rrcurveto
            return
          </CharString>
          <CharString index="126">
            5.390625 -7.478515625 12.609375 -14.521484375 9 0 9.2197265625 0 3.7802734375 4 0 9 0 15 -72 126 -21 34 -11.0849609375 17.947265625 -17.4111328125 9.3173828125 -22.50390625 -0.2646484375 -17.1767578125 -0.2021484375 -16.8232421875 -13.7978515625 0 -14 0 -19 58 -35 80 -111 rrcurveto
            return
          </CharString>
          <CharString index="127">
            80 111 58 35 0 19 0 14 -16.8232421875 13.7978515625 -17.1767578125 0.2021484375 -22.50390625 0.2646484375 -17.4111328125 -9.3173828125 -11.0849609375 -17.947265625 -21 -34 -72 -126 0 -15 0 -9 3.7802734375 -4 9.2197265625 0 9 0 12.609375 14.521484375 5.390625 7.478515625 rrcurveto
            return
          </CharString>
          <CharString index="128">
            0 0 41.3212890625 55.0419921875 28.6787109375 40.9580078125 28.6787109375 -40.9580078125 40.3212890625 -55.0419921875 0 0 5.380859375 -7.486328125 11.619140625 -10.513671875 12 0 8 0 5.90234375 9.4169921875 -5.90234375 11.5830078125 0 0 -53 107.69921875 -25 43.30078125 -10.5 18.1865234375 -10.5 10.8134765625 -7 0 rrcurveto
            -7 0 -10.5 -10.8134765625 -10.5 -18.1865234375 -21.5 -37.2392578125 -56.5 -113.760742188 0 0 -5.90234375 -11.5830078125 5.90234375 -9.4169921875 8 0 12 0 10.16796875 10.001953125 5.83203125 7.998046875 rrcurveto
            return
          </CharString>
          <CharString index="129">
            -5.736328125 -8.1923828125 15.7861328125 -18.7578125 4.9501953125 4.9501953125 20.505859375 20.505859375 19.494140625 15.494140625 15 0 rrcurveto
            return
          </CharString>
          <CharString index="130">
            25 0 67 -13 20 0 20 0 46.5576171875 59.08984375 17.4423828125 24.91015625 3.8486328125 5.49609375 -16.58984375 19.30859375 -5.2587890625 -6.8046875 -26.9072265625 -34.8134765625 -12.0927734375 -1.1865234375 -15 0 rrcurveto
            return
          </CharString>
          <CharString index="131">
            -25 0 -62 14 -20 0 rrcurveto
            -20 0 -41.595703125 -44.7197265625 -25.404296875 -36.2802734375 rrcurveto
            return
          </CharString>
          <CharString index="132">
            4 7 3 5 2 0 2 0 0 -4 0 -8 rrcurveto
            -154 vlineto
            -10 -1 0 -10 vhcurveto
            -84 hlineto
            -12 0 -3 1 6 9 29 48 40 66 24 40 rrcurveto
            return
          </CharString>
          <CharString index="133">
            -134.364257812 -116.635742188 -101 -135 -127.706054688 105 -108.293945312 122 hvcurveto
            58.8173828125 0 82.1826171875 16 7 13 10 16 20 46 3 17 1 8 1 10 -9 0 -5 0 -23 -5 -2 -8 -4 -13 -8 -24 -26 -15 -26 -16 -31 -11 -27 1 rrcurveto
            -106.790039062 3.955078125 -59.2099609375 108.044921875 0 106 0 90 51 98 101 0 42 0 43 -12 14 -14 8 -8 14 -19 3 -28 2 -16 12 -5 8 -1 6 -1 7 11 0 6 rrcurveto
            -1 37 -2 18 -2 21 -2 10 -2 10 -5 1 -12 4 -34 5 -11 4 -13 4 -37 4 -22 0 rrcurveto
            return
          </CharString>
          <CharString index="134">
            11 -2 15 -4 6 -21 2 -4 5.79296875 -15 10.20703125 0 6 0 1 6 -1 6 -2 35 -1 31 3 35 1 6 -6 5 -4 0 -3 0 -9 -10 -2 -3 rrcurveto
            -3 -9 -3 -3 -6 -6 -8 -7 -11 -3 -11 0 rrcurveto
            -87 hlineto
            -6 -1 8 7 hvcurveto
            0 34 1 4 1 33 1 19 4 28 1 6 1 9 8 9 8 0 rrcurveto
            106 hlineto
            17 0 13 -4 12 -14 7 -7 8 -16 5 -15 2 -5 1 -2 5 0 4 0 7 2 0 4 0 24 -6 42 -5 26 -1 5 -7 1 -4 0 rrcurveto
            -18 1 -125.342773438 -3.7099609375 -91.6572265625 -0.2900390625 rrcurveto
            return
          </CharString>
          <CharString index="135">
            -31.599609375 -0.099609375 -20.400390625 2.099609375 -29 0 -8.1904296875 0 2.1904296875 -20 6 -1 27 -8 3 1 13 -15 8 -8 1 -23 0 -19 rrcurveto
            -278 vlineto
            0 -17 -6.98046875 -9.107421875 -12.01953125 -10.892578125 -14.3505859375 -13.0048828125 -8.6494140625 -1.9951171875 -22 -6 -6 -1 1 -23 5 0 rrcurveto
            return
          </CharString>
          <CharString index="136">
            0 73 6 34 vhcurveto
            68 0 80.2099609375 -5 94.7900390625 0 7 0 1 6 1 6 6 22 8 37 3 27 0 5 -4.3076171875 2.8046875 -4.6923828125 0.1953125 -6.4501953125 0.2685546875 -5.5498046875 -1.2685546875 -3 -6 -5 -11 -15 -25 -12 -10 rrcurveto
            -9 -7 -36 -5 -3 0 rrcurveto
            -88 hlineto
            -30 0 -12 23 -1 28 -1 39 -1 29 0 42 0 12 7.7353515625 3.560546875 9.2646484375 1.439453125 rrcurveto
            33.14453125 5.1494140625 24.85546875 -2.1494140625 28 -4 rrcurveto
            return
          </CharString>
          <CharString index="137">
            -25 -25 -25 -25 -25 25 -25 25 25 25 25 25 hvcurveto
            25 -25 25 -25 vhcurveto
            return
          </CharString>
          <CharString index="138">
            0 73 6 34 vhcurveto
            68 0 80.2099609375 -5 94.7900390625 0 7 0 1 6 1 6 6 22 8 37 3 27 0 5 -4.3076171875 2.8046875 -4.6923828125 0.1953125 -6.4501953125 0.2685546875 -5.5498046875 -1.2685546875 -3 -6 -5 -11 -15 -25 -12 -10 rrcurveto
            -9 -7 -36 -5 -3 0 rrcurveto
            -88 hlineto
            -30 0 -12 23 -1 28 -1 39 -1 29 0 42 0 12 7.7353515625 3.560546875 9.2646484375 1.439453125 33.14453125 5.1494140625 24.85546875 -2.1494140625 28 -4 rrcurveto
            return
          </CharString>
          <CharString index="139">
            0 12 6 9 8 6 14 13 15 5 17 7 7 3 2 20 -9 0 -41 0 -16.94140625 -2 -37.05859375 0 -39.0078125 0 -17.9921875 2 -43 0 -6 0 -1 -20 7 -3 rrcurveto
            17 -7 12.228515625 -4.1982421875 14.771484375 -12.8017578125 9.50390625 -8.2373046875 6.49609375 -6.7626953125 0 -13 rrcurveto
            -295 vlineto
            0 -15 -1.6904296875 -11.703125 -11.3095703125 -10.296875 -17.041015625 -15.515625 -15.958984375 -4.484375 -21 -4 -12 -3 4 -21 8 0 38 0 27.224609375 5 41.775390625 0 39.828125 0 22.171875 -5 40 0 12 0 0 21 -12 3 rrcurveto
            -21 4 -15.2216796875 4.724609375 -16.7783203125 15.275390625 -11.408203125 10.38671875 -2.591796875 11.61328125 0 15 rrcurveto
            return
          </CharString>
          <CharString index="140">
            85 0 71 40 33 42 23 29 30 45 1 82 1 116 -87 102 -177 0 -18 0 -85 -7 -25 0 -31.9892578125 0 -22.0107421875 2 -28 0 -9.7578125 0 4.7578125 -23 6 -2 rrcurveto
            25 -7 2 -1 13 -15 7 -8 2 -23 0 -19 rrcurveto
            -261 vlineto
            -1 -18 -5.8359375 -10.2470703125 -12.1640625 -12.7529296875 rrcurveto
            return
          </CharString>
          <CharString index="141">
            -13.255859375 -13.8974609375 -10.744140625 -5.1025390625 -19 -5 -5 -1 0 -23 5 0 18 0 45.42578125 3.5029296875 40.57421875 -0.5029296875 53.8671875 -0.66796875 71.1328125 -5.33203125 13 0 rrcurveto
            return
          </CharString>
          <CharString index="142">
            29 0 16.7080078125 4 29.2919921875 0 29.6806640625 0 12.3193359375 -4 34 0 12 0 -2 23 -7 1 -21 4 -3.708984375 3.3671875 -10.291015625 11.6328125 -8.9892578125 10.1611328125 -1.0107421875 9.8388671875 -1 13 -2 62 4 136 2 61 rrcurveto
            1 9 4 10 20 -22 109 -124 58 -68 101 -124 rrcurveto
            return
          </CharString>
          <CharString index="143">
            8 -9 19.8388671875 -18 22.1611328125 0 14.3505859375 0 10.6494140625 12 0 15 0 146 -3.70703125 79.3408203125 8.70703125 143.659179688 0.779296875 12.8525390625 12.220703125 10.1474609375 6 4 6 5 9 8 20 3 7 0 -3 22 -4 0 rrcurveto
            -30 0 -20.5927734375 -4 -32.4072265625 0 -34.35546875 0 -17.64453125 4 -36 0 -5 0 1 -21 4 -1 13 -5 55 -11 1 -31 4 -112 3 -52 -4 -104 -1 -27 -12.3359375 21.7529296875 -4.6640625 5.2470703125 rrcurveto
            -109.27734375 122.936523438 -54.658203125 75.34375 -106.064453125 125.719726562 -5.5146484375 6.537109375 -2.4853515625 8.462890625 -8 0 -51 0 -39 -2 -54 2 -9 0 0 -24 9 0 11 -1 32 -2 21 -25 8 -10 -2 -6 0 -20 rrcurveto
            0 -113 -0.5859375 -57.9541015625 -6.4140625 -109.045898438 -1 -17 -1.7490234375 -13.6357421875 -12.2509765625 -13.3642578125 rrcurveto
            return
          </CharString>
          <CharString index="144">
            -11.353515625 -12.3857421875 -10.646484375 -0.6142578125 -18 -3 rrcurveto
            -6 -1 -3.3603515625 -23 9.3603515625 0 rrcurveto
            return
          </CharString>
          <CharString index="145">
            120 51 -111 -101 -79 -34 -111 -115 -112 -56 93 117 hvcurveto
            95 34 97 112 vhcurveto
            return
          </CharString>
          <CharString index="146">
            -118.860351562 75 -98.1396484375 139 145 36 115.85546875 114.14453125 vhcurveto
            0 62 5 74 2 22 2 37 25.4326171875 11.88671875 30.5673828125 6.11328125 5 1 3.580078125 21 -8.580078125 0 -32 0 -18 -1 -31 0 rrcurveto
            -72 hlineto
            -10.1474609375 0 0.1474609375 -23 9 -3 33 -8 13 -6 -1 -61 rrcurveto
            -157 vlineto
            -123 -40 -48 -84 -92 -60 76.0791015625 86.9208984375 vhcurveto
            0 35 -2 85 2 60 1 39 10 18 29 4 8 2 0 22 -8 0 -39 0 -3.0791015625 -2 -26.9208984375 0 -33.939453125 0 -21.060546875 2 -32 0 -9.78125 0 3.78125 -23 8 -2 rrcurveto
            23 -7 16 -3 0 -43 rrcurveto
            return
          </CharString>
          <CharString index="147">
            -18.865234375 -5.134765625 -33 -9 -6 6.80859375 -6 7.19140625 hvcurveto
            255 hlineto
            19.736328125 0 5.0224609375 21.2763671875 6.2412109375 18.7236328125 2.3564453125 7.068359375 -7.9052734375 6.931640625 -7.451171875 0 rrcurveto
            return
          </CharString>
          <CharString index="148">
            -17.5283203125 -6.4716796875 -29 -9 -6 6.80859375 -6 7.19140625 hvcurveto
            215 hlineto
            18.5283050537 0 6.19630432129 18.5673980713 6.275390625 17.4326019287 2.52340698242 7.0107421875 -8.07223510742 6.9892578125 -7.451171875 0 rrcurveto
            return
          </CharString>
          <CharString index="149">
            27 0 16.2411956787 5 27.7588043213 0 38.6591949463 0 20.3408050537 -5 40 0 9 0 0 22 -9 2 -13 3 -18 10 -11 17 -4 7 0.5068359375 13.3681945801 2.4931640625 12.6318054199 3.46479797363 17.5547027588 0.535202026367 -5.55470275879 12 31 rrcurveto
            4 9 1.3818359375 3 6.6181640625 0 rrcurveto
            142 hlineto
            14 0 3 -1 2 -6 10 -27 -1 9 5 -25 3 -13 3.4130859375 -14.3798980713 -8.4130859375 -13.6201019287 -9.88960266113 -16.0126953125 -14.1103973389 -7.9873046875 -16 -3 -6 -1 -4.3681640625 -23 9.3681640625 0 33 0 30.3936004639 5 40.6063995361 0 rrcurveto
            38 0 20.5088043213 -5 37.4911956787 0 12 0 -5 22 -7 2 -17 4 -16 12 -12 13 -18 19 -9 15 -8 23 rrcurveto
            -125 347 rlineto
            -2 6 -1 3 -4 0 -3 0 -3 -5 -8 -9 -6 -7 -30 -22 -9 -2 -1 -1 -1.4404296875 -18.6309051514 -2.5595703125 -12.3690948486 -2.1279296875 -10.283203125 -2.8720703125 -9.716796875 -2 -6 -48 -117 -19.2021026611 -48.0930023193 -48.7978973389 -102.906997681 rrcurveto
            -8.72270202637 -18.3954925537 -6.43260192871 -10.8213043213 -15.8446960449 -12.783203125 -19.4111022949 -15.6611022949 -16.5888977051 -6.33889770508 -21 -7 -6 -2 -2 -22 8 0 rrcurveto
            return
          </CharString>
          <CharString index="150">
            -5 9 -7 12 -10 0 rrcurveto
            -10 0 -11 -13 -75 70 -55 80 80 70 66 64 13 0 11 -10 hvcurveto
            -10 0 -7 -12 -5 -9 -12 -22 -36 -41 -70 0 -70 0 -36 41 -12 22 rrcurveto
            return
          </CharString>
          <CharString index="151">
            -5 9 -2 12 -10 0 rrcurveto
            -10 -5 -11 -13 -75 37 -41 70 70 37 52 64 13 -5 11 -10 hvcurveto
            -10 0 -2 -12 -5 -9 -13 -22 -2 -42 -60 0 -60 0 -2 42 -13 22 rrcurveto
            return
          </CharString>
          <CharString index="152">
            -87 -56.9999847412 -51 -87 0 -53 0 -74 43.3311004639 -34 57.6688995361 0 50 0 28 42 6 7 6.7001953125 7.81639099121 7.3271484375 11.3466949463 1.97265625 11.8369140625 1 6 -8.869140625 3.21287536621 -4.130859375 -3.21287536621 -9 -7 -17.9824066162 -13 -28.0175933838 0 rrcurveto
            -34 -26 25 44 hvcurveto
            0 59 22 54 68 57 rrcurveto
            return
          </CharString>
          <CharString index="153">
            -26 -51 -48 -70 -112 0 rrcurveto
            -156 -98 168.282226562 162.717773438 147 100.66015625 138 147.33984375 hvcurveto
            92 0 45 -41 10 -10 12 -11 18 -22 5 -40 4 -23 11 -13 11 -1 10 -1 2 15 -1 9 -1 52 -3 26 -4 31 -1 14 -3.8447265625 14.77734375 -8.1552734375 1.22265625 rrcurveto
            -20 3 -38 9 -18 6 -18 6 -56 6 -32 0 rrcurveto
            -194 -170 -146 -194 -182 140.66796875 -156 182.33203125 hvcurveto
            60 0 74 4 34 16 24 11 20 2 5 8 15 23 14 56 4 25 2 11 -3 20 -7 -5 -5 -4 -14.2548828125 -3.7314453125 -5.7451171875 -11.2685546875 rrcurveto
            return
          </CharString>
          <CharString index="154">
            -134.363998413 -116.636001587 -101 -135 -127.705993652 105 -108.294006348 122 hvcurveto
            58.8173980713 0 82.1826019287 16 7 13 10 16 20 46 3 17 1 8 1 10 -9 0 -5 0 -23 -5 -2 -8 -4 -13 -8 -24 -26 -15 -26 -16 -31 -11 -27 1 rrcurveto
            -106.789993286 3.95500183105 -59.2100067139 108.044998169 0 106 0 90 51 98 101 0 42 0 43 -12 14 -14 8 -8 14 -19 3 -28 2 -16 12 -5 8 -1 6 -1 7 11 0 6 rrcurveto
            -1 37 -2 18 -2 21 -2 10 -2 10 -5 1 -12 4 -34 5 -11 4 -13 4 -37 4 -22 0 rrcurveto
            return
          </CharString>
          <CharString index="155">
            70 96 69 -96 rlineto
            5.38090515137 -7.48629760742 11.6190948486 -10.5137023926 12 0 8 0 5.90234375 9.41700744629 -5.90234375 11.5829925537 0 0 -53 107.699203491 -25 43.3007965088 -10.5 18.1864929199 -10.5 10.8135070801 -7 0 -7 0 -10.5 -10.8135070801 -10.5 -18.1864929199 -21.5 -37.2389984131 -56.5 -113.761001587 0 0 rrcurveto
            -5.90229797363 -11.5830078125 5.90229797363 -9.4169921875 8 0 12 0 10.16796875 10.001953125 5.83203125 7.998046875 rrcurveto
            return
          </CharString>
          <CharString index="156">
            -28 22 -22 28 29 22 22 28 29 -22 22 -29 -28 -22 -22 -29 vhcurveto
            return
          </CharString>
          <CharString index="157">
            -11 -7 2 0 -11 7 -26 15 -4 4 -49 26 -12 7 -27 11 -13 0 -15 0 -5 -12 12 -10 68 -57 -58 47 98 -78 20 -16 6 -6 15 0 rrcurveto
            15 0 6 6 20 16 98 78 -58 -47 68 57 12 10 -5 13 -15 0 -13 0 -10 -8 -12 -7 -49 -26 -21 -8 -26 -15 rrcurveto
            return
          </CharString>
          <CharString index="158">
            -5.83200073242 7.99800109863 -10.1679992676 10.0019989014 -12 0 -8 0 -5.90234375 -9.41700744629 5.90234375 -11.5829925537 0 0 56.5 -113.760696411 21.5 -37.2393035889 10.5 -18.1864929199 10.5 -10.8135070801 7 0 7 0 10.5 10.8135070801 10.5 18.1864929199 25 43.300994873 53 107.699005127 0 0 rrcurveto
            5.90229797363 11.5830078125 -5.90229797363 9.4169921875 -8 0 -12 0 -11.619140625 -10.513671875 -5.380859375 -7.486328125 rrcurveto
            -69 -96 rlineto
            return
          </CharString>
          <CharString index="159">
            -5.83200073242 7.99800109863 -10.1679992676 10.0019989014 -12 0 -8 0 -5.90232849121 -9.41700744629 5.90232849121 -11.5829925537 0 0 56.5 -113.760696411 21.5 -37.2393035889 10.5 -18.1864929199 10.5 -10.8135070801 7 0 7 0 10.5 10.8135070801 10.5 18.1864929199 25 43.300994873 53 107.699005127 0 0 rrcurveto
            5.90231323242 11.5830078125 -5.90231323242 9.4169921875 -8 0 -12 0 -11.619140625 -10.513671875 -5.380859375 -7.486328125 rrcurveto
            -69 -96 rlineto
            return
          </CharString>
          <CharString index="160">
            -18.865234375 -5.134765625 -33 -9 -6 6.80859375 -6 7.19140625 hvcurveto
            255 hlineto
            19.736328125 0 5.0224609375 21.2763671875 6.2412109375 18.7236328125 2.35546875 7.068359375 -7.904296875 6.931640625 -7.451171875 0 rrcurveto
            return
          </CharString>
          <CharString index="161">
            11 -2 15 -4 6 -21 2 -4 5.79299926758 -15 10.2070007324 0 6 0 1 6 -1 6 -2 35 -1 31 3 35 1 6 -6 5 -4 0 -3 0 -9 -10 -2 -3 rrcurveto
            -3 -9 -3 -3 -6 -6 -8 -7 -11 -3 -11 0 rrcurveto
            -87 hlineto
            -6 -1 8 7 hvcurveto
            0 34 1 4 1 33 1 19 4 28 1 6 rrcurveto
            return
          </CharString>
          <CharString index="162">
            1 9 8 9 8 0 rrcurveto
            106 hlineto
            17 0 13 -4 12 -14 7 -7 8 -16 5 -15 2 -5 1 -2 5 0 4 0 7 2 0 4 0 24 -6 42 -5 26 -1 5 -7 1 -4 0 rrcurveto
            -18 1 -125.342803955 -3.7099609375 -91.6571960449 -0.2900390625 rrcurveto
            return
          </CharString>
          <CharString index="163">
            -31.5995941162 -0.099609375 -20.4004058838 2.099609375 -29 0 -8.1904296875 0 2.1904296875 -20 6 -1 27 -8 3 1 13 -15 8 -8 1 -23 0 -19 rrcurveto
            -278 vlineto
            0 -17 -6.98049926758 -9.10740661621 -12.0195007324 -10.8925933838 -14.3506011963 -13.0048828125 -8.64939880371 -1.9951171875 -22 -6 -6 -1 1 -23 5 0 rrcurveto
            return
          </CharString>
          <CharString index="164">
            0 73 6 34 vhcurveto
            68 0 80.2100067139 -5 94.7899932861 0 7 0 1 6 1 6 6 22 8 37 3 27 0 5 -4.3076171875 2.8046875 -4.6923828125 0.1953125 -6.4501953125 0.2685546875 -5.5498046875 -1.2685546875 -3 -6 -5 -11 -15 -25 -12 -10 rrcurveto
            -9 -7 -36 -5 -3 0 rrcurveto
            -88 hlineto
            -30 0 -12 23 -1 28 -1 39 -1 29 0 42 0 12 7.7353515625 3.560546875 9.2646484375 1.439453125 33.1445007324 5.1494140625 24.8554992676 -2.1494140625 28 -4 rrcurveto
            return
          </CharString>
          <CharString index="165">
            -5 9 -2 12 -10 0 rrcurveto
            -10 -5 -11 -13 -75 37 -41 70 70 37 52 64 13 -5 11 -10 hvcurveto
            -10 0 -2 -12 -5 -9 -13 -22 -2 -42 -60 0 rrcurveto
            -60 0 -2 42 -13 22 rrcurveto
            return
          </CharString>
          <CharString index="166">
            -28 22 -22 28 29 22 22 28 29 -22 22 -29 vhcurveto
            -28 -22 -22 -29 hvcurveto
            return
          </CharString>
          <CharString index="167">
            -2 15 -156 24 -50 0 rrcurveto
            -193.818359375 -174.181640625 -141 -193 -192.236328125 161.763671875 -150.763671875 192.236328125 hvcurveto
            37 0 39.8173828125 9.1103515625 47.1826171875 13.8896484375 43.427734375 12.7841796875 23.4189453125 11.3095703125 40.1533203125 20.90625 7.888671875 4.107421875 6.111328125 8.892578125 0 5 0 5 -8.8359375 4.7666015625 -4.1640625 7.2333984375 rrcurveto
            return
          </CharString>
          <CharString index="168">
            -3.3251953125 5.775390625 -2.6181640625 3.560546875 -0.056640625 6.6640625 -0.337890625 39.826171875 -0.662109375 23.173828125 6 39 4 27 9 14 29 8 5 1 16 8 0 9 0 13 -16 3 -5 0 -36 0 -18.2548828125 -4 -34.7451171875 0 rrcurveto
            -55 0 -21.8349609375 4 -49.1650390625 0 rrcurveto
            -5 -15 -7 -10 -10 15 -7 5 hvcurveto
            20 0 61 -9 17 -22 rrcurveto
            return
          </CharString>
          <CharString index="169">
            9 -12 -6 -46 0 -30 0 -35 -6 -30 -18 -12 -14.3154296875 -9.54296875 -41.6845703125 -26.45703125 -77 -1 -160.965820312 -2.0908203125 -96.0341796875 164.112304688 0 160.978515625 0 158 111.266601562 121 148.733398438 0 95 0 51 -37 13 -16 rrcurveto
            return
          </CharString>
          <CharString index="170">
            16 -19 7 -13 8 -21 4 -12 5.1669921875 -15 13.8330078125 0 8 0 7 10 0 10 rrcurveto
            0 26 -5 44 -6 42 rrcurveto
            return
          </CharString>
          <CharString index="171">
            70 96 69 -96 rlineto
            5.38090515137 -7.48629760742 11.6190948486 -10.5137023926 12 0 8 0 5.90234375 9.41700744629 -5.90234375 11.5829925537 0 0 -53 107.699203491 -25 43.3007965088 -10.5 18.1864929199 -10.5 10.8135070801 -7 0 -7 0 -10.5 -10.8135070801 -10.5 -18.1864929199 -21.5 -37.2389984131 -56.5 -113.761001587 0 0 rrcurveto
            -5.90229797363 -11.5830078125 5.90229797363 -9.4169921875 8 0 rrcurveto
            12 0 10.16796875 10.001953125 5.83203125 7.998046875 rrcurveto
            return
          </CharString>
          <CharString index="172">
            -105 -63 106 108 hvcurveto
            0 104 73.0469055176 78.515625 97.9530944824 1.484375 66 1 28 -20 9 -10 11 -14 7 -18 5 -14 3 -8 13.1513977051 -11 13.8486022949 0 6 0 5 7 0 7 0 18 -5.8994140625 31.5995941162 -7.1005859375 28.4004058838 rrcurveto
            -3 12 -9.21389770508 3.8349609375 -12.7861022949 4.1650390625 -30.7001953125 10 -32.2998046875 4 -51 0 rrcurveto
            -138.832992554 -131.167007446 -97 -135 -133.830993652 117.169006348 -100.169006348 133.830993652 hvcurveto
            26 0 33.5596008301 5.37989807129 36.4403991699 10.6201019287 32.3524932861 9.42869567871 16.9873046875 9.57521057129 29.6602020264 15.99609375 rrcurveto
            return
          </CharString>
          <CharString index="173">
            5.6298828125 3.0361328125 4.3701171875 5.9638671875 0 4 0 3 -6.1796875 3.2275390625 -2.8203125 4.7724609375 rrcurveto
            return
          </CharString>
          <CharString index="174">
            -2.322265625 3.9296875 -1.6220703125 2.505859375 -0.0556640625 4.564453125 -0.337890625 27.7129058838 0.337890625 15.2870941162 3 28 2 18 17 9 20 6 5 2 2 14.1221008301 0 10.8778991699 0 4 -4.78125 2 -4.21875 0 -25 0 -22.5702972412 -2 -30.4297027588 0 rrcurveto
            -38 0 -25.4228973389 3 -40.5771026611 0 -3 0 0 -5 0 -3 2 -10 5 -16 7 0 14 0 40 -6 13 -15 rrcurveto
            return
          </CharString>
          <CharString index="175">
            6 -8 -4 -26 0 -21 0 -24 -4 -21 -17 -11 -12 -7 -41 -15 -35 0 rrcurveto
            return
          </CharString>
          <CharString index="176">
            18.70703125 -4.1572265625 12.29296875 -7.3427734375 0 -17 0 -28 -14.5 -37.5 -39 -14 -20.1201171875 -7.22265625 2.6123046875 -18.7138671875 23.5078125 4.9365234375 50 10.5 51 45.5 0 64 rrcurveto
            56 -40 41 -48 -29 -17 -19.5 -24 vhcurveto
            0 -22 27 -17.5 22.5 -5 rrcurveto
            return
          </CharString>
          <CharString index="177">
            18.7070007324 -4.15719604492 12.2929992676 -7.34280395508 0 -17 0 -28 -14.5 -37.5 -39 -14 -20.1201019287 -7.22270202637 2.6123046875 -18.7138214111 23.5077972412 4.9365234375 50 10.5 51 45.5 0 64 rrcurveto
            56 -40 41 -48 -29 -17 -19.5 -24 vhcurveto
            0 -22 27 -17.5 22.5 -5 rrcurveto
            return
          </CharString>
          <CharString index="178">
            -5.73629760742 -8.19239807129 15.7861022949 -18.7577972412 4.9501953125 4.9501953125 20.5059051514 20.5059051514 19.4940948486 15.4940948486 15 0 rrcurveto
            return
          </CharString>
          <CharString index="179">
            25 0 67 -13 20 0 20 0 46.5576019287 59.0897979736 17.4423980713 24.9102020264 3.84860229492 5.49609375 -16.5898132324 19.30859375 -5.2587890625 -6.8046875 -26.9071960449 -34.8134765625 -12.0928039551 -1.1865234375 -15 0 rrcurveto
            return
          </CharString>
          <CharString index="180">
            -25 0 -62 14 -20 0 rrcurveto
            -20 0 -41.595703125 -44.7196960449 -25.404296875 -36.2803039551 rrcurveto
            return
          </CharString>
          <CharString index="181">
            0 12 6 9 8 6 14 13 15 5 17 7 7 3 2 20 -9 0 -41 0 -16.94140625 -2 -37.05859375 0 -39.0077972412 0 -17.9922027588 2 -43 0 -6 0 -1 -20 7 -3 rrcurveto
            17 -7 12.2285003662 -4.19819641113 14.7714996338 -12.8018035889 9.50390625 -8.2373046875 6.49609375 -6.7626953125 0 -13 rrcurveto
            -295 vlineto
            0 -15 -1.69039916992 -11.7030944824 -11.3096008301 -10.2969055176 -17.0410003662 -15.515625 -15.9589996338 -4.484375 -21 -4 -12 -3 4 -21 8 0 38 0 27.2245941162 5 41.7754058838 0 39.8280944824 0 22.1719055176 -5 40 0 12 0 0 21 -12 3 rrcurveto
            -21 4 -15.2216949463 4.72459411621 -16.7783050537 15.2754058838 -11.408203125 10.3867034912 -2.591796875 11.6132965088 0 15 rrcurveto
            return
          </CharString>
          <CharString index="182">
            0 -96 -19 -60 -44 -2 -17.9814453125 -0.8173828125 -15.638671875 5.2470703125 -16.3798828125 24.5703125 -12 18 -11.98046875 8 -26.01953125 0 -18.0302734375 0 -17.9697265625 -27.7890625 0 -27.2109375 0 -22 42 -22 70 2 51.978515625 1.4853515625 36.416015625 27.935546875 25.60546875 36.5791015625 rrcurveto
            28 40 25 26 0 210 rrcurveto
            409 vlineto
            1 46 6 16 50 9 23 4 10 7 0 9 0 8 -12 3 -17 0 -54 0 -3.3212890625 -3 -36.6787109375 0 -45.64453125 0 -17.35546875 3 -54 0 -17 0 -12 -3 0 -8 rrcurveto
            0 -9 10 -7 23 -4 50 -9 17 -16 -1 -46 rrcurveto
            return
          </CharString>
          <CharString index="183">
            -290 vlineto
            0 -21 1 -58 -3 -59 -1.4296875 -28.1240234375 -6.5703125 -17.8759765625 -10 -14 -10.16796875 -14.2353515625 -18.83203125 -5.7646484375 -26 0 -18 0 -20 19 -7 9 -8 11 -18.6982421875 11.0498046875 -16.3017578125 -7.0498046875 -20.154296875 -8.7158203125 -11.408203125 -16.3330078125 0.5625 -21.951171875 rrcurveto
            0.4521484375 -17.65234375 17.5478515625 -8.34765625 15 -5 24 -8 19 0 27 0 29 0 46.267578125 14.2822265625 31.732421875 32.7177734375 35.482421875 36.583984375 12.517578125 38.416015625 6 44 2.359375 17.3037109375 2.640625 27.6962890625 0 100 rrcurveto
            240 vlineto
            0 13 6 9 8 6 14 13 15 5 17 7 7 3 2 20 -9 0 -41 0 -16.94140625 -2 -37.05859375 0 -39.0078125 0 -17.9921875 2 -43 0 -6 0 -1 -20 7 -3 rrcurveto
            17 -7 12.3505859375 -4.0595703125 14.6494140625 -12.9404296875 9.6806640625 -8.55078125 6.3193359375 -6.44921875 0 -14 rrcurveto
            return
          </CharString>
          <CharString index="184">
            23 -6 2.6904296875 -24.8505859375 -21.6904296875 -22.1494140625 rrcurveto
            -200 -204 rlineto
            -7.4365234375 -7.5947265625 -12.5634765625 -10.4052734375 -7 0 -5 0 0 14 0 5 rrcurveto
            187 vlineto
            0 39 4 23 50 9 23 4 10 7 0 9 0 8 -12 3 -17 0 -54 0 -5.162109375 -2 -37.837890625 0 -43.6865234375 0 -14.3134765625 2 -54 0 -17 0 -12 -3 0 -8 rrcurveto
            0 -9 10 -7 23 -4 50 -9 17 -16 0 -46 rrcurveto
            -450 vlineto
            0 -50 -17 -18 -50 -9 -23 -4 -10 -5 0 -9 0 -8 12 -3 17 0 54 0 22.7841796875 7 49.2158203125 0 38.3173828125 0 5.6826171875 -7 54 0 17 0 12 3 0 8 rrcurveto
            0 9 -10 5 -23 4 -50 9 -12 34 -2 43 -3 80 -2 49 0 63 0 7 -1 14 5 0 5 0 10.376953125 -8.857421875 7.623046875 -8.142578125 84.1630859375 -89.892578125 78.8369140625 -89.107421875 49 -55 rrcurveto
            17 -19 9 -17 -39 -9 -19 -4 -8 -4 0 -9 0 -8 12 -3 17 0 54 0 5.7841796875 1.6953125 38.2158203125 -0.6953125 47.6123046875 -0.865234375 20.3876953125 -4.134765625 54 0 17 0 12 3 0 8 rrcurveto
            0 9 -10 4 -23 5 -57 12 -10 11 -43 48 -100 110 -41 36 -101 112 -7 7 -2.91015625 5.6171875 4.91015625 5.3828125 70.443359375 77.2236328125 49.556640625 48.7763671875 72 61 46 39 56 18 50 9 rrcurveto
            23 4 10 7 0 9 0 8 -12.083984375 4.6923828125 -16.916015625 -1.6923828125 -30 -3 -52.3369140625 0.0078125 -52.6630859375 -1.0078125 -28.853515625 -0.5517578125 8.853515625 0.5517578125 -54 0 -17 0 -12 -3 0 -8 0 -9 8.40625 -5.1064453125 22.59375 -5.8935546875 rrcurveto
            return
          </CharString>
          <CharString index="185">
            -65 74 -27 38 -67 76 -4 5 -2.2568359375 3.44140625 3.2568359375 3.55859375 44.6953125 48.826171875 29.3046875 27.173828125 48 42 31 28 14 8 43 5 4 1 3 28 -7 0 -38 -4 -39 -2 -11 0 rrcurveto
            return
          </CharString>
          <CharString index="186">
            -25 0 -19 -1 -31 3 -8 0 -2 -30 8 -2 23 -5 10 -18 -10 -11 0 0 -103 -106 -29 -26 -5 -5 -5 -2 -5 0 -3 0 0 5 0 3 rrcurveto
            0 43 1 24 2 55 0.4931640625 13.5576171875 3.5068359375 13.4423828125 7 6 rrcurveto
            return
          </CharString>
          <CharString index="187">
            14 12 8 3 17 2 7 1 1 24 -8 0 -38 0 -14.439453125 -3 -33.560546875 0 -38.23828125 0 -19.76171875 3 -40 0 -6 0 0 -23 6 -2 17 -4 10.32421875 -6.7890625 13.67578125 -12.2109375 rrcurveto
            8.9853515625 -8.0234375 6.0146484375 -6.9765625 0 -12 rrcurveto
            -292 vlineto
            0 -15 -1.619140625 -10.4521484375 -10.380859375 -10.5478515625 -15.544921875 -15.794921875 -15.455078125 -6.205078125 -19 -5 -12 -2 4 -22 8 0 35 0 28.41015625 4 40.58984375 0 33.576171875 0 15.423828125 -4 37 0 11 0 0 22 -11 2 rrcurveto
            -20 5 -8 6 -13 13 -5 5 -3.443359375 18.400390625 -0.556640625 15.599609375 -2 56 -1 27 0 44 0 5 -1 10 4 0 3 0 7.0107421875 -6.412109375 4.9892578125 -5.587890625 53.5869140625 -60.0166015625 45.4130859375 -56.9833984375 36 -39 rrcurveto
            10 -10 1 -4 0 -7 0 -9 -24 -2 -17 -5 -6 -1 0 -23 8 0 15 0 60.0048828125 4 47.9951171875 0 33 0 25 -7 20 0 10 0 -4 23 -6 2 rrcurveto
            -39 11 -14 4 -29 33 rrcurveto
            return
          </CharString>
          <CharString index="188">
            0 20 0 21 1 51 0 30 2 16 4 31 1 10 -5 5 -10 -1 -39 -9 -6 -3 -54 -2 -8 -1 -1 -15 7 -5 21 -16 17 -18 1 -29 rrcurveto
            2 -50 -1 -132 0 -60 0 -16 -2 -12 -11 -12 -12 -12 -23 3 -7 -4 -9 -5 0 -19 9 0 39 0 16 5 35 0 35 0 15 -5 39 0 rrcurveto
            9 0 -1 19 -8 5 -7 4 -25 -1 -9 10 -11 12 -2 15 0 16 -1 45 0 40 -1 37 0 0 7 9 3 -3 58 -53 79 -87 5 -5 rrcurveto
            13 -15 -15 -20 -29 -4 -9 -1 0 -23 9 0 39 0 7 6 29 -1 51 -1 43 -4 37 -4 9 -1 -1 23 -8 2 -34 7 -30 25 -22 21 rrcurveto
            -13 13 -87 83 -57 67 -4 5 6 5 5 4 57 45 79 58 13 8 18 11 22 5 24 8 8 3 1 22 -9 -1 -27 -3 -30 -3 -36 0 rrcurveto
            -28 0 -5 2 -21 0 -8 0 0 -19 8 -5 14 -8 18 -7 -7 -10 -12 -16 -77 -57 -60 -44 -9 -7 -7 -3 -11 -2 -3 -1 -3 1 0 7 rrcurveto
            return
          </CharString>
          <CharString index="189">
            6 1 4 23 -10 0 -18 1 -61 -4 -51 0 -30 0 -17 2 -29 0 -9 0 3 -23 6 -1 27 -8 3 1 14 -15 7 -8 2 -24 0 -20 rrcurveto
            -270 vlineto
            0 -18 -7 -11 -13 -13 rrcurveto
            return
          </CharString>
          <CharString index="190">
            -14 -14 -9 -1 -23 -6 -6 -1 1 -21 5 0 rrcurveto
            return
          </CharString>
          <CharString index="191">
            0 71 3 35 vhcurveto
            70 0 92 -4 104 0 7 0 8 6 0 6 3 29 9 37 10 36 1 5 -5 4 -5 0 -11 1 -14 -3 -3 -5 -12 -25 -8 -18 -21 -21 rrcurveto
            -12 -12 -24 -6 -4 0 rrcurveto
            -96 hlineto
            -46 -8 26 28 hvcurveto
            267 vlineto
            0 20 5 25 8 8 13 15 24 0 28 8 rrcurveto
            return
          </CharString>
          <CharString index="192">
            29 0 16.7079925537 4 29.2920074463 0 29.6806945801 0 12.3193054199 -4 34 0 12 0 -2 23 -7 1 -21 4 -3.70899963379 3.36720275879 -10.2910003662 11.6327972412 -8.9892578125 10.1611022949 -1.0107421875 9.83889770508 -1 13 -2 62 4 136 2 61 rrcurveto
            1 9 4 10 20 -22 rrcurveto
            268 -316 rlineto
            return
          </CharString>
          <CharString index="193">
            8 -9 19.8388977051 -18 22.1611022949 0 14.3506011963 0 10.6493988037 12 0 15 0 146 -3.70703125 79.341003418 8.70703125 143.658996582 0.779296875 12.8524932861 12.220703125 10.1475067139 6 4 6 5 9 8 20 3 7 0 -3 22 -4 0 rrcurveto
            -30 0 -20.5928039551 -4 -32.4071960449 0 -34.3554992676 0 -17.6445007324 4 -36 0 -5 0 1 -21 4 -1 13 -5 55 -11 1 -31 4 -112 3 -52 -4 -104 -1 -27 -12.3359375 21.7529296875 -4.6640625 5.2470703125 rrcurveto
            -109.276992798 122.93699646 -54.6590118408 75.3430023193 -106.063995361 125.720001221 -5.51460266113 6.537109375 -2.48539733887 8.462890625 -8 0 -51 0 -39 -2 -54 2 -9 0 0 -24 9 0 11 -1 32 -2 21 -25 8 -10 -2 -6 0 -20 rrcurveto
            0 -113 -0.5859375 -57.953994751 -6.4140625 -109.046005249 -1 -17 -1.74899291992 -13.6356964111 -12.2510070801 -13.3643035889 rrcurveto
            return
          </CharString>
          <CharString index="194">
            -11.3535003662 -12.3857421875 -10.6464996338 -0.6142578125 -18 -3 rrcurveto
            -6 -1 -3.3603515625 -23 9.3603515625 0 rrcurveto
            return
          </CharString>
          <CharString index="195">
            -23 -17 -35 -26 -52 -12 -9.5078125 -2.1943359375 0.9501953125 -20.837890625 9.5576171875 -1.9677734375 34 -7 5 -29 2 -36 3 -61 -1 -64 -2 -86 -2 -28 -22 -8 -20 -6 -11 -4 -12 -4 0 -10 rrcurveto
            -10 18 1 5 vhcurveto
            39 0 4 5 35 0 35 0 4 -5 39 0 5 0 18 -1 0 10 0 10 -12 4 -11 4 rrcurveto
            -20 6 -22 11 0 28 rrcurveto
            return
          </CharString>
          <CharString index="196">
            14 16 52 51 21 18 11 10 11 11 -7 12 -10 17 -17 4 -20 0 -16 0 -7 -3 -11 -18 -14 -24 -13 -25 -30 -66 -6 -12 7 -9 7 0 rrcurveto
            8 0 14 11 6 7 rrcurveto
            return
          </CharString>
          <CharString index="197">
            20 38 91 113 -3 19 -3 14 -19 11 -17 -3 -22 -4 -15 -12 -8 -20 -15 -37 -49 -120 3 -15 1 -9 5 -3 9 1 8 2 10 17 4 8 rrcurveto
            return
          </CharString>
          <CharString index="198">
            25 40 86 111 -3 19 -3 14 -19 11 -17 -3 -22 -4 -15 -12 -8 -20 -15 -37 -49 -120 3 -15 1 -9 5 -3 9 1 8 2 9 17 5 8 rrcurveto
            return
          </CharString>
          <CharString index="199">
            -1 55 2 23 2 50 1 21 5 17 38 0 78 0 12 -51 0 -39 0 -41 -8 -26 -23 -14 -18 -12 -14 -8 -41 0 -21 0 -11 -2 -1 27 rrcurveto
            return
          </CharString>
          <CharString index="200">
            0 9 3 6 7 -1 13 -1 22.0673980713 -4.150390625 19.9326019287 -9.849609375 14.1123046875 -6.97270202637 7.8876953125 -8.02729797363 8 -12 47 -77 8 -19 33 -41 rrcurveto
            return
          </CharString>
          <CharString index="201">
            6 4 3 16 -7 0 -33 1 -14 -9 -28 28 -63 61 -18 49 -43 65 -3 4 0 1 3 1 9 4 17 11 14 14 11 10 24 43 0 31 rrcurveto
            75 -73 43 -101 vhcurveto
            -40 0 -18 -6 -26 0 -35.5097961426 0 -26.4902038574 3 -29 0 -9.75779724121 0 4.75779724121 -23 6 -2 27 -7 2 -1 14 -15 7 -8 2 -23 0 -19 rrcurveto
            -267 vlineto
            0 -17 -7.32229614258 -11.5175933838 -12.6777038574 -12.4824066162 -14.0438995361 -13.828125 -10.9561004639 -4.171875 -20 -5 -6 -2 0 -23 6 0 19 0 49.2577972412 6 43.7422027588 0 37.5126953125 0 44.4873046875 -6 14 0 7 0 -1 27 -6 2 rrcurveto
            -44 11 -20 17 -1 28 -1 37 -1 31 -1 40 rrcurveto
            return
          </CharString>
          <CharString index="202">
            -58 0 -54 25 -19 61 -9.8095703125 31.4931640625 -11.1904296875 33.5068359375 -8 1 -10.9150390625 1.3642578125 -12.0849609375 -23.3642578125 1 -8 1 -36 6 -55 11 -23 2 -5 6 -6 13 -6 17 -8 44 -16 73 0 rrcurveto
            150 58 109 80 hvcurveto
            0 102 -89 59 -57 37 rrcurveto
            return
          </CharString>
          <CharString index="203">
            -51.0830078125 33.1591796875 -81.9169921875 54.8408203125 0 64 0 67 53 41 62 0 56 0 46 -33 10 -58 2.5986328125 -15.07421875 13.4013671875 -12.92578125 19 0 9 0 -1.71875 18.00390625 -0.28125 8.99609375 -1 32 -5 32 -3 18 rrcurveto
            -1.6767578125 10.05859375 -6.267578125 12.94140625 -9.0556640625 0 -10 0 -45 20 -64 0 -120 0 -81 -80 0 -87 0 -80 57.1943359375 -52.1787109375 69.8056640625 -46.8212890625 rrcurveto
            return
          </CharString>
          <CharString index="204">
            80 111 58 35 0 19 0 14 -16.8231964111 13.7978515625 -17.1768035889 0.2021484375 -22.50390625 0.264602661133 -17.4110870361 -9.31730651855 -11.0850067139 -17.9472961426 -21 -34 -72 -126 0 -15 0 -9 3.7802734375 -4 9.2197265625 0 rrcurveto
            9 0 12.609375 14.521484375 5.390625 7.478515625 rrcurveto
            return
          </CharString>
          <CharString index="205">
            -79 0 -32 97 -8 0 -8 0 -12 -5 0 -6 1 -25 14 -54 8 -16 2 -3 -2 -3 11 -2 25 -5 29 -13 54 0 rrcurveto
            return
          </CharString>
          <CharString index="206">
            113 46 76 55 hvcurveto
            0 70 -71 50 -39 25 -37 24 -57 31 0 44 0 38 22 21 47 0 rrcurveto
            return
          </CharString>
          <CharString index="207">
            25 0 49 -8 18 -63 2 -10 18 -7 4 0 4 0 4 11 0 6 0 24 -6 26 -5 24 -1 6 -4.326171875 7.9765625 -7.673828125 1.0234375 -15 2 -28 15 -48 0 rrcurveto
            -103 -49 -76 -42 hvcurveto
            0 -55 43 -49 52 -33 rrcurveto
            return
          </CharString>
          <CharString index="208">
            59 -38 40 -21 0 -45 0 -42 -16 -33 -62 0 rrcurveto
            return
          </CharString>
          <CharString index="209">
            5 2 4 0 7 0 35 -2 32 -15 0 -36 0 -26 -13 -19 -26 0 -22 0 -12 4 -15 6 -6.56640625 2.62600708008 -6.87890625 -4.98341369629 -1.5546875 -6.64259338379 -3.396484375 -14.5097961426 0.115234375 -10.4882049561 7.28125 -13.0019989014 rrcurveto
            5.11329650879 -9.130859375 4.88670349121 -2.869140625 14 0 36 0 89 55 0 80 0 33 -29 29 -32 14 -4.93359375 2.158203125 -8.8115234375 9.0205078125 6.7451171875 8.8212890625 rrcurveto
            39 51 -31 0 -88 -112 rlineto
            -11.8681945801 -15.103515625 20.3027648926 -12.5224609375 6.5654296875 2.6259765625 rrcurveto
            return
          </CharString>
          <CharString index="210">
            455 vlineto
            0 18 2 23 14 2 18 2 65 2 52 0 64 0 22.62890625 -18.0712890625 5.37109375 -27.9287109375 5 -26 4 -15 10 0 11 0 5.8115234375 24.0302734375 -0.8115234375 10.9697265625 -2 27 8 40 10 41 rrcurveto
            2.416015625 9.9072265625 -2.416015625 22.0927734375 -6 0 -15 0 -15 -22 -20 -14 -9.865234375 -6.9052734375 -19.1171875 -7.0947265625 -29.017578125 0 rrcurveto
            -381 hlineto
            -28.017578125 0 -33.982421875 6 -8 14 -6 11 -14 21 -5 0 -5 0 -9 -1 -3 -22 -6 -42 -7 -31 -18 -38 -7 -13 0 -20 9 0 15 0 20 27 6 11 rrcurveto
            14 26 36 13 32 0 64 0 31 1 26 -5 16 -3 2 -22 0 -18 rrcurveto
            -455 vlineto
            0 -48 -28 -21 -50 -9 -23 -4 -10 -5 0 -9 0 -8 12 -3 17 0 54 0 24.0419921875 5 49.9580078125 0 45.671875 0 17.328125 -5 54 0 17 0 12 3 0 8 rrcurveto
            0 9 -10 5 -23 4 -50 9 -29 21 0 48 rrcurveto
            return
          </CharString>
          <CharString index="211">
            -118.860397339 75 -98.1396026611 139 145 36 115.854995728 114.145004272 vhcurveto
            0 62 5 74 2 22 2 37 25.4326019287 11.88671875 30.5673980713 6.11328125 5 1 3.580078125 21 -8.580078125 0 -32 0 -18 -1 -31 0 rrcurveto
            -72 hlineto
            -10.1474609375 0 0.1474609375 -23 9 -3 33 -8 13 -6 -1 -61 rrcurveto
            -157 vlineto
            -123 -40 -48 -84 -92 -60 76.0791015625 86.9208984375 vhcurveto
            0 35 -2 85 2 60 1 39 10 18 29 4 8 2 0 22 -8 0 -39 0 -3.0791015625 -2 -26.9208984375 0 -33.9394989014 0 -21.0605010986 2 -32 0 -9.78120422363 0 3.78120422363 -23 8 -2 rrcurveto
            23 -7 16 -3 0 -43 rrcurveto
            return
          </CharString>
          <CharString index="212">
            -44 -40 -37 -44 -44 40 -43 44 44 40 43 44 44 -40 37 -44 hvcurveto
            return
          </CharString>
          <CharString index="213">
            28 23 23 28 28 23 -23 -28 -28 -23 -23 -28 -28 -23 23 28 vhcurveto
            return
          </CharString>
          <CharString index="214">
            -11 31 50 0 0 19 0 8 -12 3 -17 0 -21 0 -28.4013671875 -2.1845703125 -31.5986328125 0.1845703125 -35.119140625 0.205078125 -24.880859375 2.794921875 -30 0 -17 0 -12 -3 0 -8 0 -9 11 -6 22 -7 rrcurveto
            34 -10 44 -29 17 -43 22 -53 13 -34 22 -55 9 -24 2 -6 -9 -22 -33 -81 -15 -39 -30 -73 -4 -11 -4 -3 -7 15 -67 151 -36 86 -61 156 rrcurveto
            0 0 -25 67 37 9 23 6 10 5 0 9 0 8 -12 3 -17 0 -21 0 -38.7724609375 -2.2099609375 -38.2275390625 0.2099609375 -32.7802734375 0.1796875 -21.2197265625 2.8203125 -30 0 -17 0 -12 -3 0 -8 rrcurveto
            0 -9 11 -6 22 -7 34 -10 21.693359375 -21.57421875 16.306640625 -34.42578125 rrcurveto
            216 -542 rlineto
            5 -13 6 -15 3 0 8 0 9 17 5 14 42 118 24 64 48 113 5 13 2 2 4 -9 47 -117 23.3212890625 -73.47265625 52.6787109375 -118.52734375 4 -9 8 -10 5 0 rrcurveto
            6 0 16 42 10 28 rrcurveto
            161 476 rlineto
            11 29 22 48 49 11 23 5 10 6 0 9 0 8 -12 3 -17 0 -23 0 -24.5595703125 -2.6240234375 -30.4404296875 -0.3759765625 -32.759765625 -0.404296875 -21.240234375 1.404296875 -30 0 -17 0 -12 -3 0 -8 rrcurveto
            0 -9 18.9970703125 -7.0107421875 14.0029296875 -3.9892578125 33.6611328125 -9.5888671875 0.779296875 -33.9150390625 -10.4404296875 -35.49609375 -45 -153 -44 -146 -33 -88 -4 -9 -4 -4 -3 7 -43 106 -21 58 -39 101 -3 8 4 17 5 13 rrcurveto
            16 43 26 61 11 19 17 28 8 10 43 10 23 5 10 6 0 9 0 8 -12 3 -17 0 -23 0 -11.1298828125 -2.802734375 -21.8701171875 -0.197265625 -21.462890625 -0.193359375 -3.537109375 2.193359375 -30 0 rrcurveto
            -17 -12 -3 -8 hvcurveto
            0 -19 44 0 -8 -31 -5 -17 -18.7626953125 -59.53125 -16.2373046875 -36.46875 -8.134765625 -18.2705078125 -2.1376953125 0.9130859375 -7.7275390625 17.357421875 -8.541015625 19.1845703125 -32.458984375 81.8154296875 -4 12 rrcurveto
            return
          </CharString>
          <CharString index="215">
            -65 -5 -58 0 -40 5 -7 1 -3.4111328125 12.154296875 4.4111328125 6.845703125 83.3930053711 129.429000854 47.6069946289 65.5709991455 96 128 16 22 10 15 16 20 3 3 -6 9 -5 0 -80 -2 -87.1470031738 -0.3564453125 -106.852996826 1.3564453125 rrcurveto
            -16.1074066162 0.205078125 -18.8925933838 0.794921875 -6 4 -7 6 -7 4 -3 0 -4 0 -7 -2 -5 -10 -9 -20 -10 -42 -5 -17 -3 -10 -6 -16 11 0 10 0 20 17 3 8 rrcurveto
            12 34 16 9 23 2 41 3 80 -2 43 -1 17 -1 -2.7001953125 -4.9091796875 -3.2998046875 -5.0908203125 -86.3419952393 -133.190994263 -53.6580047607 -70.8090057373 -94 -129 rrcurveto
            return
          </CharString>
          <CharString index="216">
            -15 -22 -18 -25 -4 -10 0 0 -7.41015625 -19 7.41015625 0 34 0 24 -1 35 1 rrcurveto
            return
          </CharString>
          <CharString index="217">
            74 2 100.458999634 -3 111.541000366 0 7 0 0 6 3 6 8 16 11 38 9 41 1 5 -2.0146484375 4.486328125 -3.9853515625 -0.486328125 -14.9530944824 -1.82420349121 -19.0469055176 -7.17579650879 -2 -5 rrcurveto
            -20 -46 -33 -12 -33 -2 rrcurveto
            return
          </CharString>
          <CharString index="218">
            85 55 -96 -95 hvcurveto
            0 -39 -3 -47 -16 -31 -20 -39 -38 -17 -45 0 -80 0 -58 95 0 99 0 48 7 49 26 33 rrcurveto
            19 24 32 16 36 0 rrcurveto
            return
          </CharString>
          <CharString index="219">
            0 -7 4.5 -5 5 -2.5 rrcurveto
            return
          </CharString>
          <CharString index="220">
            150 75 110 117 hvcurveto
            0 44 -16 41 -26 34 -3 4 -2 6 5 2.5 rrcurveto
            return
          </CharString>
          <CharString index="221">
            -676 vlineto
            -7.19140625 6 -6.80859375 6 9 39 3.0703125 20.9296875 vhcurveto
            684 vlineto
            7.451171875 -7 5.548828125 -7 -6 -40 -9.3662109375 -21.6337890625 vhcurveto
            return
          </CharString>
          <CharString index="222">
            -5.83203125 7.998046875 -10.16796875 10.001953125 -12 0 -8 0 -5.90234375 -9.4169921875 5.90234375 -11.5830078125 0 0 56.5 -113.760742188 21.5 -37.2392578125 10.5 -18.1865234375 10.5 -10.8134765625 7 0 7 0 10.5 10.8134765625 10.5 18.1865234375 25 43.30078125 53 107.69921875 0 0 rrcurveto
            5.90234375 11.5830078125 -5.90234375 9.4169921875 -8 0 -12 0 -11.619140625 -10.513671875 -5.380859375 -7.486328125 rrcurveto
            -69 -96 rlineto
            return
          </CharString>
          <CharString index="223">
            -65 -5 -58 0 -40 5 -7 1 -3.4111328125 12.154296875 4.4111328125 6.845703125 83.392578125 129.428710938 47.607421875 65.5712890625 96 128 16 22 10 15 16 20 3 3 -6 9 -5 0 -80 -2 -87.1474609375 -0.3564453125 -106.852539062 1.3564453125 rrcurveto
            -16.107421875 0.205078125 -18.892578125 0.794921875 -6 4 -7 6 -7 4 -3 0 -4 0 -7 -2 -5 -10 -9 -20 -10 -42 -5 -17 -3 -10 -6 -16 11 0 10 0 20 17 3 8 rrcurveto
            12 34 16 9 23 2 41 3 80 -2 43 -1 17 -1 -2.7001953125 -4.9091796875 -3.2998046875 -5.0908203125 -86.341796875 -133.19140625 -53.658203125 -70.80859375 -94 -129 rrcurveto
            return
          </CharString>
          <CharString index="224">
            74 2 100.458984375 -3 111.541015625 0 7 0 0 6 3 6 8 16 11 38 9 41 1 5 -2.0146484375 4.486328125 -3.9853515625 -0.486328125 -14.953125 -1.82421875 -19.046875 -7.17578125 -2 -5 rrcurveto
            -20 -46 -33 -12 -33 -2 rrcurveto
            return
          </CharString>
          <CharString index="225">
            -5.83203125 7.998046875 -10.16796875 10.001953125 -12 0 -8 0 -5.90234375 -9.4169921875 5.90234375 -11.5830078125 0 0 56.5 -113.760742188 21.5 -37.2392578125 10.5 -18.1865234375 10.5 -10.8134765625 7 0 7 0 10.5 10.8134765625 10.5 18.1865234375 25 43.30078125 53 107.69921875 0 0 rrcurveto
            5.90234375 11.5830078125 -5.90234375 9.4169921875 -8 0 -12 0 -11.619140625 -10.513671875 -5.380859375 -7.486328125 0 0 -40.3212890625 -55.0419921875 -28.6787109375 -40.9580078125 -28.6787109375 40.9580078125 -41.3212890625 55.0419921875 0 0 rrcurveto
            return
          </CharString>
          <CharString index="226">
            -5.83203125 7.998046875 -10.16796875 10.001953125 -12 0 -8 0 -5.9013671875 -9.4169921875 5.9013671875 -11.5830078125 0 0 56.5 -113.760742188 21.5 -37.2392578125 10.5 -18.1865234375 10.5 -10.8134765625 7 0 7 0 10.5 10.8134765625 10.5 18.1865234375 25 43.30078125 53 107.69921875 0 0 rrcurveto
            5.90234375 11.5830078125 -5.90234375 9.4169921875 -8 0 -12 0 -11.619140625 -10.513671875 -5.380859375 -7.486328125 0 0 -40.3212890625 -55.0419921875 -28.6787109375 -40.9580078125 -28.6787109375 40.9580078125 -41.3212890625 55.0419921875 0 0 rrcurveto
            return
          </CharString>
          <CharString index="227">
            80 111 58 35 0 19 0 14 -16.8232421875 13.7978515625 -17.1767578125 0.2021484375 -22.50390625 0.2646484375 -17.4111328125 -9.318359375 -11.0849609375 -17.9462890625 -21 -34 -72 -126 0 -15 0 -9 3.7802734375 -4 9.2197265625 0 9 0 12.609375 14.5205078125 5.390625 7.4794921875 rrcurveto
            return
          </CharString>
          <CharString index="228">
            5.390625 -7.4794921875 12.609375 -14.5205078125 9 0 9.2197265625 0 3.7802734375 4 0 9 0 15 -72 126 -21 34 -11.0849609375 17.9462890625 -17.4111328125 9.318359375 -22.50390625 -0.2646484375 -17.1767578125 -0.2021484375 -16.8232421875 -13.7978515625 0 -14 0 -19 58 -35 80 -111 rrcurveto
            return
          </CharString>
          <CharString index="229">
            -17.5283203125 -6.4716796875 -29 -9 -6 6.80859375 -6 7.19140625 hvcurveto
            215 hlineto
            18.5283203125 0 6.1962890625 18.5673828125 6.275390625 17.4326171875 2.5244140625 7.0107421875 -8.0732421875 6.9892578125 -7.451171875 0 rrcurveto
            return
          </CharString>
          <CharString index="230">
            0 -28 0 -47 1 -36 1 -32 -18 -11 -35 -6 -16 -3 -7 -3 0 -6 0 -5 8 -2 12 0 38 0 10.763671875 3.5595703125 31.236328125 0.4404296875 71 1 83.3173828125 -5 98.6826171875 0 rrcurveto
            7 0 2 6 1 5 6 21 3 20 3 26 1 5 -5.3203125 2.6103515625 -4.6796875 0.3896484375 -6.279296875 0.5234375 -5.720703125 -1.5234375 -3 -5 -6 -11 -10 -22 -13 -9 rrcurveto
            return
          </CharString>
          <CharString index="231">
            -9 -7 -41 -5 -4 0 rrcurveto
            -72 hlineto
            -32 0 -12 25 -1 27 -1 38 -1 20 0 40 -1 11 8 5 10 0 26 0 17 0 29 -1 11 -1 15 -5 7 -20 1 -5 7.8623046875 -10 9.1376953125 0 rrcurveto
            6 1 5 6 hvcurveto
            -2 34 -2 23 4 34 1 6 -6 4 -4 0 -4 0 -10 -8 -1 -3 -4 -8 -2 -3 -6 -5 -8 -7 -10 -1 -13 -1 -17 -1 -27 0 -29 0 rrcurveto
            -7 0 8 7 hvcurveto
            0 32 1 42 1 32 1 18 4 24 1 6 1 8 9 9 8 0 rrcurveto
            91 hlineto
            18 0 16 -4 13 -14 6 -7 5 -10 5 -15 1 -5 8 -2 5 0 4 0 6 2 0 4 -1 23 -3 25 -5 25 -1 5 -6 1 -5 0 rrcurveto
            return
          </CharString>
          <CharString index="232">
            -18 1 -130.833007812 -3.748046875 -95.1669921875 -0.251953125 -52.265625 -0.1376953125 -52.734375 2.1376953125 -29 0 -8.580078125 0 -3.419921875 -18 12 -4 rrcurveto
            62 -10 rlineto
            9 -1 7 -5 -4 -5 -52 -86 -66 -103 -74 -120 -20 -32 -28 -26 -24 -7 -15 -5 -9 -3 0 -6 0 -5 9 -2 12 0 21 0 24.7109375 3.638671875 29.2890625 0.361328125 rrcurveto
            33.9365234375 0.4189453125 38.0634765625 -2.4189453125 15 0 12 0 9 3 0 5 0 6 -8 3 -16 4 -26 6 -33 12 20 36 22 41 18 29 18 29 5 9 5.935546875 6 10.064453125 0 rrcurveto
            98 hlineto
            14 2 -5 -7 hvcurveto
            return
          </CharString>
          <CharString index="233">
            -105 -63 106 108 hvcurveto
            0 104 73.046875 78.515625 97.953125 1.484375 66 1 28 -20 9 -10 11 -14 7 -18 5 -14 3 -8 13.1513671875 -11 13.8486328125 0 6 0 5 7 0 7 0 18 -5.8994140625 31.599609375 -7.1005859375 28.400390625 rrcurveto
            -3 12 -9.2138671875 3.8349609375 -12.7861328125 4.1650390625 -30.7001953125 10 -32.2998046875 4 -51 0 rrcurveto
            -138.833007812 -131.166992188 -97 -135 -133.831054688 117.168945312 -100.168945312 133.831054688 hvcurveto
            26 0 33.5595703125 5.3798828125 36.4404296875 10.6201171875 32.3525390625 9.4287109375 16.9873046875 9.5751953125 29.66015625 15.99609375 5.6298828125 3.0361328125 4.3701171875 5.9638671875 0 4 0 3 -6.1796875 3.2275390625 -2.8203125 4.7724609375 rrcurveto
            return
          </CharString>
          <CharString index="234">
            -2.322265625 3.9296875 -1.6220703125 2.505859375 -0.0556640625 4.564453125 -0.337890625 27.712890625 0.337890625 15.287109375 3 28 2 18 17 9 20 6 5 2 2 14.1220703125 0 10.8779296875 0 4 -4.78125 2 -4.21875 0 -25 0 -22.5703125 -2 -30.4296875 0 rrcurveto
            -38 0 -25.4228515625 3 -40.5771484375 0 -3 0 0 -5 0 -3 2 -10 5 -16 7 0 14 0 40 -6 13 -15 rrcurveto
            return
          </CharString>
          <CharString index="235">
            -72 -76.1943359375 -106 -96.8056640625 vhcurveto
            -12 0 -16 4 -20 11 rrcurveto
            return
          </CharString>
          <CharString index="236">
            -16.8798828125 9.2841796875 -7.1201171875 16.7158203125 -18 0 -12.208984375 0 -2.552734375 -15.814453125 0.76171875 -12.185546875 0.9794921875 -15.6669921875 3.03515625 -13.2060546875 13.9853515625 -7.126953125 rrcurveto
            return
          </CharString>
          <CharString index="237">
            30.4619140625 -15.5244140625 44.5380859375 -1.4755859375 11 0 rrcurveto
            141.19921875 116.80078125 147 107 86 -62.7900390625 67 -82.2099609375 hvcurveto
            -5 0 -31 -8 10 19 46 85 27 45 52 80 13 20 7 11 10 18 2 4 -4 8 -5 0 -72 -2 -75.01171875 -0.9755859375 -93.98828125 0.9755859375 -18.8203125 0.1953125 -24.1796875 0.8046875 -5 4 rrcurveto
            -6 5 -6 4 -3 0 -4 0 -6 -1 0 -10 0 -25 -4 -53 -8 -19 -4 -8 -4 -14 9 0 10 0 12 19 5 6 20 26 31 29 20 1 rrcurveto
            38 2 39 -4 39 -1 15 -1 -3 -5 -3 -4 -46 -75 -51 -83 -27 -45 -12 -20 -12 -22 -3 -8 0 0 -6 -14 6 -3 8 -4 46 14 35 0 rrcurveto
            74.330078125 27.669921875 -87 -74 hvcurveto
            return
          </CharString>
          <CharString index="238">
            80 111 58 35 0 19 0 14 -16.8232421875 13.7978515625 -17.1767578125 0.2021484375 -22.50390625 0.265625 -17.4111328125 -9.318359375 -11.0849609375 -17.947265625 -21 -34 -72 -126 0 -15 0 -9 3.7802734375 -4 9.2197265625 0 9 0 12.609375 14.521484375 5.390625 7.478515625 rrcurveto
            return
          </CharString>
          <CharString index="239">
            12 22 36 41 70 0 70 0 36 -41 12 -22 5 -9 7 -12 10 0 rrcurveto
            10 0 11 13 64 -70 66 -80 -80 -70 -55 -75 -13 0 -11 10 hvcurveto
            10 0 7 12 5 9 rrcurveto
            return
          </CharString>
          <CharString index="240">
            13 22 2 42 60 0 60 0 2 -42 13 -22 5 -9 2 -12 10 0 rrcurveto
            10 5 11 13 64 -37 52 -70 -70 -37 -41 -75 -13 5 -11 10 hvcurveto
            10 0 2 12 5 9 rrcurveto
            return
          </CharString>
          <CharString index="241">
            0 9 3 6 7 -1 13 -1 22.0673828125 -4.150390625 19.9326171875 -9.849609375 14.1123046875 -6.97265625 7.8876953125 -8.02734375 8 -12 47 -77 8 -19 33 -41 rrcurveto
            return
          </CharString>
          <CharString index="242">
            6 4 3 16 -7 0 -33 1 -14 -9 -28 28 -63 61 -18 49 -43 65 -3 4 0 1 3 1 9 4 17 11 14 14 11 10 24 43 0 31 rrcurveto
            75 -73 43 -101 vhcurveto
            -40 0 -18 -6 -26 0 -35.509765625 0 -26.490234375 3 -29 0 -9.7578125 0 4.7578125 -23 6 -2 27 -7 2 -1 14 -15 7 -8 2 -23 0 -19 rrcurveto
            -267 vlineto
            0 -17 -7.322265625 -11.517578125 -12.677734375 -12.482421875 -14.0439453125 -13.828125 -10.9560546875 -4.171875 -20 -5 -6 -2 0 -23 6 0 19 0 49.2578125 6 43.7421875 0 37.5126953125 0 44.4873046875 -6 14 0 7 0 -1 27 -6 2 rrcurveto
            -44 11 -20 17 -1 28 -1 37 -1 31 -1 40 rrcurveto
            return
          </CharString>
          <CharString index="243">
            44 0 -1 -19 4 -17 2 -6 6 -16 8 -1 8 -1 3.1279296875 11.279296875 0.8720703125 8.720703125 3 30 4 45 10 19 3 6 -7 6 -3 0 -4 0 -12 -4 -8 -8 rrcurveto
            -11 -13 -19 0 -21 0 rrcurveto
            -271 hlineto
            -18 0 -21 4 -5 10 -4 7 -11 14 -4 0 -3 0 -8 0 -2 -15 -4 -29 0 -36 -13 -26 -4 -9 -5 -17 11 0 10 0 18 20 4 8 rrcurveto
            10 17 19 11 21 0 43 0 13 1 18 -3 11 -2 1 -16 0 -12 rrcurveto
            -293 vlineto
            0 -15 -2.2177734375 -10.212890625 -10.7822265625 -9.787109375 -16.5390625 -15.01171875 -14.4609375 -4.98828125 -21 -4 -11 -3 3 -22 8 0 37 0 23.904296875 7 39.095703125 0 41.041015625 0 24.958984375 -7 39 0 10 0 1 22 -11 3 rrcurveto
            -21 4 -14.4609375 4.98828125 -16.5390625 15.01171875 -10.7822265625 9.787109375 -2.2177734375 10.212890625 0 15 rrcurveto
            293 vlineto
            0 13 2 16 9 1 12 1 51 1 35 0 rrcurveto
            return
          </CharString>
          <CharString index="244">
            118 vlineto
            0 12 6 9 8 6 14 13 15 5 17 7 7 3 2 20 -9 0 -41 0 -16.94140625 -2 -37.05859375 0 -39.0078125 0 -17.9921875 2 -43 0 -6 0 -1 -20 7 -3 rrcurveto
            17 -7 12.228515625 -4.1982421875 14.771484375 -12.8017578125 9.50390625 -8.2373046875 6.49609375 -6.7626953125 0 -13 rrcurveto
            -295 vlineto
            0 -15 -1.6904296875 -11.703125 -11.3095703125 -10.296875 -17.041015625 -15.515625 -15.958984375 -4.484375 -21 -4 -12 -3 4 -21 8 0 38 0 27.224609375 5 41.775390625 0 39.828125 0 22.171875 -5 40 0 12 0 0 21 -12 3 rrcurveto
            -21 4 -15.2216796875 4.724609375 -16.7783203125 15.275390625 -11.408203125 10.38671875 -2.591796875 11.61328125 0 15 rrcurveto
            127 vlineto
            0 5 0.03125 1.9189453125 2.96875 0.0810546875 98.2431640625 2.697265625 55.4951171875 -0.7783203125 98.26171875 -1.9189453125 2.4970703125 -0.048828125 1.5029296875 0.048828125 0 -5 rrcurveto
            -129 vlineto
            0 -15 -1.6904296875 -11.703125 -11.3095703125 -10.296875 -17.041015625 -15.515625 -15.958984375 -4.484375 -21 -4 -12 -3 4 -21 8 0 38 0 24.7822265625 5 40.2177734375 0 41.775390625 0 25.224609375 -5 40 0 11 0 0 21 -11 3 rrcurveto
            -22 4 -14.8447265625 4.6103515625 -17.1552734375 15.3896484375 -11.4853515625 10.302734375 -2.5146484375 11.697265625 0 15 rrcurveto
            295 vlineto
            0 12 7 9 7 6 15 13 15 5 17 7 6 3 2 20 -8 0 -42 0 -18.9921875 -2 -39.0078125 0 -37.4482421875 0 -15.5517578125 2 -43 0 -6 0 0 -20 6 -3 rrcurveto
            17 -7 12.228515625 -4.1982421875 14.771484375 -12.8017578125 9.50390625 -8.2373046875 6.49609375 -6.7626953125 0 -13 rrcurveto
            -116 vlineto
            0 -6 -1.322265625 -1.8818359375 -3.677734375 -0.1181640625 -95.111328125 -3.0556640625 -53.7548828125 0.80859375 -95.1337890625 2.2470703125 -4.546875 0.107421875 -5.453125 0.892578125 0 5 rrcurveto
            return
          </CharString>
          <CharString index="245">
            40 -2 19 -49 12 -16 36 -50 21 -20 30 -54 3 -6 9 -9 0 -27 rrcurveto
            -111 vlineto
            0 -14 -2.14453125 -11.2958984375 -10.85546875 -9.7041015625 -16.9169921875 -15.1220703125 -15.0830078125 -4.8779296875 -21 -4 -12 -3 4 -24 8 0 37 0 28.2041015625 6 41.7958984375 0 38.6806640625 0 21.3193359375 -6 39 0 11 0 1 24 -12 3 rrcurveto
            -21 4 -14.4609375 4.98828125 -16.5390625 15.01171875 -10.7822265625 9.787109375 -2.2177734375 11.212890625 0 14 -1 30 2 48 -1 33 -1 26 2 -3 18 30 34 57 10 5 32 53 14 21 31 43 40 6 rrcurveto
            5 1 3.1904296875 20 -8.1904296875 0 -31 0 -12 -1 -31 0 rrcurveto
            -72 hlineto
            -9.392578125 0 -0.607421875 -23 8 -1 26 -4 22 -17 -12 -24 -17 -33 -26 -38 -23 -32 -24 -32 10 -2 -23 34 -27 40 -7 4 -36 62 -15 27 13 12 29 4 rrcurveto
            7 1 0 21 -7 0 -39 0 -13.451171875 -2 -33.548828125 0 -32.76953125 0 -19.23046875 2 -32 0 -9.4326171875 0 4.4326171875 -23 8 -1 rrcurveto
            return
          </CharString>
          <CharString index="246">
            -17 18 -17 18 19 18 17 17 18 -18 17 -19 vhcurveto
            -18 -18 -17 -18 hvcurveto
            return
          </CharString>
          <CharString index="247">
            -3 -6 13 -17 5 5 16 18 16 14 23 0 rrcurveto
            return
          </CharString>
          <CharString index="248">
            54 0 6 -16 48 0 49 0 19 65 14 27 3 6 -11 19 -5 -7 -17 -22 -14 -15 -26 0 rrcurveto
            return
          </CharString>
          <CharString index="249">
            -41 0 -16 16 -46 0 rrcurveto
            -45 0 -21 -48 -21 -39 rrcurveto
            return
          </CharString>
          <CharString index="250">
            -21 -3 -39 -9 -6 7 -6 7 hvcurveto
            355 hlineto
            22 0 3 25 6 21 2 7 -8 7 -7 0 rrcurveto
            return
          </CharString>
          <CharString index="251">
            31 43 54 69 42 48 10 11 12 12 -8 12 -12 16 -18 1 -20 -2 -22 -3 -18 -5 -8 -19 -44 -96 -4 2 -31 -91 -5 -12 7 -11 8 4 rrcurveto
            12 4 9 9 5 8 rrcurveto
            return
          </CharString>
          <CharString index="252">
            0 -22 5 -76 12 -48 6 -26 -3 -7 15 1 15 1 -3 4 6 25 12 48 5 78 0 22 rrcurveto
            28 -6 18 -29 -29 -6 -19 -27 vhcurveto
            return
          </CharString>
          <CharString index="253">
            32 -2 17 -26 -2 -22 -3 -30 -24 -32 -43 -9 -21 -4 3 -18 24 1 51 2 65 57 0 64 rrcurveto
            56 -51 41 -48 -29 -18 -20 -16 vhcurveto
            0 -22 18 -19 29 -1 rrcurveto
            return
          </CharString>
          <CharString index="254">
            -30.3349609375 -24.6650390625 -24.6650390625 -30.3349609375 -30.3349609375 24.6650390625 -24.6650390625 30.3349609375 30.3349609375 24.6650390625 24.6650390625 30.3349609375 30.3349609375 -24.6650390625 24.6650390625 -30.3349609375 hvcurveto
            return
          </CharString>
          <CharString index="255">
            -2 57 0 302 2 48 1 28 3 28 2 9 2 12 12 14 11 0 rrcurveto
            160 hlineto
            25 0 23 -6 19 -21 9 -10 7 -17 7 -22 2 -7 2 -3 7 0 6 0 9 3 -1 6 -3 35 -2 34 -1 41 0 7 -11 2 -7 0 rrcurveto
            -26 1 -187 -5 -136 -1 rrcurveto
            return
          </CharString>
          <CharString index="256">
            -37 0 -16 3 -42 0 -10 0 1 -23 9 -2 39 -11 5 2 19 -22 11 -12 1 -34 1 -28 5 -150 0 -108 -5 -150 -1 -25 -7 -22 -11 -11 rrcurveto
            -19 -19 -10 -4 -32 -8 -8 -2 0 -25 8 0 0 0 73 5 50 0 100 0 -19 -5 55 0 10 0 -5 26 -5 1 -14 3 -38 11 -13 14 rrcurveto
            -17 18 -10 2 -1 41 rrcurveto
            return
          </CharString>
          <CharString index="257">
            53 170 74 194 24 66 8 23 1 0 8 -24 16 -49 101 -335 8 -39 4 -20 5 -23 -13 -21 -13 -21 -18 -7 -22 -4 -10 -2 -2 -23 10 0 rrcurveto
            47 0 26 5 47 0 54 0 25 -5 51 0 16 0 -7 22 -9 3 -25 7 -20 8 -17 20 -26 30 -12 23 -12 36 -67 196 -35 111 -64 203 rrcurveto
            -3 9 -2 5 -5 0 -5 0 -8 -12 -15 -7 -11 -5 -9 -6 -12 -4 -2 -1 0 -16 -2 -11 -3 -12 -4 -9 -3 -9 -67 -185 -36 -93 -74 -174 rrcurveto
            -12 -28 -9 -17 -23 -21 -23 -21 -17 -6 -30 -11 -9 -3 -3 -22 12 0 38 0 23 5 40 0 50 0 22 -5 57 0 13 0 0 21 -13 3 rrcurveto
            -18 4 -26 9 -16 26 -6 10 -1 23 6 19 rrcurveto
            return
          </CharString>
          <CharString index="258">
            21 18 17 -4 24 10 9 4 3 18 -12 0 rrcurveto
            return
          </CharString>
          <CharString index="259">
            -38 10 -39 31 -30 44 rrcurveto
            -155 223 rlineto
            -8 12 6 10 16 18 rrcurveto
            115 136 rlineto
            44 52 48 53 38 10 23 6 10 5 0 9 0 8 -12 3 -17 0 -23 0 -32 -5 -35 -1 -41 -1 -34 2 -30 0 -17 0 -12 -3 0 -8 rrcurveto
            0 -9 19 -7 14 -4 28 -8 11 -48 -20 -26 rrcurveto
            -107 -141 rlineto
            -13 -17 -3 0 -14 20 rrcurveto
            -91 128 rlineto
            -21 30 2 54 37 9 23 6 10 5 0 9 0 8 -12 3 -17 0 -21 0 -52 -3 -46 1 -48 1 -45 4 -30 0 -17 0 -12 -3 0 -8 rrcurveto
            0 -9 11 -6 22 -7 34 -10 48 -36 34 -47 rrcurveto
            145 -204 rlineto
            7 -10 -9 -15 -14 -20 rrcurveto
            -125 -156 rlineto
            -42 -52 -67 -34 -34 -10 -22 -7 -11 -6 0 -9 0 -8 12 -3 17 0 30 0 36 5 42 1 42 1 44 -3 21 0 17 0 12 3 0 8 rrcurveto
            0 9 -10 5 -23 6 -37 9 -21.4873046875 25.0166015625 22.4873046875 28.9833984375 rrcurveto
            135 174 rlineto
            7 9 5 0 10 -14 rrcurveto
            104 -151 rlineto
            31 -45 -35 -27 -28 -8 -14 -4 -19 -7 0 -9 0 -8 12 -3 17 0 30 0 52 2 53 -1 43 -1 45 -5 23 0 17 0 12 3 0 8 rrcurveto
            0 9 -10 5 -23 6 rrcurveto
            return
          </CharString>
          <CharString index="260">
            -150 0 -73 -198 -4 0 -4 0 -41 198 -150 0 -63.3486328125 0 -61.2431640625 -59.0205078125 -13.408203125 -15.9794921875 -12.85546875 -15.3212890625 0.85546875 -6.6787109375 0 0 -0.322265625 -4.1884765625 7.2919921875 -2.720703125 3.0302734375 2.9091796875 25 24 46 27 49 0 rrcurveto
            81 0 41.2958984375 -71.884765625 27.7041015625 -76.115234375 21.8896484375 -60.140625 3.1103515625 -64.859375 0 -40 rrcurveto
            -179 vlineto
            0 -48 -28 -27 -50 -9 -23 -4 -10 -5 0 -9 0 -8 12 -3 17 0 54 0 24.0419921875 5 49.9580078125 0 45.671875 0 17.328125 -5 54 0 17 0 12 3 0 8 rrcurveto
            0 9 -10 5 -23 4 -50 9 -29 30 0 45 rrcurveto
            180 vlineto
            0 38 3.5830078125 81.89453125 16.4169921875 45.10546875 30.439453125 83.6328125 60.560546875 63.3671875 89 0 41 0 42 -11 31 -22 2.91015625 -2.0654296875 6.08984375 4.0654296875 0 4 0 4 -7.46484375 8.46484375 -3.53515625 3.53515625 -27 27 -37 34 -61 0 rrcurveto
            return
          </CharString>
          <CharString index="261">
            21 18 8 26 52 71 -15 -77 vhcurveto
            0 -71 -20 -20 -32 -24 -17 -13 -27 -8 -28 4 -9 1 -10 -13 21 -4 33 -6 83 7 39 30 30 23 19 30 0 57 0 92 -106 36 -99 0 rrcurveto
            -19 0 -51 -5 -26 0 -29.2607421875 0 -16.7392578125 2 -29 0 -10.1474609375 0 5.1474609375 -24 6 -2 26 -8 3 -1 13 -14 8 -8 1 -23 0 -20 rrcurveto
            -265 vlineto
            0 -17 -6.5380859375 -11.5380859375 -12.4619140625 -12.4619140625 -13.9365234375 -13.9365234375 -11.0634765625 -6.0634765625 -20 -3 -6 -1 0 -23 6 0 19 0 44.373046875 6 40.626953125 0 38.6806640625 0 46.3193359375 -6 14 0 7 0 0 26 -7 2 rrcurveto
            -44 11 -20 17 0 28 rrcurveto
            return
          </CharString>
          <CharString index="262">
            -39 0 -10.234375 24.388671875 18.234375 23.611328125 rrcurveto
            78 101 rlineto
            9 13 6 6 9 -13 rrcurveto
            64 -95 rlineto
            20.7861328125 -30.8544921875 -16.7861328125 -26.1455078125 -52 -3 -9 -1 0 -24 9 0 42 0 31.7841796875 4 47.2158203125 0 35.134765625 0 13.865234375 -4 41 0 10 0 -1 24 -9 1 -33 5 -27.390625 22.0732421875 -22.609375 32.9267578125 rrcurveto
            -103 150 rlineto
            -9 13 2.029296875 0.9765625 9.970703125 12.0234375 rrcurveto
            102 123 rlineto
            22.302734375 26.89453125 15.697265625 14.10546875 37 8 9 2 1 25 -10 -2 -35 -8 -20.94921875 -1 -36.05078125 0 -29 0 -6.349609375 3 -22.650390625 0 -8 0 -2 -24 10 -1 28 -3 9.169921875 -35.625 -15.169921875 -18.375 rrcurveto
            -71 -86 rlineto
            -10.4423828125 -12.6484375 2.6640625 1.8037109375 -9.2216796875 12.8447265625 rrcurveto
            -56 78 rlineto
            -15.2509765625 21.2421875 -17.7490234375 40.7578125 53 2 10 0 0 24 -10 0 -22 0 -39.587890625 -4.833984375 -39.412109375 0.833984375 -34.4541015625 0.728515625 -27.5458984375 5.271484375 -26 2 -9 1 -1 -25 10 -1 47 -3 6.361328125 -10.837890625 18.638671875 -26.162109375 rrcurveto
            109 -153 rlineto
            9.1748046875 -12.8779296875 -2.1748046875 -9.1220703125 -14 -17 rrcurveto
            -84 -105 rlineto
            -30.2041015625 -37.755859375 -21.7958984375 -22.244140625 -51 -9 -10 -2 1 -23 9 0 41 0 9.5712890625 5 32.4287109375 0 30.8720703125 0 7.1279296875 -5 41 0 10 0 0 25 -10 0 rrcurveto
            return
          </CharString>
          <CharString index="263">
            50 -9 -21 -20 -16 -15 0 0 -170 -176 -44 -38 -8 -7 -7 -3 -7 0 -5 0 0 7 0 5 rrcurveto
            187 vlineto
            0 39 4 23 50 9 23 4 10 7 0 9 0 8 -12 3 -17 0 -54 0 -2 -3 -36 0 -46 0 -17 3 -54 0 -17 0 -12 -3 0 -8 rrcurveto
            0 -9 10 -7 23 -4 50 -9 17 -16 0 -46 rrcurveto
            -450 vlineto
            0 -50 -17 -18 -50 -9 -23 -4 -10 -5 0 -9 0 -8 12 -3 17 0 54 0 23 7 49 0 38 0 6 -7 54 0 17 0 12 3 0 8 rrcurveto
            0 9 -10 5 -23 4 -50 9 -12 34 -2 43 -3 80 -2 49 0 63 0 7 -1 14 5 0 5 0 10 -9 8 -8 84 -90 79 -89 49 -55 rrcurveto
            17 -19 9 -17 -39 -9 -19 -4 -8 -4 0 -9 0 -8 12 -3 17 0 54 0 6 2 38 -1 48 -1 20 -4 54 0 17 0 12 3 0 8 rrcurveto
            0 9 -10 4 -23 5 -57 12 -10 11 -43 48 -100 110 -37 39 -101 112 -7 7 -3 6 5 5 69 76 47 47 72 61 46 39 56 18 50 9 rrcurveto
            23 4 10 7 0 9 0 8 -12 3 -17 0 -54 0 -2 -4 -36 -1 -46 -1 -17 2 -54 0 -17 0 -12 -3 0 -8 0 -9 8 -7 23 -4 rrcurveto
            return
          </CharString>
          <CharString index="264">
            -370.576171875 -373.3984375 rlineto
            -1.3916015625 116.185546875 0.4931640625 197.850585938 2.3779296875 63.4091796875 2.5283203125 42.9833984375 49.326171875 16.2060546875 33.1455078125 13.810546875 9 4 3 18 -12 0 -58 0 -19 -3 -49 0 -50 0 -19 3 -60 0 -9 0 -1 -18 10 -4 rrcurveto
            10.4609375 -4.359375 74.5390625 -26.6767578125 0 -41.9638671875 rrcurveto
            -448 vlineto
            0 -20.9365234375 -0.0068359375 -47.0654296875 -94.9931640625 -18.998046875 -17 -3 5 -22 12 0 54 0 31 5 54 0 53 0 26 -5 57 0 16 0 -0.0185546875 21.90625 -15.9814453125 3.09375 -31 6 -21 7 -24 22 rrcurveto
            -16.6318359375 15.5927734375 -1.7763671875 14.861328125 -0.9609375 32.220703125 rrcurveto
            370.284179688 373.102539062 rlineto
            1.0146484375 -117.087890625 -0.3046875 -204.94921875 -1.625 -61.740234375 -0.845703125 -18.603515625 2.82421875 -49.0009765625 -96.978515625 -19.3955078125 -17 -3 5 -22 12 0 54 0 27 5 52 0 55 0 28 -5 57 0 16 0 -0.0185546875 21.90625 -15.9814453125 3.09375 rrcurveto
            -96.6171875 18.7001953125 1.6171875 50.2705078125 0 18.029296875 rrcurveto
            448 vlineto
            0 43.3408203125 61.6826171875 19.943359375 23.3173828125 9.7158203125 9 4 3 18 -12 0 -58 0 -21 -3 -51 0 -48 0 -15 3 -60 0 -9 0 -1 -18 10 -4 42.87109375 -17.86328125 41.330078125 -19.4697265625 0.8955078125 -39.7138671875 rrcurveto
            return
          </CharString>
          <CharString index="265">
            -21 -18 -20 3 -24 -10 -9 -4 -3 -18 12 0 rrcurveto
            return
          </CharString>
          <CharString index="266">
            -21 -18 -5 3 -24 -10 -9 -4 -3 -18 12 0 rrcurveto
            return
          </CharString>
          <CharString index="267">
            -3 -131 -75 -21 -78 0 -25 0 -24 18 -11 11 -12 12 -4 22 -1 18 -2 53 -3 87 3 59 1 12 1 7 9 6 9 6 19 5 18 0 rrcurveto
            50 0 36 -15 18 -10 27 -15 48.7630004883 -47.0209960938 -1.76300048828 -76.9790039062 rrcurveto
            return
          </CharString>
          <CharString index="268">
            -51.5039978027 0 -38.4960021973 4 -42 0 -8.41889953613 0 5.41889953613 -19 8 -2 39 -11 9.25 0.192001342773 16.75 -23.1920013428 17.1560058594 -23.7550048828 -4.15600585938 -22.2449951172 0 -28 rrcurveto
            -408 vlineto
            0 -25 -9.74000549316 -16.7402038574 -18.2599945068 -18.2597961426 -20.4736022949 -20.4736022949 -23.4483032227 5.20700073242 -22.0780944824 -18.7333984375 -6.54200744629 -5.55079650879 -1.45799255371 -16.4492034912 8 0 28 0 47 6 42 0 44 0 56 -8 20 0 66 0 54 10 40 24 rrcurveto
            36 21 64 33 0 110 0 116 -78 66 -121 0 -51 0 -32 -9 -24 -8 -16 -5 -2 19 -1 35 -3 80 2.76300048828 13.1519927979 6.23699951172 74.8480072021 2 24 7.7200012207 12.0939941406 9.2799987793 5.90600585938 rrcurveto
            11 7 11 0 35 5 8.16299438477 1.16600036621 5.25601196289 19.8339996338 -8.41900634766 0 -42 0 -28.733001709 -4 -45.266998291 0 rrcurveto
            return
          </CharString>
          <CharString index="269">
            261 vlineto
            0 11 4 24 17 3 7 1 58 -2 12 0 21 0 23 -31 5 -22 6 -26 5 -12 8 0 12 0 1 23 0 18 0 20 1 46 3 18 rrcurveto
            1 6 -8 5 -1 0 -12 2 -24 -7 -39 -1 -68 -2 -83 3 -3 0 rrcurveto
            return
          </CharString>
          <CharString index="270">
            -23 0 -10 3 -25 0 -4 0 -18 -5 0 -8 0 -10 11 -6 6 -1 33 -7 13 -27 0 -39 rrcurveto
            -238 vlineto
            0 -27 -20 -5 -20 -6 -11 -4 -12 -4 0 -10 0 -10 18 1 5 0 39 0 4 5 35 0 35 0 4 -5 39 0 5 0 18 -1 0 10 rrcurveto
            0 10 -12 4 -11 4 rrcurveto
            -20 6 -25 5 0 27 rrcurveto
            return
          </CharString>
          <CharString index="271">
            0 30 16 14 20 6 11 4 12 4 0 10 0 10 -18 -1 -5 0 -39 0 2 -5 -35 0 -35 0 4 5 -39 0 -5 0 -18 1 0 -10 rrcurveto
            0 -10 12 -4 11 -4 20 -6 15 -13 1 -29 2 -50 -1 -161 0 -60 0 -28 -23 -1 -20 -6 -11 -4 -12 -4 0 -10 0 -10 18 1 5 0 rrcurveto
            39 0 4 5 35 0 35 0 4 -5 39 0 5 0 18 -1 0 10 0 10 -12 4 -11 4 rrcurveto
            -20 6 -23 4 0 28 rrcurveto
            return
          </CharString>
          <CharString index="272">
            0 -27 -16 -5 -20 -6 -11 -4 -12 -4 0 -10 0 -10 18 1 5 0 rrcurveto
            return
          </CharString>
          <CharString index="273">
            5.3896484375 -7.478515625 12.6103515625 -14.521484375 9 0 9.21875 0 3.78125 4 0 9 0 15 -72 126 -21 34 -11.0859375 17.947265625 -17.41015625 9.318359375 -22.50390625 -0.265625 -17.177734375 -0.2021484375 -16.822265625 -13.7978515625 0 -14 0 -19 58 -35 80 -111 rrcurveto
            return
          </CharString>
          <CharString index="274">
            80 111 58 35 0 19 0 14 -16.8232421875 13.7978515625 -17.1767578125 0.2021484375 -22.50390625 0.2646484375 -17.4111328125 -9.3173828125 -11.0849609375 -17.947265625 -21 -34 -72 -126 0 -15 0 -9 3.779296875 -4 9.220703125 0 9 0 12.6083984375 14.521484375 5.3916015625 7.478515625 rrcurveto
            return
          </CharString>
          <CharString index="275">
            20 -6 15.44921875 -18.8759765625 9.55078125 -24.1240234375 rrcurveto
            116 -293 rlineto
            5 -14 1 -25 -5 -13 -29 -77 -26 -77 -21 -36 -13 -22 -17 34 -13 0 rrcurveto
            -19.0263671875 -23.9736328125 -23.5751953125 -25.4248046875 -22 19.5576171875 -20 23.4423828125 hvcurveto
            29 0 19 14 12 27 41 96 49 126 4 9 rrcurveto
            136 324 rlineto
            13.4755859375 32.103515625 25.5244140625 28.896484375 20 6 11 4 12 4 0 10 0 10 -18 -1 -5 0 -19 0 -2 -5 -35 0 -35 0 -18 5 -15 0 -5 0 -18 1 0 -10 rrcurveto
            0 -10 12 -4 11 -4 20 -6 9.66796875 -46.0009765625 -11.66796875 -30.9990234375 rrcurveto
            -67 -178 rlineto
            -5 -14 -4 -1 -6 14 rrcurveto
            -79 196 rlineto
            -9.9736328125 24.74609375 7.9736328125 35.25390625 20 6 11 4 12 4 0 10 0 10 -18 -1 -5 0 -39 0 1 -5 -35 0 -35 0 4 5 -39 0 -5 0 -18 1 0 -10 rrcurveto
            0 -10 12 -4 11 -4 rrcurveto
            return
          </CharString>
          <CharString index="276">
            45 27 -52 -52 -48 -17 -44 -44 -44 -28 50 55 46 16 45 45 hvcurveto
            return
          </CharString>
          <CharString index="277">
            10 0 16 53 5 13 48 113 40 82 42 98 10 24 7.416015625 23.400390625 21.583984375 22.599609375 13.40625 14.037109375 13.763671875 0.2548828125 18.830078125 4.7080078125 4 1 3.41015625 18 -7.41015625 0 -30 0 -17 -2 -30 0 rrcurveto
            -81 hlineto
            -8.19921875 0 -1.80078125 -19 9 -2 22 -5 12.140625 -6.412109375 6.859375 -18.587890625 7.4150390625 -20.09375 -11.4150390625 -19.90625 -6 -14 -37 -89 -14.4423828125 -39.1865234375 -35.5576171875 -80.8134765625 -11 -25 1 1 -11 24 -30 66 -34 70 -17 65 rrcurveto
            -5 22 -9 26 0 19 0 19 14 6 27 3 8 2 -1 18 -7 0 -37 0 -35.5830078125 -2 -46.4169921875 0 -27.3115234375 0 -11.6884765625 2 -31 0 -8.2275390625 0 3.2275390625 -18 7 -3 rrcurveto
            22 -6 18 -8 12 -13 10 -11 13 -27 7 -17 49 -120 19.2529296875 -51.6845703125 44.7470703125 -109.315429688 13.3671875 -32.654296875 16.6328125 -50.345703125 6 0 rrcurveto
            return
          </CharString>
          <CharString index="278">
            10 10 12 29 0 31 0 75 -62 29 -100 0 -41 0 -22 -5 -27 0 -32.76953125 0 -22.23046875 2 -29 0 -9.7578125 0 4.7578125 -23 6 -2 27 -7 2 -4 14 -15 rrcurveto
            7 -8 2 -20 0 -19 rrcurveto
            -273 vlineto
            0 -18 -6.359375 -12.0380859375 -13.640625 -11.9619140625 -13.9091796875 -12.197265625 -7.0908203125 -0.802734375 -24 -2 -6 -1 0 -23 6 0 19 0 45 5 29 0 rrcurveto
            30 0 48 -6 14 0 rrcurveto
            return
          </CharString>
          <CharString index="279">
            11 -2 15 -4 6 -21 2 -4 5.79296875 -15 10.20703125 0 6 0 1 6 -1 6 -2 35 -1 31 3 35 1 6 -6 5 -4 0 -3 0 -9 -10 -2 -3 rrcurveto
            -3 -9 -3 -3 -6 -6 -8 -7 -11 -3 -11 0 rrcurveto
            -87 hlineto
            -6 -1 8 7 hvcurveto
            0 34 1 4 1 33 1 19 4 28 1 6 rrcurveto
            return
          </CharString>
          <CharString index="280">
            1 9 8 9 8 0 rrcurveto
            106 hlineto
            17 0 13 -4 12 -14 7 -7 8 -16 5 -15 2 -5 1 -2 5 0 4 0 7 2 0 4 0 24 -6 42 -5 26 -1 5 -7 1 -4 0 rrcurveto
            -18 1 -125.342773438 -3.7099609375 -91.6572265625 -0.2900390625 rrcurveto
            return
          </CharString>
          <CharString index="281">
            0 0 41.3212890625 55.0419921875 28.6787109375 40.9580078125 28.6796875 -40.9580078125 40.3203125 -55.0419921875 0 0 5.380859375 -7.486328125 11.619140625 -10.513671875 12 0 8 0 5.90234375 9.4169921875 -5.90234375 11.5830078125 0 0 -53 107.69921875 -25 43.30078125 -10.5 18.1865234375 -10.5 10.8134765625 -7 0 rrcurveto
            -7 0 -10.5 -10.8134765625 -10.5 -18.1865234375 -21.5 -37.2392578125 -56.5 -113.760742188 0 0 -5.9013671875 -11.5830078125 5.9013671875 -9.4169921875 8 0 12 0 10.16796875 10.001953125 5.83203125 7.998046875 rrcurveto
            return
          </CharString>
          <CharString index="282">
            -3.849609375 -5.4970703125 19.849609375 -17.5029296875 5 5 16 18 24 14 15 0 rrcurveto
            return
          </CharString>
          <CharString index="283">
            -25 0 -107 8 -25 0 rrcurveto
            -15 0 -46.5966796875 -40.7197265625 -25.4033203125 -36.2802734375 rrcurveto
            return
          </CharString>
          <CharString index="284">
            -5.7353515625 -8.1923828125 15.78515625 -18.7578125 4.9501953125 4.9501953125 20.505859375 20.505859375 19.494140625 15.494140625 15 0 rrcurveto
            return
          </CharString>
          <CharString index="285">
            80 111 58 35 0 19 0 14 -16.8232421875 13.798828125 -17.1767578125 0.201171875 -22.50390625 0.265625 -17.4111328125 -9.318359375 -11.0849609375 -17.947265625 -21 -34 -72 -126 0 -15 0 -9 3.7802734375 -4 9.2197265625 0 9 0 12.609375 14.521484375 5.390625 7.478515625 rrcurveto
            return
          </CharString>
          <CharString index="286">
            9 20 143 304 0 0 6 13 3 3 1 -16 4 -94 6.08984375 -58.47265625 -2.08984375 -97.52734375 -0.27734375 -12.908203125 -4.77734375 -7.78125 -8.9453125 -9.310546875 -11.0283203125 -11.478515625 1.0283203125 -2.521484375 -25 -7 -6 -2 0 -23 9 0 rrcurveto
            16 0 51.681640625 4 43.318359375 0 34 0 27 -4 21 0 10 0 -4 23 -6 2 -21 4 -9.509765625 6.2578125 -15.490234375 12.7421875 -9.712890625 7.990234375 -5.2275390625 7.4775390625 -1.0595703125 12.5322265625 -10.359375 122.517578125 -1.931640625 69.5302734375 -0.708984375 122.952148438 rrcurveto
            -0.076171875 13.1962890625 0.076171875 10.8037109375 11 8 18 12 1 -5 23 7 6 2 7 21 -7 -1 -32 -4 -22.724609375 -5 -35.275390625 0 rrcurveto
            -46 hlineto
            -5 0 -12 -35 -10 -23 -47 -116 -18 -53 -57 -116 -6 -13 -5 2 -5 13 -54 131 -33 85 -51 128 -3 7 -77 -14 -74 12 -8 2 1 -24 8 -2 rrcurveto
            17 -4 27 -6 14 -16 12 -14 -1 -6 0 -18 0 -58 -14 -121 -17 -125 -1 -9 -2.873046875 -10.275390625 -9.126953125 -6.724609375 -14.7001953125 -10.8310546875 -7.2998046875 -0.1689453125 -22 -5 -7 -1 -1 -23 8 0 rrcurveto
            24 0 25.37109375 4 31.62890625 0 30.0703125 0 19.9296875 -4 27 0 12 0 -6 23 -6 1 -22 5 -3.6298828125 2.4306640625 -11.3701171875 11.5693359375 -11.9814453125 12.19140625 -8.0185546875 8.80859375 0 18 5 94 8.2958984375 57.9609375 9.7041015625 97.0390625 rrcurveto
            1 10 4 -1 4 -9 56.341796875 -126.76953125 34.658203125 -97.23046875 49 -103 9 -19 17 -8 11 25 rrcurveto
            return
          </CharString>
          <CharString index="287">
            15.0390625 36.4111328125 39.9609375 54.5888671875 49 11 23 5 10 6 0 9 0 8 -12 3 -17 0 -23 0 -35.54296875 -2.6484375 -37.45703125 -0.3515625 -45.6298828125 -0.427734375 -41.3701171875 1.427734375 -30 0 -17 0 -12 -3 0 -8 rrcurveto
            0 -9 19 -7 14 -4 28 -8 37.1484375 -51.060546875 -16.1484375 -39.939453125 rrcurveto
            -131 -324 rlineto
            -15 -37 -6 -1 -15 38 rrcurveto
            -116 307 rlineto
            -23 61 29 47 37 9 23 6 10 5 0 9 0 8 -12 3 -17 0 -21 0 -44.2626953125 -2.1865234375 -41.7373046875 0.1865234375 -45.64453125 0.2041015625 -41.35546875 2.7958984375 -30 0 -17 0 -12 -3 0 -8 rrcurveto
            0 -9 11 -6 22 -7 34 -10 27.8271484375 -42.009765625 17.1728515625 -45.990234375 rrcurveto
            174 -466 rlineto
            10.515625 -28.1611328125 14.484375 -42.8388671875 5 0 7 0 15.677734375 45.166015625 12.322265625 29.833984375 rrcurveto
            return
          </CharString>
          <CharString index="288">
            -5.7353515625 -8.1923828125 15.7861328125 -18.7578125 4.94921875 4.9501953125 20.5068359375 20.505859375 19.4931640625 15.494140625 15 0 rrcurveto
            return
          </CharString>
          <CharString index="289">
            7 20 9 19 15 10 17 10 12 1 13 3 9 1 -5 22 -4 0 -29 0 -13.6748046875 -3 -27.3251953125 0 -30.052734375 0 -17.947265625 3 -29 0 -8.9697265625 0 0.1220703125 -21.525390625 8.84765625 -1.474609375 rrcurveto
            18 -3 18 -9 0 -8 0 -9 0.158203125 -15.2861328125 -4.158203125 -14.7138671875 -31.40234375 -111.115234375 -19.3125 -62.2666015625 -36.28515625 -109.618164062 -1.095703125 -3.3115234375 -5.40625 -3.8388671875 -1.498046875 3.150390625 -33.9931640625 71.501953125 -18.6396484375 40.8466796875 -26.3671875 74.6513671875 -4.03515625 11.423828125 -0.96484375 1.576171875 7 18 rrcurveto
            11 30 16 36 16 27 19 30 14 0 31 6 8 2 2 20 -10 0 -21 0 -19.84375 -3 -26.15625 0 -19.9248046875 0 -9.0751953125 3 -22 0 -6 0 -1 -21 7 -2 rrcurveto
            11 -2 7 -10 0 -8 0 -13 -13 -31 -11 -27 -7 -20 3 -4 -8 19 -10 26 -15 41 0 9 0 8 6 10 11 2 8 2 1 21 -9 0 rrcurveto
            -19 0 -27.3369140625 -3 -29.6630859375 0 -27.71484375 0 -20.28515625 3 -23 0 -6 0 -3 -23 9 0 19 -2 11.4716796875 -7.5771484375 15.5283203125 -12.4228515625 15 -12 5.0048828125 -10.068359375 7.9951171875 -16.931640625 18.7119140625 -39.625 5.2880859375 -26.375 16 -39 rrcurveto
            8 -20 1 4 -8 -21 -22 -56 -11 -32 -21 -53 -2 -4 -7.2734375 1.0537109375 -1.7265625 3.9462890625 -48.3310546875 110.471679688 -22.5458984375 64.3095703125 -44.123046875 112.21875 0 0 -12 27 0 9 0 8 18 11 26 1 rrcurveto
            10 1 1 22 -10 0 -29 0 -27.1005859375 -3 -35.8994140625 0 -32.3916015625 0 -19.6083984375 3 -31 0 -10 0 1 -21 9 -2 16 -5 9.2138671875 -5.6083984375 12.7861328125 -11.3916015625 9.291015625 -8.27734375 2.896484375 -7.2470703125 4.8125 -11.4755859375 rrcurveto
            152 -376 rlineto
            3 -9 21 -14 2 0 6 0 21 15 4 10 29 82 17 23 30 81 6 16 2 -10 3 -8 34 -85 9.3876953125 -33.083984375 35.6123046875 -71.916015625 5.1923828125 -10.4853515625 15.8076171875 -7.5146484375 3 0 rrcurveto
            5 0 29 34 7 20 45 127 20 74 45 129 rrcurveto
            return
          </CharString>
          <CharString index="290">
            -8.5458984375 -5.126953125 -4.4541015625 -8.873046875 0 -10 0 -13.33984375 5.822265625 -7.171875 9.177734375 -10.48828125 7 -8 17.5322265625 -1.1259765625 4.4677734375 12.1259765625 14 38 8 13 22 0 15.53125 0 9.46875 -15.46875 0 -15.53125 0 -16 -4 -11 -15 -14 rrcurveto
            -10.9658203125 -10.2353515625 -12.0341796875 -12.76953125 0 -17.9951171875 0 -14 21 -18 13 0 10 0 13 9 -9 6 -12 8 -4.9580078125 8.92578125 17.9580078125 10.07421875 41 23 11 27 0 17 0 39.2216796875 -38.7783203125 20.7783203125 -39.2216796875 0 rrcurveto
            -38 0 -23 -11 -20 -12 rrcurveto
            return
          </CharString>
          <CharString index="291">
            -3.849609375 -5.49609375 19.849609375 -17.50390625 5 5 16 18 24 14 15 0 rrcurveto
            return
          </CharString>
          <CharString index="292">
            25 0 112 -8 25 0 15 0 49.5576171875 57.0908203125 17.4423828125 24.9091796875 3.8486328125 5.4970703125 -17.8486328125 19.5029296875 -5 -7 -17 -22 -25 -15 -15 0 rrcurveto
            return
          </CharString>
          <CharString index="293">
            -5.7353515625 -8.19140625 15.78515625 -18.7578125 4.9501953125 4.94921875 20.505859375 20.5068359375 19.494140625 15.4931640625 15 0 rrcurveto
            return
          </CharString>
          <CharString index="294">
            25 0 67 -13 20 0 20 0 46.5576171875 59.0908203125 17.4423828125 24.9091796875 3.8486328125 5.49609375 -16.58984375 19.3095703125 -5.2587890625 -6.8056640625 -26.9072265625 -34.8125 -12.0927734375 -1.1875 -15 0 rrcurveto
            return
          </CharString>
          <CharString index="295">
            0 0 41.3212890625 55.0419921875 28.6787109375 40.9580078125 28.6787109375 -40.9580078125 40.3212890625 -55.0419921875 0 0 5.380859375 -7.4853515625 11.619140625 -10.5146484375 12 0 8 0 5.90234375 9.4169921875 -5.90234375 11.5830078125 0 0 -53 107.69921875 -25 43.30078125 -10.5 18.1875 -10.5 10.8125 -7 0 rrcurveto
            -7 0 -10.5 -10.8125 -10.5 -18.1875 -21.5 -37.23828125 -56.5 -113.76171875 0 0 -5.90234375 -11.5830078125 5.90234375 -9.4169921875 8 0 12 0 10.16796875 10.001953125 5.83203125 7.998046875 rrcurveto
            return
          </CharString>
          <CharString index="296">
            27 0 16.2412109375 5 27.7587890625 0 38.6591796875 0 20.3408203125 -5 40 0 9 0 0 22 -9 2 -13 3 -18 10 -11 17 -4 7 0.5068359375 13.3681640625 2.4931640625 12.6318359375 3.46484375 17.5546875 0.53515625 -5.5546875 12 31 rrcurveto
            4 9 1.3818359375 3 6.6181640625 0 rrcurveto
            142 hlineto
            14 0 3 -1 2 -6 10 -27 -1 9 5 -25 3 -13 3.4130859375 -14.3798828125 -8.4130859375 -13.6201171875 -9.8896484375 -16.0126953125 -14.1103515625 -7.9873046875 -16 -3 -6 -1 -4.3681640625 -23 9.3681640625 0 33 0 30.3935546875 5 40.6064453125 0 rrcurveto
            38 0 20.5087890625 -5 37.4912109375 0 12 0 -5 22 -7 2 -17 4 -16 12 -12 13 -18 19 -9 15 -8 23 rrcurveto
            -125 347 rlineto
            -2 6 -1 3 -4 0 -3 0 -3 -5 -8 -9 -6 -7 -30 -22 -9 -2 -1 -1 -1.4404296875 -18.630859375 -2.5595703125 -12.369140625 -2.1279296875 -10.283203125 -2.8720703125 -9.716796875 -2 -6 -48 -117 -19.2021484375 -48.0927734375 -48.7978515625 -102.907226562 rrcurveto
            -8.72265625 -18.3955078125 -6.4326171875 -10.8212890625 -15.8447265625 -12.783203125 -19.4111328125 -15.6611328125 -16.5888671875 -6.3388671875 -21 -7 -6 -2 -2 -22 8 0 rrcurveto
            return
          </CharString>
          <CharString index="297">
            0 96.9033203125 34.990234375 77.009765625 23 -20 37 -18 -22 -38 -33 -25 hvcurveto
            0 -33 42 17 0 -32 0 -18.1103515625 -42.5576171875 -8.8994140625 -29.4423828125 7.009765625 -42 10 -64 56 -141 0 rrcurveto
            -219.056640625 -117.943359375 -164 -180 -190 160 -144 177 hvcurveto
            return
          </CharString>
          <CharString index="298">
            219 117 169 180 hvcurveto
            0 85.861328125 -1.546875 65.5126953125 -47.453125 55.6259765625 rrcurveto
            return
          </CharString>
          <CharString index="299">
            9.0546875 -4.5283203125 9.9453125 -9.59375 0 -13.3779296875 0 -14 -21 -7 -18 0 -21 0 -23.49609375 8.693359375 -30.50390625 10.96484375 -18.9951171875 6.828125 -23.83984375 5.513671875 -29.1650390625 0 rrcurveto
            -123 -97 -104 -124 -100 88 -100 112 hvcurveto
            return
          </CharString>
          <CharString index="300">
            44.8017578125 22.4013671875 34.1982421875 18.0986328125 0 57 rrcurveto
            33.5 -10 18.5 -20 -29.5 -25 -31 -18 vhcurveto
            return
          </CharString>
          <CharString index="301">
            0 -16 -83.021484375 -5.5595703125 -1.978515625 -0.4404296875 -36 -10 -8 -7 -101 -5 -9 0 0 -21 9 -3 7 -3 70 -6 0 -41 rrcurveto
            -191 vlineto
            0 -41 -28 -23 -15 -11 -25 -19 -25 -1 -34 0 -43 0 -41 43 0 48 rrcurveto
            195 vlineto
            0 30 2 16 4 31 1 10 -5 5 -10 -1 -39 -9 -15 -6 -54 -2 -8 -1 -1.9873046875 -19.8046875 7.9873046875 -3.1953125 29.9990234375 -12.0009765625 18.0009765625 -15.9990234375 0 -29 rrcurveto
            -211 vlineto
            -78 37 -41 65 vhcurveto
            62 0 63 20 52 51 2 -13 -11 -51 1 -12 1 -4 21 7 5 2 rrcurveto
            return
          </CharString>
          <CharString index="302">
            29 12 48 16 52 7 10 1 -1 28 -10 -2 -10 -2 -38 0 -10 -1 -24 -2 7 47 0 24 rrcurveto
            212 vlineto
            0 37 13 10 14 5 66.13671875 23.6201171875 47.86328125 23.3798828125 0 58 rrcurveto
            23 -8.9970703125 28.087890625 -31.19140625 -29 -25.8115234375 -8.087890625 -25 vhcurveto
            0 -18 7 -6 15 -10 rrcurveto
            10.5244140625 -7.0166015625 4.4755859375 -3.9833984375 0 -15 rrcurveto
            return
          </CharString>
          <CharString index="303">
            80 111 58 35 0 19 0 14 -16.822265625 13.7978515625 -17.177734375 0.2021484375 -22.50390625 0.2646484375 -17.4111328125 -9.3173828125 -11.0849609375 -17.947265625 -21 -34 -72 -126 0 -15 0 -9 3.7802734375 -4 9.2197265625 0 9 0 12.609375 14.521484375 5.390625 7.478515625 rrcurveto
            return
          </CharString>
          <CharString index="304">
            5.3916015625 -7.478515625 12.6083984375 -14.521484375 9 0 9.220703125 0 3.779296875 4 0 9 0 15 -72 126 -21 34 -11.0849609375 17.947265625 -17.4111328125 9.3173828125 -22.50390625 -0.2646484375 -17.1767578125 -0.2021484375 -16.8232421875 -13.7978515625 0 -14 0 -19 58 -35 80 -111 rrcurveto
            return
          </CharString>
          <CharString index="305">
            5.390625 -7.4794921875 12.609375 -14.5205078125 9 0 9.2197265625 0 3.7802734375 4 0 9 0 15 -72 126 -21 34 -11.0849609375 17.947265625 -17.4111328125 9.3173828125 -22.50390625 -0.2646484375 -17.1767578125 -0.2021484375 -16.8232421875 -13.7978515625 0 -14 0 -19 58 -35 80 -111 rrcurveto
            return
          </CharString>
          <CharString index="306">
            29 18 20 22 16 -18 20 -29 -48 -51 -41 -56 -70 64.9599609375 -53 51.0400390625 hvcurveto
            24.01953125 0 2.98046875 17 -21 4 -43 9 -27 31.849609375 0 30.150390625 rrcurveto
            22.08984375 27 27.91015625 20 vhcurveto
            return
          </CharString>
          <CharString index="307">
            80 111 58 35 0 19 0 14 -16.8232421875 13.7978515625 -17.1767578125 0.2021484375 -22.50390625 0.2646484375 -17.4111328125 -9.3173828125 -11.0849609375 -17.947265625 -21 -34 -72 -126 0 -15 0 -9 3.7802734375 -4 9.2197265625 0 9 0 12.6083984375 14.521484375 5.3916015625 7.478515625 rrcurveto
            return
          </CharString>
          <CharString index="308">
            4.5498046875 -2.0732421875 -9.576171875 -6.333984375 -5.9736328125 -0.5546875 -26.884765625 -2.494140625 -33.115234375 0.564453125 -19 0 -49 0 -38.111328125 6 -21 37 -9.0751953125 15.9892578125 -8.9248046875 14.0107421875 -12.888671875 0 -5.953125 0 -4.38671875 -6.328125 2.33984375 -6.671875 17.888671875 -51 18 -42 5.111328125 -25 rrcurveto
            1.7919921875 -8.7626953125 2.2080078125 -8.2373046875 10 0 29.8896484375 0 21.951171875 4.697265625 28.0478515625 0.302734375 110.286132812 1.1904296875 -19.828125 -1.1904296875 84.5419921875 0 7 0 1.6962890625 6.048828125 -0.6962890625 4.951171875 -3.0615234375 21.7861328125 -0.2236328125 1.345703125 -5.71484375 13.8681640625 -4.19140625 10.169921875 -7.53125 9.8701171875 -4.029296875 2.9599609375 rrcurveto
            -87.13671875 64 -46 117.41796875 0 124.58203125 rrcurveto
            119.509765625 79.9638671875 134.490234375 128.036132812 136.830078125 85.169921875 -162.169921875 -136.830078125 vhcurveto
            0 -105.080078125 -64 -102.919921875 -63.228515625 -47 -4.013671875 -2.982421875 -13.63671875 -15.818359375 -4.12109375 -10.19921875 -5.619140625 -13.908203125 -0.3193359375 -1.3056640625 -3.0615234375 -21.7861328125 -0.6962890625 -4.951171875 1.6962890625 -6.048828125 7 0 84.5419921875 0 -19.828125 1.1904296875 110.286132812 -1.1904296875 28.0478515625 -0.302734375 21.951171875 -4.697265625 29.8896484375 0 rrcurveto
            10 0 2.2080078125 8.2373046875 1.7919921875 8.7626953125 5.111328125 25 18 42 17.888671875 51 2.33984375 6.671875 -4.38671875 6.328125 -5.953125 0 -12.888671875 0 -8.9248046875 -14.0107421875 -9.0751953125 -15.9892578125 -21 -37 -38.9453125 -6 -48.166015625 0 -24.888671875 0 -39 -1.0107421875 -32 5.0107421875 rrcurveto
            -4.9404296875 0.7734375 8.4892578125 8.298828125 4.451171875 2.27734375 100.5234375 51.4404296875 73.29296875 104.213867188 1.18359375 120.99609375 1.6494140625 168.499023438 -148.439453125 133.500976562 -162.209960938 0 -175.9453125 0 -143.333007812 -141.061523438 -1.7216796875 -175.938476562 -1.1728515625 -119.815429688 74.46484375 -99.0302734375 103.708007812 -47.2626953125 rrcurveto
            return
          </CharString>
          <CharString index="309">
            -22 2 -17 26 0 16 0 70 53 30 43 9 21 4 -3 20 -24 -1 -51 -2 -91 -64 0 -101 rrcurveto
            -56 35 -41 48 29 26 19 27 vhcurveto
            0 22 -18 17 -29 3 rrcurveto
            return
          </CharString>
          <CharString index="310">
            49.1999969482 0 26.4300079346 20 49.3699951172 0 5.30000305176 0 5.69999694824 -12.6999969482 0 -5.30000305176 rrcurveto
            return
          </CharString>
          <CharString index="311">
            -60.669921875 -49.330078125 -49.330078125 -60.669921875 -60.669921875 49.330078125 -49.330078125 60.669921875 60.669921875 49.330078125 49.330078125 60.669921875 60.669921875 -49.330078125 49.330078125 -60.669921875 hvcurveto
            return
          </CharString>
          <CharString index="312">
            0 86 -75 8 -72 20 -8 2 -6 6 0 4 0 7 2 4 4 7 3 8 10 2 3 0 20 3 30 -2 34 4 19 1 11 34 0 4 rrcurveto
            0 5 -1.45399475098 5.1490020752 -4.54600524902 -0.149002075195 -45.5440063477 -1.49299621582 -30.4559936523 -3.50700378418 -40 -9 -14 -3 -5.97270202637 -9.01100158691 -5.02729797363 -11.9889984131 -6.5 -15.5 -16.5 -47.5 -1 -24 0 -6 5 -12 10 -3 36 -12 85 -8 0 -62 rrcurveto
            -72 -54.0729980469 -20 -55.9270019531 -15 -4 -10 -6 -4 5 -5 10 vhcurveto
            41.5269927979 0 39.4730072021 15 22 12 36 20 35 32 0 58 rrcurveto
            return
          </CharString>
          <CharString index="313">
            -29 -16 -55 -24 0 -49 rrcurveto
            -53.9069976807 55.0928039551 -31.0930023193 53.9071960449 56 65 38.7799987793 61.2200012207 vhcurveto
            0 44 -39 22 -43 27 rrcurveto
            return
          </CharString>
          <CharString index="314">
            7 5 4 -2 7 -5 33 -22 29 -29 0 -34 rrcurveto
            -31.5160064697 -19 -29.4839935303 -34 -37.6770019531 -19.3229980469 40.3229980469 37.6770019531 vhcurveto
            0 35 6 16 24 19 rrcurveto
            return
          </CharString>
          <CharString index="315">
            -79 -52 -65 -54 -44 41 -32 45 hvcurveto
            24 0 22 13 10 7 7 5 13 9 4 8 2 2 -4 19 -3 -2 -7 -3 -8 -10 -8 -3 -8 -3 -4 -2 -15 0 rrcurveto
            -35 -21 26 33 39.5 25 28.5 30 47 30 -37 -50 hvcurveto
            0 -68 -26 -31 -24 -28 -27 -34 -55 -49 -37 -11 -5 -1 -5 -7.64199829102 0 -7.35800170898 0 -4.9940032959 6 -4.0059967041 4 1 44 6 71 45 36 32 35 32 43 54 0 69 rrcurveto
            70 -53 52 -63 vhcurveto
            return
          </CharString>
          <CharString index="316">
            191 vlineto
            7.451171875 -7 5.548828125 -7 -6 -40 -9.3662109375 -21.6337890625 vhcurveto
            -171 vlineto
            -6 -1 -2 -6 vhcurveto
            -189 hlineto
            -17.5283203125 -6.4716796875 -29 -9 -6 6.80859375 -6 7.19140625 hvcurveto
            202 hlineto
            3 1 -2 -3 hvcurveto
            -211 vlineto
            -7.19140625 6 -6.80859375 6 9 39 3.0703125 20.9296875 vhcurveto
            202 vlineto
            3 1 1 3 vhcurveto
            185 hlineto
            18.5283203125 0 6.1962890625 18.5673828125 6.275390625 17.4326171875 2.5234375 7.0107421875 -8.072265625 6.9892578125 -7.451171875 0 rrcurveto
            -203 hlineto
            -3 -1 -1 7 hvcurveto
            return
          </CharString>
          <CharString index="317">
            455 hlineto
            22 0 3 25 6 21 2 7 -8 7 -7 0 rrcurveto
            -463 hlineto
            -21 -3 -39 -9 -6 7 -6 7 hvcurveto
            return
          </CharString>
          <CharString index="318">
            -17.5283203125 -6.4716796875 -29 -9 -6 6.80859375 -6 7.19140625 hvcurveto
            445 hlineto
            18.5283203125 0 6.1962890625 18.5673828125 6.275390625 17.4326171875 2.5234375 7.0107421875 -8.072265625 6.9892578125 -7.451171875 0 rrcurveto
            return
          </CharString>
          <CharString index="319">
            -62 47.818359375 -56 63.181640625 vhcurveto
            60 0 42 34 6 21 2 7 -19 14 -6 -7 -17 -20 -17 -7 -27 0 rrcurveto
            -49.5849609375 -31.4150390625 40 58 42.1484375 25.8515625 41.8515625 42.1484375 hvcurveto
            32 0 13 -8 13 -21 3 -5 13.06640625 -2.744140625 6.93359375 5.744140625 9.9833984375 8.271484375 10.0166015625 12.728515625 -8 10 -20 22 -30 7 -28 0 rrcurveto
            -75.01171875 -61.98828125 -59.98828125 -75.01171875 hvcurveto
            return
          </CharString>
          <CharString index="320">
            -4.560546875 -7.236328125 12.0068359375 -7.763671875 8.5537109375 0 15.2099609375 0 12.6806640625 2.1318359375 8.109375 12.8681640625 rrcurveto
            438 695 rlineto
            4.4501953125 7.0615234375 -9.103515625 9.9384765625 -8.3466796875 0 -16.591796875 0 -13.5615234375 -2.962890625 -8.8466796875 -14.037109375 rrcurveto
            return
          </CharString>
          <CharString index="321">
            -145 -1 -69 -154 0 -133 0 -93 -13 -108 -20 -37 -3 -6 -2 -5 -6 -1 -51 -10 -45 -44 0 -20 0 -17 13 -14 17 0 14 0 14 5 8 15 rrcurveto
            14 26 24 23 6 0 10 0 32 -13 22 -16 rrcurveto
            return
          </CharString>
          <CharString index="322">
            55 -38 38 -24 67 0 81 0 72 64 0 77 0 28 -18 22 -29 3 -9 1 0 -12 0 -9 1 -20 12 -12 0 -19 0 -31 -28 -25 -31 1 rrcurveto
            -95 2 -22 59 -119 0 -7 0 0 7 3 2 28 24 55 115 0 96 0 165 42 98 66 0 rrcurveto
            return
          </CharString>
          <CharString index="323">
            59.5693359375 -119.138671875 75.9306640625 -170.745117188 10 -19.1162109375 rrcurveto
            148.5 315 rlineto
            5.3408203125 11.3291015625 4.6591796875 1.6708984375 0 -13 rrcurveto
            -246 vlineto
            return
          </CharString>
          <CharString index="324">
            0 -28 -8 -5 -25 -3 -15 -2 -7 -7 0 -5 rrcurveto
            -5 8 -3 11 vhcurveto
            151 hlineto
            11 8 3 5 hvcurveto
            0 5 -6 7 -15 2 -32 5 -17 4.98046875 0 25.01953125 rrcurveto
            284 vlineto
            0 19 24 3 22 6 4 1 13 7 0 7 rrcurveto
            7 -14 2 -2 vhcurveto
            -96 hlineto
            -10 0 -9.498046875 -18.8828125 -10.001953125 -19.0009765625 rrcurveto
            -118.5 -236.116210938 rlineto
            -5.6171875 -11.1923828125 -4.736328125 2.0400390625 -4.646484375 11.15234375 rrcurveto
            -103 211 rlineto
            -7.49609375 15.35546875 -17.50390625 45.64453125 -12 0 rrcurveto
            -102 hlineto
            -4 -11 -3 -6 hvcurveto
            0 -5 5 -8 4 -1 16 -4 12 -1 13 -14 11 -12 0 -5 0 -16 rrcurveto
            -257 vlineto
            0 -8 -8 -26 -32 -5 -15 -2 -7 -7 0 -5 rrcurveto
            -5 8 -3 11 vhcurveto
            120 hlineto
            11 8 3 5 hvcurveto
            0 5 -6 7 -15 2 -32 5 -10 19 0 16 rrcurveto
            231 vlineto
            0 9 3 4 4 -8 rrcurveto
            return
          </CharString>
          <CharString index="325">
            -380 -174 rlineto
            -19 -9 -5 -30 0 -9 0 -6 7 -9 7 3 rrcurveto
            429 200 rlineto
            17 8 24 13 0 6 0 9 -13 28 -20 9 rrcurveto
            -437 200 rlineto
            -7 3 -8 -10 2 -7 6 -21 5 -16 20 -9 rrcurveto
            373 -174 rlineto
            3 -1 -1 -3 -3 -1 rrcurveto
            return
          </CharString>
          <CharString index="326">
            78 45 16 65 0 32 0 63 -42 40 -64 1 -0.53515625 0.0078125 -0.53515625 0.00390625 -0.5341796875 0 -65.349609375 0 -58.2080078125 -60.3203125 -19.837890625 -37.69140625 -3 -6 5 -6 6 -2 5 -2 3 6 4 3 rrcurveto
            30 25 22 25 45 0 39 0 25 -28 0 -38 0 -53 -22 -37 -18 -16 -29 -26 -19 -12 -22 -13 -12 -7 -13 -10 -6 -17 -2 -7 12 -6 7 4 rrcurveto
            23 13 24 7 15 0 rrcurveto
            return
          </CharString>
          <CharString index="327">
            -150 hlineto
            -4 0 1.720703125 6.3310546875 2.279296875 2.6689453125 57.5654296875 67.412109375 32.9013671875 37.7763671875 61.533203125 63.8115234375 2.720703125 2.8212890625 7.279296875 -0.8212890625 0 -3 rrcurveto
            -169 vlineto
            -4 -7 -4 -5 vhcurveto
            return
          </CharString>
          <CharString index="328">
            105 1 42 6 82 0 1 0 14 -3 0 -6 rrcurveto
            -209 vlineto
            -10 7 -3 8 7 51 23 25 vhcurveto
            179 vlineto
            0 1 8 4 5 1 18 3 35 -2 27 0 7 0 10.4765625 24.029296875 3.5234375 17.970703125 1.06640625 5.439453125 -6.06640625 3.560546875 -6 0 -36 -2 -24.4326171875 -0.853515625 -38.5673828125 1.853515625 -3.04296875 0.146484375 -1.947265625 2.8076171875 -0.009765625 3.0458984375 rrcurveto
            -0.3828125 117.009765625 4.3828125 65.9794921875 0 117.010742188 0 4.93359375 3 8.06640625 -7 -1 -7 -1 -16.8740234375 -25.765625 -15.1259765625 -17.234375 -32.4541015625 -36.9765625 -28.5458984375 -34.0234375 -22 -24 -80 -86 -6 -9 -73 -79 -15 -17 -4 -4 -25 -31 rrcurveto
            return
          </CharString>
          <CharString index="329">
            100 123 77 129 hvcurveto
            0 52 -35 55 -27 26 -28 27 -66 43 -58 32 -18.408203125 10.15625 -3.591796875 8.84375 3 11 5.3662109375 19.6767578125 3.5830078125 10.03125 9.05078125 0.2919921875 31 1 40 2 51 10 27 5 24 46 0 25 rrcurveto
            0 7 -4.87109375 7.947265625 -7.12890625 -0.947265625 -58.04296875 -7.71484375 -41.859375 -8.845703125 -46.09765625 -18.439453125 -10 -4 -16.7783203125 -9.533203125 -9.2216796875 -19.466796875 -9 -19 -17 -46 -5 -55 -1.65234375 -18.1728515625 8.0361328125 -20.01953125 43.6162109375 -21.8076171875 66 -33 71 -51 0 -83 rrcurveto
            0 -106.276367188 -68.7890625 -41.1884765625 -75.2109375 -12.53515625 -12 -2 -21 -5 0 -10 rrcurveto
            -9 19 -3 15 vhcurveto
            return
          </CharString>
          <CharString index="330">
            -20.2822265625 2.7978515625 -10.3701171875 -12.1005859375 -19.34765625 -6.697265625 -21.22265625 -7.3466796875 -17.23828125 3.560546875 -15.5390625 -16.2138671875 -7.857421875 -8.19921875 8.046875 -11.556640625 7.810546875 -8.244140625 7.9755859375 -8.41796875 8.46875 -2.544921875 11.5556640625 0.962890625 18.1962890625 1.5166015625 8.6298828125 8.28125 17.173828125 6.2021484375 10.90625 3.9384765625 9.146484375 -2.3828125 7.947265625 8.4443359375 rrcurveto
            6.50390625 6.91015625 -1.7158203125 7.6328125 -0.7880859375 9.45703125 rrcurveto
            -0.8193359375 9.83203125 2.5927734375 12.8203125 -9.7734375 1.34765625 rrcurveto
            return
          </CharString>
          <CharString index="331">
            -20.69921875 1.03515625 -9.1708984375 -14.10546875 -20.1298828125 -4.9296875 -18.32421875 -4.4873046875 -13.2685546875 7.798828125 -16.4072265625 -9.3115234375 -15.0615234375 -8.548828125 -13.2275390625 -10.2841796875 2.2890625 -17.1669921875 2.146484375 -16.087890625 15.7490234375 -5.8994140625 16.1044921875 -2.0126953125 24.4384765625 -3.0546875 13.7646484375 8.708984375 23.796875 6.345703125 23.119140625 6.1650390625 16.7578125 -1.7880859375 18.123046875 15.623046875 rrcurveto
            8.861328125 7.6396484375 -3.0146484375 12.2255859375 -5.8466796875 10.134765625 -7.25 12.5673828125 -8.259765625 8.7080078125 -14.490234375 0.724609375 rrcurveto
            return
          </CharString>
          <CharString index="332">
            -22.85546875 1.958984375 -11.5498046875 -12.2177734375 -21.5947265625 -7.7412109375 -19.7705078125 -7.087890625 -12.75390625 -1.26171875 -17.4755859375 -11.650390625 -13.7978515625 -9.1982421875 -9.646484375 -6.8564453125 -4.5556640625 -15.9453125 -2.875 -10.0615234375 4.6533203125 -11.6943359375 10.2216796875 -2.244140625 26.7626953125 -5.875 16.9111328125 4.28125 26.326171875 7.59375 15.5947265625 4.498046875 7.2119140625 7.7490234375 11.193359375 11.7529296875 rrcurveto
            5.1044921875 5.3583984375 -6.2109375 10.5849609375 7.1064453125 2.056640625 12.271484375 3.5517578125 9.9755859375 -18.8037109375 9.7529296875 8.251953125 8.81640625 7.4599609375 -10.73828125 10.7353515625 -4.078125 10.8046875 -3.826171875 10.138671875 0.623046875 12.935546875 -10.796875 0.92578125 rrcurveto
            return
          </CharString>
          <CharString index="333">
            -0.7265625 16.732421875 -20.720703125 0.720703125 -16.552734375 2.546875 -15.7236328125 2.4189453125 -9.3134765625 -5.015625 -14.962890625 -5.4033203125 -13.4677734375 -4.86328125 -6.833984375 -4.87890625 -11.6982421875 -8.2578125 -14.9306640625 -10.5390625 -13.505859375 -2.8232421875 -7.5634765625 -16.6376953125 -3.4306640625 -7.5478515625 11.1728515625 -7.203125 8.2578125 0.7509765625 37.6806640625 3.42578125 21.005859375 6.9921875 35.3134765625 13.58203125 rrcurveto
            16.1640625 6.216796875 20.587890625 2.48046875 -0.751953125 17.302734375 rrcurveto
            return
          </CharString>
          <CharString index="334">
            -13.5263671875 8.1162109375 -11.9951171875 -8.376953125 -14.478515625 6.2607421875 -15.3212890625 6.6259765625 -4.6494140625 10.3291015625 -14.029296875 9.044921875 -45.3095703125 29.212890625 -22.494140625 23.123046875 -50.1962890625 19.6640625 rrcurveto
            return
          </CharString>
          <CharString index="335">
            -27.6357421875 10.826171875 -19.1455078125 -12.0439453125 -29.21875 5.2177734375 -15.125 2.701171875 -5.677734375 11.0400390625 -15.197265625 2.2587890625 rrcurveto
            return
          </CharString>
          <CharString index="336">
            -43.267578125 6.431640625 -24.990234375 -0.431640625 -43.7421875 0 -11.16796875 0 -5.8408203125 -4.0224609375 -10.9912109375 -1.9775390625 -28.017578125 -5.04296875 -15.5888671875 -4.8916015625 -28.3935546875 -2.0654296875 -14.8623046875 -1.0810546875 -8.2421875 5.5615234375 -14.8955078125 -0.48046875 -9.642578125 -0.3115234375 -4.734375 -6.375 -9.623046875 0.6865234375 -34.6630859375 2.4755859375 -18.6953125 8.7529296875 -34.6416015625 2.771484375 rrcurveto
            -24.115234375 1.9296875 -13.9599609375 -0.3408203125 -23.9248046875 -3.5888671875 -23.205078125 -3.48046875 -14.896484375 -0.0830078125 -19.8984375 -12.4365234375 -8.1796875 -5.11328125 1.2646484375 -9.28125 0.9150390625 -9.60546875 0.76171875 -7.994140625 1.5009765625 -7.8564453125 7.7373046875 -2.1494140625 37.1015625 -10.3056640625 22.4013671875 -0.908203125 38.4970703125 -0.7861328125 rrcurveto
            return
          </CharString>
          <CharString index="337">
            38.3388671875 -0.7822265625 21.3740234375 6.634765625 38.287109375 2.1474609375 45.1962890625 2.5341796875 25.87109375 -4.0224609375 44.9326171875 5.48828125 rrcurveto
            return
          </CharString>
          <CharString index="338">
            7.4375 0.908203125 0.294921875 9.2744140625 7.267578125 1.8173828125 6.607421875 1.65234375 4.1083984375 -3.0263671875 6.2841796875 -2.6259765625 19.95703125 -8.3408203125 8.5869140625 -12.919921875 21.4560546875 -2.7392578125 rrcurveto
            return
          </CharString>
          <CharString index="339">
            17.64453125 -2.251953125 8.6083984375 15.4345703125 17.7470703125 -1.1826171875 19.2216796875 -1.28125 10.6484375 -6.1845703125 16.1298828125 -10.5341796875 22.669921875 -14.8046875 11.59765625 -10.7333984375 17.732421875 -20.4619140625 3.576171875 -4.1259765625 0.533203125 -6.279296875 -4.109375 -3.5947265625 -4.6962890625 -4.109375 -5.1767578125 2.923828125 -6.126953125 1.185546875 -18.2021484375 3.5234375 -9.5166015625 11.5703125 -18.28125 -3.09375 rrcurveto
            -34.8466796875 -5.8974609375 -15.841796875 -16.296875 -33.3115234375 -11.8056640625 -28.37890625 -10.05859375 -17.369140625 -1.5322265625 -28.251953125 -10.4091796875 -16.3662109375 -6.029296875 -7.9619140625 -6.31640625 -15.671875 -7.654296875 -17.869140625 -8.7265625 -15.33984375 1.953125 -12.791015625 -15.2265625 -7.0947265625 -8.4462890625 7.6064453125 -9.0888671875 3.48828125 -10.46484375 3.642578125 -10.92578125 0.4228515625 -9.25 9.9345703125 -5.82421875 rrcurveto
            15.046875 -8.8203125 12.59765625 6.8779296875 16.35546875 -6.0576171875 5.712890625 -2.1162109375 -1.80078125 -10.1005859375 6.087890625 0.216796875 18.740234375 0.6689453125 10.3212890625 5.28515625 16.9384765625 8.0458984375 14.6611328125 6.9638671875 5.7626953125 8.1416015625 13.576171875 8.89453125 31.6748046875 20.7529296875 18.921875 10.083984375 31.4033203125 21.1630859375 4.57421875 3.08203125 0.041015625 5.720703125 5.384765625 1.197265625 rrcurveto
            3.806640625 0.845703125 1.197265625 -4.3486328125 2.99609375 -2.4970703125 6.3701171875 -5.30859375 3.1552734375 -3.51171875 6.474609375 -5.1796875 5.2392578125 -4.19140625 2.8310546875 -2.6689453125 5.9296875 -3.1396484375 20.6572265625 -10.9365234375 10.271484375 -11.314453125 23.0712890625 -3.7490234375 40.8046875 -6.630859375 24.298828125 12.6650390625 40.896484375 -6.0341796875 9.2919921875 -1.37109375 6.7080078125 -7.2373046875 0 -9.3916015625 rrcurveto
            0 -8.82421875 -7.2744140625 -5.853515625 -8.7255859375 -1.322265625 -19.41796875 -2.9423828125 -11.0078125 7.3388671875 -19.57421875 1.603515625 -28.029296875 2.2978515625 -16.08984375 -1.9794921875 -27.880859375 3.681640625 -13.703125 1.8095703125 -7.3740234375 3.2880859375 -12.9228515625 4.90234375 -9.7841796875 3.7109375 -3.763671875 7.765625 -10.4521484375 0.5234375 -7.349609375 0.3671875 -4.90625 -4.0322265625 -3.744140625 -6.3349609375 rrcurveto
            -7.03125 -11.8994140625 -0.767578125 -8.4560546875 -2.201171875 -13.64453125 -1.7392578125 -10.7802734375 -1.94921875 -6.94140625 3.6884765625 -10.2783203125 7.55078125 -21.03515625 13.380859375 -7.7626953125 7.068359375 -21.2021484375 4.939453125 -14.818359375 -6.7275390625 -10.0283203125 3.7880859375 -15.1533203125 4.1494140625 -16.595703125 13.3759765625 -6.3046875 0.474609375 -17.099609375 0.3876953125 -13.947265625 -22.328125 -5.4267578125 5.9404296875 -12.6259765625 rrcurveto
            5.32421875 -11.314453125 14.373046875 11.5517578125 12.302734375 -2.2373046875 13.5986328125 -2.47265625 6.5869140625 -7.095703125 13.814453125 -0.431640625 12.103515625 -0.3779296875 6.0361328125 5.9365234375 11.8603515625 2.44140625 14.6953125 3.025390625 8.7294921875 -0.587890625 14.5751953125 3.5625 20.611328125 5.0380859375 12.2314453125 1.8388671875 19.1572265625 9.123046875 14.0849609375 6.70703125 3.7333984375 10.79296875 14.181640625 6.5 rrcurveto
            5.716796875 2.6201171875 3.994140625 -4.6201171875 6.2890625 0 13.283203125 0 7.7509765625 -0.880859375 12.9658203125 2.880859375 8.5126953125 1.8916015625 5.904296875 1.4091796875 5.5830078125 6.69921875 6.955078125 8.345703125 3.3603515625 6.794921875 -0.3154296875 10.859375 -1.2744140625 44.0009765625 -12.068359375 23.984375 -0.6572265625 44.0146484375 -0.91015625 60.9580078125 10.91015625 34.0771484375 0 60.96484375 rrcurveto
            0 10.1396484375 -1.3046875 8.6435546875 -8.6953125 5.216796875 rrcurveto
            return
          </CharString>
          <CharString index="340">
            -26.375 -32.96875 7.6630859375 -30.9384765625 -3.2880859375 -42.0927734375 -4.556640625 -58.3271484375 2.8408203125 -33.2861328125 3.7158203125 -58.38671875 1.7587890625 -27.642578125 2.8525390625 -15.6630859375 7.388671875 -26.6943359375 4.7958984375 -17.326171875 5.2841796875 -9.064453125 8.919921875 -15.609375 6.7724609375 -11.8515625 4.7529296875 -25.974609375 9.474609375 9.826171875 15.2470703125 15.8115234375 -13.2353515625 18.5888671875 3.98828125 21.599609375 rrcurveto
            5.392578125 29.2080078125 8.9736328125 15.3134765625 3.6337890625 29.478515625 3.435546875 27.869140625 -0.76171875 16.1787109375 -2.673828125 27.9521484375 -5.923828125 61.931640625 1.1787109375 36.2939453125 -17.2548828125 59.7744140625 -5.3544921875 18.5546875 -16.5810546875 32.525390625 -12.064453125 -15.080078125 rrcurveto
            return
          </CharString>
          <CharString index="341">
            25.0341796875 -73.3154296875 -12.2216796875 -47.2783203125 3.1875 -77.40625 2.2783203125 -55.3388671875 4.541015625 -31.982421875 -8.8193359375 -54.6787109375 -6.9931640625 -43.35546875 6.39453125 -39.6279296875 -37.4013671875 -23.0166015625 -25.9833984375 -15.990234375 -12.6171875 44.5703125 -27.3994140625 13.419921875 -11.4033203125 5.5849609375 -8.2568359375 3.40625 -12.33984375 -2.9912109375 -66.1630859375 -16.0390625 -33.3017578125 -23.544921875 -66.53515625 -14.416015625 rrcurveto
            -28.2158203125 -6.11328125 -17.396484375 13.3701171875 -28.3876953125 -5.2568359375 -15.529296875 -2.8759765625 -2.92578125 -16.333984375 -15.544921875 -2.7900390625 -17.1669921875 -3.0810546875 -9.5048828125 13.0615234375 -17.328125 -1.98046875 -11.8291015625 -1.3515625 -2.2841796875 -13.958984375 -11.88671875 -0.689453125 -43.7177734375 -2.5341796875 -26.310546875 -1.95703125 -41.9716796875 12.4912109375 -26.166015625 7.787109375 -11.20703125 14.2548828125 -18.626953125 19.9580078125 rrcurveto
            -4.7900390625 5.1318359375 7.357421875 6.333984375 -2.5673828125 6.5341796875 -6.26171875 15.9384765625 -12.9794921875 5.1611328125 -2.7587890625 16.900390625 -3.7890625 23.208984375 14.4013671875 13.7314453125 -4.6123046875 23.0595703125 -2.2734375 11.3701171875 -14.7080078125 -1.82421875 -5.0185546875 10.4541015625 -5.07421875 10.5712890625 8.9921875 9.3056640625 -5.91796875 10.123046875 -24.486328125 41.884765625 -29.21875 14.046875 -20.294921875 44.068359375 rrcurveto
            -8.5078125 18.474609375 1.84765625 16.203125 10.66015625 17.322265625 10.4462890625 16.9755859375 20.619140625 -6.140625 12.9345703125 15.1650390625 11.205078125 13.13671875 -6.3564453125 14.2216796875 9.1513671875 14.6416015625 7.0400390625 11.263671875 22.6787109375 -2.015625 -3.71875 12.751953125 -5.2099609375 17.861328125 -16.3056640625 6.013671875 -18.484375 2.125 rrcurveto
            return
          </CharString>
          <CharString index="342">
            -51.9697265625 5.9736328125 -29.748046875 -10.1865234375 -52.2822265625 -1.787109375 -38.9853515625 -1.3330078125 -22.2919921875 -5.376953125 -38.72265625 4.7099609375 -20.1298828125 2.4482421875 -17.5703125 0.0830078125 -10.2998046875 17.46875 -11.5 19.49609375 -5.7998046875 26.6767578125 19.2998046875 11.8271484375 63.953125 39.197265625 45.591796875 7.693359375 74.455078125 9.109375 74.4267578125 9.10546875 42.6015625 -20.3271484375 74.9716796875 1.2216796875 rrcurveto
            return
          </CharString>
          <CharString index="343">
            68.9140625 1.1240234375 38.1826171875 13.2353515625 68.9033203125 1.640625 29.88671875 0.7119140625 18.8896484375 1.6416015625 27.2236328125 -12.353515625 67.2412109375 -30.5126953125 31.162109375 -29.96484375 63.5966796875 -37.5224609375 14.423828125 -8.509765625 6.9521484375 -13.517578125 16.6240234375 2.02734375 20.6162109375 2.5146484375 4.6318359375 18.556640625 18.751953125 8.9287109375 14.51953125 6.9130859375 10.3125 8.423828125 15.16796875 -5.3369140625 rrcurveto
            30.62109375 -10.7744140625 26.8896484375 -6.505859375 10.4892578125 -30.7197265625 rrcurveto
            return
          </CharString>
          <CharString index="344">
            -25.0000152588 -25 -25 -25 -25 25 -25 25 25 25 25 25 25 -25 25 -25 hvcurveto
            return
          </CharString>
          <CharString index="345">
            11 23 60 63 67 0 58 0 43 -56 -2 -72 -3 -118 -81 -86 -30 -31 -21 -22 -125 -129 -25 -26 -12 -12 2 -18 10 0 96 5 53 0 95 0 rrcurveto
            53 0 -15 0 96 -6 8 -1 10 -1 5 26 10 59 -5 -32 24 67 2 7 1 12 -7 -1 -14 -2 -8 -12 -5 -8 -25 -40 -13 -4 -57 -3 rrcurveto
            -71 -4 -92 0 -44 4 -8 1 -14 5 9 6 14 10 155 150 45 54 36 44 37 79 0 48 0 95 -59 74 -96 0 -115 0 -73 -110 -10 -27 rrcurveto
            -3 -9 10 -16 6 0 6 0 7 7 4 7 rrcurveto
            return
          </CharString>
          <CharString index="346">
            78 45 27 57 0 48 0 72 -73 42 -56 0 -89.3470001221 0 -68.6529998779 -55 -32 -73 -3 -6 -4.7958984375 -14.2599945068 7.7958984375 0.259994506836 14.2734069824 0.475997924805 12.7265930176 16.5240020752 3 4 34 43 29.7559967041 24 52.2440032959 0 rrcurveto
            53 41 -49.3280029297 -54.6719970703 hvcurveto
            0 -71 -103 -52 -23 -11 -12.5330047607 -5.9940032959 -12.3499908447 -11.078994751 -5.11700439453 -16.9270019531 -2.17100524902 -7.18099975586 12.171005249 -5.81900024414 7 4 23 13 27 2 15 0 rrcurveto
            return
          </CharString>
          <CharString index="347">
            270 388 rlineto
            3.14999389648 4.52699279785 4.85000610352 9.47300720215 -6 0 rrcurveto
            -19 hlineto
            -10 0 -11.7149963379 -16.1950073242 -8.28500366211 -11.8049926758 rrcurveto
            -266 -379 rlineto
            -13 -18 -1 2 -25 -31 -3 -4 6 -9 6 0 rrcurveto
            return
          </CharString>
          <CharString index="348">
            105 1 56 6 82 0 1 0 14 -3 0 -6 rrcurveto
            -89 vlineto
            0 -40 -63 -16 -30 -6 -17 -3 5 -22 12 0 54 0 25.8730010986 5 51.1269989014 0 47.2299957275 0 16.7700042725 -5 57 0 16 0 0 22 -16 3 -31 6 -47 13 0 47 rrcurveto
            90 vlineto
            0 1 8 4 5 1 18 3 35 -2 27 0 7 0 10.4759979248 20.7859954834 3.5240020752 16.2140045166 1.17700195312 5.41600036621 -6.17700195312 3.58399963379 -6 0 -36 -2 -24.4329986572 -0.85400390625 -38.5670013428 1.85400390625 -3.04299926758 0.14599609375 -1.95700073242 2.80799865723 0 3.04600524902 rrcurveto
            159 vlineto
            42 0 22 -15 vhcurveto
            -9 0 -27.2590026855 -2.36999511719 -19.7409973145 -10.6300048828 -8.16200256348 -4.39500427246 -0.837997436523 -3.60499572754 0 -14 rrcurveto
            -185 vlineto
            -4 -7 -4 -5 vhcurveto
            return
          </CharString>
          <CharString index="349">
            -173 hlineto
            -4 0 2 6 2 3 rrcurveto
            return
          </CharString>
          <CharString index="350">
            -69 -119 -137 -231 -90 -156 -8.97749328613 -15.5614929199 -12.0225067139 -21.4385070801 0 -4 0 -15 13 -11 15 0 4 0 8.58399963379 15.8359069824 6.41600036621 11.1640930176 100 174 145 249 69 120 12 21 17 30 9 18 rrcurveto
            1 4 -4 11 -4 -1 -28 -5 -228 -2 -93 3 -25 1 -35 3 -3 0 -3 0 -6 -2 -1 -9 0 -25 -9 -20 -7 -29 -2 -9 -6 -21 9 0 rrcurveto
            10 0 11 13 5 6 19 23 37 3 21 0 32 0 178 1 39 -1 15 -1 -3 -5 -2 -4 rrcurveto
            return
          </CharString>
          <CharString index="351">
            -4 -3 -6 3 -4 3 -70 57 -47 25.0110015869 0 76.9889984131 rrcurveto
            49 48.56199646 37 51.43800354 51 36 -50 -51 vhcurveto
            0 -61.3500061035 -10 -47.6499938965 -46 -38 rrcurveto
            return
          </CharString>
          <CharString index="352">
            -11 7 -1 2 17 12 23 17 11 9 19 16 23 20 30 30 0 48 rrcurveto
            81 -79 51 -80 -87 -95 -48 -82 vhcurveto
            0 -85 56 -49 60 -51 8 -7 4 -1 -9 -5 rrcurveto
            return
          </CharString>
          <CharString index="353">
            -51 -28 -83 -45 0 -88 rrcurveto
            -92 85 -63 92 98 99 77 104 vhcurveto
            0 81 -54 40 -75 49 rrcurveto
            return
          </CharString>
          <CharString index="354">
            12 10 7 -5 13 -9 58 -40 60 -52 0 -62 rrcurveto
            -59.0565948486 -44 -51.9434051514 -59 -70.2920074463 -40.7079925537 71.7079925537 70.2920074463 vhcurveto
            0 64 21 28 43 35 rrcurveto
            return
          </CharString>
          <CharString index="355">
            90 47 -154 -150 -150 -31 -136 -80 -90 -44 158 150 150 28 132 80 hvcurveto
            return
          </CharString>
          <CharString index="356">
            -148 -62 -176 -152 -148 64 -168 136 148 62 180 150 145 -64 169 -136 hvcurveto
            return
          </CharString>
        <CharString name=".notdef">
          21 0 50 373 50 hstem
          50 50 300 50 vstem
          50 hmoveto
          400 473 -400 hlineto
          50 -423 rmoveto
          373 300 -373 vlineto
          endchar
        </CharString>
        <CharString name="A">
          205 -5 36 213 43 hstem
          178 102 rmoveto
          13 44 10 31 15 49 4 14 3.34399414062 4 9.65600585938 0 rrcurveto
          191 hlineto
          20 0 5 -1 3 -10 11 -42 11 -52 7 -34 8 -41 -0.783996582031 -18.9786987305 -54.216003418 -14.0213012695 -18.3950042725 -4.75720214844 -14.6049957275 -6.24279785156 0 -9 0 -8 12 -3 17 0 30 0 48.699005127 2.056640625 50.300994873 -1.056640625 rrcurveto
          42.5639953613 -0.89421081543 43.4360046387 -5.10578918457 23 0 17 0 12 2 0 8 0 9 -9.58599853516 9.90260314941 -23.4140014648 4.09739685059 -40 7 -33 13 -28 80 -33 95 -81 236 -64 203 -3 9 -2 5 -5 0 rrcurveto
          -5 0 -2.22799682617 -15.8179931641 -13.7720031738 -9.18200683594 -12 -8 -12 -3 -12 -4 -2 -1 0.587997436523 -16.2769927979 -2.58799743652 -10.7230072021 -2.89399719238 -11.9880065918 -4.10600280762 -9.0119934082 -3 -9 -67 -185 -45 -114 -75 -171 -22 -50 -30 -17 -34 -10 rrcurveto
          -22 -7 -11 -7 0 -9 0 -8 12 -5 17 0 30 0 33.9902038574 5.22265625 41.0097961426 0.77734375 41.3399963379 0.78369140625 43.6600036621 -2.78369140625 21 0 17 0 12 3 0 8 0 9 -10 5 -23 6 rrcurveto
          -37 9 -30 26 11 37 rrcurveto
          155 440 rmoveto
          -76 callsubr
          endchar
        </CharString>
        <CharString name="AE">
          387 -5 40 -40 33 257 43 270 50 -30 30 -22 25 hstemhm
          454 78 174 32 51 25 hintmask 0110001110000000
          454 267 rmoveto
          5 callsubr
          hintmask 1010101110000000
          6 callsubr
          hintmask 0110011110000000
          7 callsubr
          -16 314 rmoveto
          hintmask 0011001110000000
          8 callsubr
          endchar
        </CharString>
        <CharString name="AEacute">
          387 -5 33 -33 40 250 43 270 50 -30 30 -22 25 103 72 hstemhm
          454 78 174 32 51 25 hintmask 0000001000000000
          453 705 rmoveto
          -3 callsubr
          hintmask 1010000111000000
          1 -438 rmoveto
          5 callsubr
          hintmask 0110100111000000
          6 callsubr
          hintmask 1010010111000000
          7 callsubr
          -16 314 rmoveto
          hintmask 0011000111000000
          8 callsubr
          endchar
        </CharString>
        <CharString name="Aacute">
          205 -5 36 213 43 467 72 hstem
          275.913085938 705 rmoveto
          -3 callsubr
          -97.9130859375 -603 rmoveto
          -4 callsubr
          155 440 rmoveto
          -76 callsubr
          endchar
        </CharString>
        <CharString name="Abreve">
          205 -5 36 213 43 405 70 hstem
          212.912994385 300 vstem
          244.913085938 825 rmoveto
          43 callsubr
          -66.9130859375 -723 rmoveto
          -4 callsubr
          155 440 rmoveto
          -76 callsubr
          endchar
        </CharString>
        <CharString name="Acircumflex">
          205 -5 36 213 43 413 132 hstem
          372.913085938 763 rmoveto
          -2 callsubr
          -194.913085938 -661 rmoveto
          -4 callsubr
          155 440 rmoveto
          -76 callsubr
          endchar
        </CharString>
        <CharString name="Adieresis">
          205 -5 36 213 43 413 110 hstem
          212.914993286 110 80 110 vstem
          457.915039062 810 rmoveto
          2 callsubr
          -190 hmoveto
          2 callsubr
          -89.9150390625 -708 rmoveto
          -4 callsubr
          155 440 rmoveto
          -76 callsubr
          endchar
        </CharString>
        <CharString name="Adieresis.deu">
          205 -5 36 213 43 323 100 hstem
          166.914993286 100 198 100 vstem
          514.914993286 710 rmoveto
          237 callsubr
          -298 hmoveto
          237 callsubr
          -38.9149932861 -608 rmoveto
          -4 callsubr
          155 440 rmoveto
          -76 callsubr
          endchar
        </CharString>
        <CharString name="Agrave">
          205 -5 36 213 43 467 72 hstem
          431.913085938 705 rmoveto
          -5 callsubr
          -253.913085938 -603 rmoveto
          -4 callsubr
          155 440 rmoveto
          -76 callsubr
          endchar
        </CharString>
        <CharString name="Alpha">
          205 -5 36 213 43 hstem
          178 102 rmoveto
          -4 callsubr
          155 440 rmoveto
          -76 callsubr
          endchar
        </CharString>
        <CharString name="Amacron">
          205 -5 36 213 43 436 54 hstem
          212.912994385 300 vstem
          236.913085938 777 rmoveto
          40 callsubr
          -321.913085938 -675 rmoveto
          -4 callsubr
          155 440 rmoveto
          -76 callsubr
          endchar
        </CharString>
        <CharString name="Aogonek">
          207 -287 71 211 33 216 43 hstem
          369 85 vstem
          424 hmoveto
          30 0 25 0 34 1 -102 -63 -42 -38 0 -74 0 -63 51 -50 63 0 50 0 54 47 15 26 5 9 7 10 0 13 0 8 -7 1 -5 -3 rrcurveto
          -9 -5 -38 -35 -35 0 -35 0 -31 26 0 35 0 68 46 40 57 49 53 0 37 -7 23 0 17 0 12 3 0 8 0 9 -10 5 -23 6 rrcurveto
          -38 10 -37 29 -27 81 -65 197 -39 116 -64 203 -3 9 -2 5 -5 0 -5 0 -18 -22 -15 -7 -11 -5 -7 -2 -12 -4 -2 -1 1 -16 -3 -11 rrcurveto
          -3 -12 -4 -9 -3 -9 -67 -185 -35 -96 -75 -171 -22 -50 -43 -38 -34 -10 -22 -7 -11 -6 0 -9 0 -8 12 -3 17 0 30 0 36 5 42 1 rrcurveto
          42 1 44 -3 21 0 17 0 12 3 0 8 0 9 -10 5 -23 6 -37 9 -27 36 11 37 13 44 6 21 15 49 4 14 3 4 10 0 rrcurveto
          191 hlineto
          20 0 5 -1 3 -10 11 -42 6 -34 6 -39 9 -59 -28 -20 -28 -8 -18 -5 -15 -6 0 -9 0 -8 12 -3 17 0 rrcurveto
          -91 542 rmoveto
          -76 callsubr
          endchar
        </CharString>
        <CharString name="Aring">
          205 -5 36 213 43 413 22 119 23 hstem
          270.912994385 38 102 38 vstem
          363.913085938 864 rmoveto
          3 callsubr
          -55 -82 rmoveto
          4 callsubr
          -130.913085938 -680 rmoveto
          -4 callsubr
          155 440 rmoveto
          -76 callsubr
          endchar
        </CharString>
        <CharString name="Aringacute">
          205 -5 36 213 43 413 22 119 23 64.2689971924 72 hstem
          270.912994385 38 102 38 vstem
          315.913085938 879.268554688 rmoveto
          -3 callsubr
          48 -15.2685546875 rmoveto
          3 callsubr
          -55 -82 rmoveto
          4 callsubr
          -130.913085938 -680 rmoveto
          -4 callsubr
          155 440 rmoveto
          -76 callsubr
          endchar
        </CharString>
        <CharString name="Atilde">
          205 -5 36 213 43 457 63 -55 63 hstemhm
          202.914993286 320 hintmask 00010000
          202.915039062 738 rmoveto
          -1 callsubr
          hintmask 00100000
          0 callsubr
          hintmask 00010000
          1 callsubr
          hintmask 11000000
          -24.9150390625 -636 rmoveto
          -4 callsubr
          155 440 rmoveto
          -76 callsubr
          endchar
        </CharString>
        <CharString name="B">
          89 -5 29 -28 41 306 29 255 30 hstemhm
          120 80 200 86 -53 94 hintmask 00111100
          198 408 rmoveto
          -75 callsubr
          -78 141 rmoveto
          -450 vlineto
          hintmask 10111010
          -74 callsubr
          hintmask 01111010
          -73 callsubr
          hintmask 10111100
          -72 callsubr
          hintmask 01111010
          313 -360 rmoveto
          -71 callsubr
          endchar
        </CharString>
        <CharString name="Beta">
          89 -5 29 -28 41 306 29 255 30 hstemhm
          120 80 200 86 -53 94 hintmask 00111100
          198 408 rmoveto
          -75 callsubr
          -78 141 rmoveto
          -450 vlineto
          hintmask 10111010
          -74 callsubr
          hintmask 01111010
          -73 callsubr
          hintmask 10111100
          -72 callsubr
          hintmask 01111010
          313 -360 rmoveto
          -71 callsubr
          endchar
        </CharString>
        <CharString name="C">
          161 -15 31 616 31 hstem
          46 100 430 37 vstem
          586 137 rmoveto
          -26 -51 -48 -70 -112 0 rrcurveto
          -156 -98 168.281997681 162.718002319 147 100.660003662 138 147.339996338 hvcurveto
          92 0 45 -41 10 -10 12 -11 18 -22 5 -40 4 -23 11 -13 11 -1 10 -1 2 15 -1 9 -1 52 -3 26 -4 31 -1 14 -3.8450012207 14.7769927979 -8.1549987793 1.22300720215 rrcurveto
          -20 3 -38 9 -18 6 -18 6 -56 6 -32 0 rrcurveto
          -194 -170 -146 -194 -182 140.667999268 -156 182.332000732 hvcurveto
          60 0 74 4 34 16 24 11 20 2 5 8 15 23 14 56 4 25 2 11 -3 20 -7 -5 -5 -4 -14.2550048828 -3.73100280762 -5.74499511719 -11.2689971924 rrcurveto
          endchar
        </CharString>
        <CharString name="Cacute">
          161 -15 31 616 31 91 72 hstem
          46 100 430 37 vstem
          294 705 rmoveto
          -3 callsubr
          292 -568 rmoveto
          46 callsubr
          endchar
        </CharString>
        <CharString name="Ccaron">
          161 -15 31 616 31 37 133 hstem
          46 100 430 37 vstem
          391 769 rmoveto
          50 callsubr
          195 -632 rmoveto
          46 callsubr
          endchar
        </CharString>
        <CharString name="Ccedilla">
          186 -275 53 207 40 599 39 hstem
          50 96 279 53 108 33 vstem
          410 663 rmoveto
          9 callsubr
          endchar
        </CharString>
        <CharString name="Ccircumflex">
          161 -15 31 616 31 37 132 hstem
          46 100 430 37 vstem
          403 763 rmoveto
          -2 callsubr
          183 -626 rmoveto
          46 callsubr
          endchar
        </CharString>
        <CharString name="Cdotaccent">
          161 -15 31 616 31 37 110 hstem
          46 100 180 110 140 37 vstem
          381 810 rmoveto
          2 callsubr
          205 -673 rmoveto
          46 callsubr
          endchar
        </CharString>
        <CharString name="Chi">
          228 -5 33 594 33 hstem
          666 26 rmoveto
          152 callsubr
          endchar
        </CharString>
        <CharString name="D">
          275 -7 37 598 31 hstem
          129 81 399 95 vstem
          166 hmoveto
          79.9949951172 -0.511154174805 105.005004883 -6.4888458252 20 0 rrcurveto
          191 142 155.837997437 186.162002563 195 -93 129 -271 hvcurveto
          -28 0 -112 -9 -38 1 -41 0 -9 2 -54 0 -17 0 -12 -3 0 -8 0 -9 10 -7 23 -4 50 -9 17 -16 0 -48 rrcurveto
          -450 vlineto
          0 -48 -17 -18 -50 -9 -23 -4 -10 -5 0 -9 0 -8 12 -3 17 0 54 0 11.8359985352 5.26953125 42.1640014648 -0.26953125 rrcurveto
          443 346 rmoveto
          -153.119003296 -79.8809967041 -162.880996704 -153.119003296 vhcurveto
          -52 0 -37.8910064697 -11.3213043213 -41.1089935303 31.3213043213 -21 16 -14 14 0 41 rrcurveto
          446 vlineto
          60 48 1 87 157 107 -125 -157 vhcurveto
          endchar
        </CharString>
        <CharString name="Dcaron">
          275 -7 37 598 31 41 133 hstem
          129 81 399 95 vstem
          352 769 rmoveto
          50 callsubr
          -186 -769 rmoveto
          11 callsubr
          443 346 rmoveto
          12 callsubr
          endchar
        </CharString>
        <CharString name="Dcroat">
          275 -7 37 287 36 275 31 hstem
          129 81 399 95 vstem
          70 353 rmoveto
          10 callsubr
          -211 -353 rmoveto
          11 callsubr
          443 346 rmoveto
          12 callsubr
          endchar
        </CharString>
        <CharString name="Delta">
          197 0 55 hstem
          74 110 rmoveto
          -21 -44 -3 -6 -15 -33 -5 -11 3 -16 15 0 rrcurveto
          553 hlineto
          12 0 6 16 -4 11 -13 35 -13 33 -13 35 rrcurveto
          -199 526 rlineto
          -3 9 -2 5 -5 0 -5 0 -10 -25 -15 -7 -11 -5 -7 -1 -12 -4 -2 -1 1 -16 -3 -11 -3 -12 -3 -9 -4 -9 rrcurveto
          193 -450 rmoveto
          17 -50 9 -16 -30 1 rrcurveto
          -331 hlineto
          -26 0 -23 1 22 48 rrcurveto
          197 436 rlineto
          10 22 1 1 8 -24 rrcurveto
          endchar
        </CharString>
        <CharString name="E">
          62 -5 40 -40 29 384 -20 230 35 hstemhm
          136 80 174 32 51 25 hintmask 01111110
          216 374 rmoveto
          -70 callsubr
          hintmask 10111110
          -69 callsubr
          endchar
        </CharString>
        <CharString name="Eacute">
          62 -5 29 -29 40 353 20 210 35 101 72 hstemhm
          136 80 174 32 51 25 hintmask 00001000
          184.942382812 705 rmoveto
          -3 callsubr
          hintmask 10110111
          31.0576171875 -331 rmoveto
          -70 callsubr
          hintmask 01110111
          -69 callsubr
          endchar
        </CharString>
        <CharString name="Ebreve">
          62 -5 29 -29 40 353 20 210 35 39 70 hstemhm
          121.942001343 300 -285.942001343 80 174 32 51 25 hintmask 0000100000000000
          153.942382812 825 rmoveto
          43 callsubr
          hintmask 1011001110000000
          62.0576171875 -451 rmoveto
          -70 callsubr
          hintmask 0111001110000000
          -69 callsubr
          endchar
        </CharString>
        <CharString name="Ecaron">
          62 -5 29 -29 40 353 20 210 35 47 133 hstemhm
          136 80 174 32 51 25 hintmask 00001000
          281.942382812 769 rmoveto
          50 callsubr
          hintmask 10110111
          -65.9423828125 -395 rmoveto
          -70 callsubr
          hintmask 01110111
          -69 callsubr
          endchar
        </CharString>
        <CharString name="Ecircumflex">
          62 -5 29 -29 40 353 20 210 35 47 132 hstemhm
          136 80 174 32 51 25 hintmask 00001000
          281.942382812 763 rmoveto
          -2 callsubr
          hintmask 10110111
          -65.9423828125 -389 rmoveto
          -70 callsubr
          hintmask 01110111
          -69 callsubr
          endchar
        </CharString>
        <CharString name="Edieresis">
          62 -5 29 -29 40 353 20 210 35 47 110 hstemhm
          121.942001343 110 -95.9420013428 80 95.9420013428 110 -31.9420013428 32 51 25 hintmask 0000100100000000
          366.942382812 810 rmoveto
          2 callsubr
          -190 hmoveto
          2 callsubr
          hintmask 1011001011000000
          39.0576171875 -436 rmoveto
          -70 callsubr
          hintmask 0111001011000000
          -69 callsubr
          endchar
        </CharString>
        <CharString name="Edotaccent">
          62 -5 29 -29 40 353 20 210 35 47 110 hstemhm
          136 80 0.942001342773 110 63.0579986572 32 51 25 hintmask 0000101000000000
          271.942382812 810 rmoveto
          2 callsubr
          hintmask 1011010110000000
          -55.9423828125 -436 rmoveto
          -70 callsubr
          hintmask 0111010110000000
          -69 callsubr
          endchar
        </CharString>
        <CharString name="Egrave">
          62 -5 29 -29 40 353 20 210 35 101 72 hstemhm
          136 80 174 32 51 25 hintmask 00001000
          340.942382812 705 rmoveto
          -5 callsubr
          hintmask 10110111
          -124.942382812 -331 rmoveto
          -70 callsubr
          hintmask 01110111
          -69 callsubr
          endchar
        </CharString>
        <CharString name="Emacron">
          62 -5 29 -29 40 353 20 210 35 70 54 hstemhm
          121.942001343 300 -285.942001343 80 174 32 51 25 hintmask 0000100000000000
          145.942382812 777 rmoveto
          53 callsubr
          hintmask 1011001110000000
          -192.942382812 -403 rmoveto
          -70 callsubr
          hintmask 0111001110000000
          -69 callsubr
          endchar
        </CharString>
        <CharString name="Eng">
          316 -228 42 204 -21 633 28 hstemhm
          132 52 426 64 -48 56 hintmask 11111000
          409 -174 rmoveto
          -40 64 -14 51 vhcurveto
          48 0 30.7590026855 16.2920074463 21.2409973145 32.7079925537 44.1159973145 67.9320068359 5.88400268555 104.067993164 0 21 rrcurveto
          hintmask 11110100
          0 214 -4.71000671387 124.292007446 12.7100067139 215.707992554 1.10699462891 18.7890014648 17.8930053711 15.2109985352 8 6 9 7 13 12 28 3 10 1 -4 24 -6 0 -42 0 -23.8350067139 -5 -42.1649932861 0 -48.3990020752 0 -24.6009979248 5 -51 0 rrcurveto
          -8 0 1 -23 7 -2 18 -6 79 -17 2 -45 5 -164 4 -90 -5 -152 -2 -40 -17.4420013428 32.2660064697 -6.55799865723 7.73399353027 -154.570007324 182.294006348 -76.3589935303 111.690994263 -150.070999146 186.01499939 -7.97300720215 9.88299560547 -4.02699279785 12.1170043945 -12 0 rrcurveto
          -72 0 -14 -2 -78 2 -13 0 0 -27 13 -1 16 -1 39 -13 31 -36 12 -15 -1 -21 0 -28 0 -165 2.14700317383 -83.0780029297 -12.1470031738 -157.92199707 -2 -26 -7.85800170898 -14.9053039551 -17.141998291 -19.0946960449 rrcurveto
          -15.3867034912 -17.1396026611 -20.4823913574 5.58100891113 -16.1309051514 -16.44140625 -6.8283996582 -6.95970153809 -2.9216003418 -18.0402984619 9.75 0 42 0 23.8350067139 5 42.1649932861 0 45.6719970703 0 21.3280029297 -5 50 0 16 0 -5.07800292969 17.9589996338 -6.92199707031 7.04100036621 -19.3329925537 19.6661987305 -21.796005249 -3.69160461426 -20.8710021973 18.0254058838 rrcurveto
          -14.5800018311 12.5919036865 -11.4199981689 10.4080963135 0 19 -3 90 6 204 3 90 0 13 7 15 28 -32 157 -182 74 -100 145 -181 rrcurveto
          hintmask 11111000
          11 -15 0 -13 -2 -37 -4 -94 -28 -42 -28 0 -29 0 -21.4980010986 1.1490020752 -19.5019989014 27.8509979248 -12.0449981689 17.2019958496 -13.9550018311 5.79800415039 -22 0 rrcurveto
          -17 -6 -22 -18 hvcurveto
          endchar
        </CharString>
        <CharString name="Eogonek">
          89 -287 71 211 29 -22 33 373 -20 230 35 hstemhm
          120 80 67 85 22 32 51 25 hintmask 1101111110000000
          153 650 rmoveto
          -41 0 -9 3 -54 0 -17 0 -12 -3 0 -8 0 -9 10 -7 23 -4 50 -9 17 -16 0 -48 rrcurveto
          -450 vlineto
          0 -48 -24 -18 -50 -9 -23 -4 -10 -5 0 -9 0 -8 12 -3 17 0 rrcurveto
          hintmask 1011111110000000
          54 0 17 7 45 0 77 0 80 -4 87 -2 -96 -60 -39 -38 0 -72 0 -63 51 -50 63 0 50 0 54 47 15 26 5 9 7 10 0 13 rrcurveto
          0 8 -7 1 -5 -3 -9 -5 -38 -35 -35 0 -35 0 -31 26 0 35 rrcurveto
          hintmask 1101111110000000
          0 65 33 39 52 46 rrcurveto
          47 hlineto
          10 0 2 9 2 8 8 32 5 31 4 39 1 7 -7 4 -7 1 -7 0 -3 -2 -4 -8 -8 -17 -16 -32 -18 -14 rrcurveto
          hintmask 1011111110000000
          -13 -10 -58 -8 -5 0 rrcurveto
          -104 hlineto
          -45 0 -17 37 -1 41 -2 57 -1 60 0 61 -1 17 12 6 13 2 40 7 22 -3 41 -6 16 -2 21 -6 10 -31 2 -7 8 -16 13 0 rrcurveto
          8 1 8 9 hvcurveto
          -3 51 -2 20 5 52 1 9 -9 7 -5 0 -5 0 -11 -12 -2 -5 -5 -12 -3 -4 -9 -8 -12 -11 -17 -4 -15 0 rrcurveto
          -104 hlineto
          -10 0 11 11 hvcurveto
          0 49 1 49 2 48 1 28 5 35 2 9 2 12 12 14 11 0 rrcurveto
          131 hlineto
          25 0 23 -6 19 -21 9 -10 7 -17 7 -22 2 -7 2 -3 7 0 6 0 8 3 0 6 -1 35 -4 30 -7 38 -1 7 -10 2 -7 0 rrcurveto
          -26 1 -156 -4 -117 0 rrcurveto
          endchar
        </CharString>
        <CharString name="Epsilon">
          62 -5 29 -29 40 353 20 210 35 hstemhm
          136 80 174 32 51 25 hintmask 10111110
          216 374 rmoveto
          -70 callsubr
          hintmask 01111110
          -69 callsubr
          endchar
        </CharString>
        <CharString name="Eta">
          344 -5 29 278 48 272 31 hstem
          138 80 392 80 vstem
          690 100 rmoveto
          -67 callsubr
          endchar
        </CharString>
        <CharString name="Eth">
          275 -7 37 287 36 275 31 hstem
          129 81 399 95 vstem
          70 353 rmoveto
          10 callsubr
          -211 -353 rmoveto
          11 callsubr
          443 346 rmoveto
          12 callsubr
          endchar
        </CharString>
        <CharString name="Euro">
          186 -15 40 227 39 -35 44 56 39 -34 44 219 39 hstemhm
          50 96 440 33 hintmask 11000111
          410 663 rmoveto
          -168 0 -143 -114 -39 -156 rrcurveto
          -31 -1 rlineto
          -14 -10 -17 -9 -6 7 -6 7 hvcurveto
          34 1 rlineto
          -2 -15 -1 -15 0 -15 0 -7 1 -7 0 -8 rrcurveto
          -54 -1 rlineto
          -14 -10 -17 -9 -6 7 -6 7 hvcurveto
          69 1 rlineto
          27 -150 129 -115 157 0 60 0 74 4 34 16 24 11 12 3 5 8 15 23 22 55 4 25 2 11 -3 20 -7 -5 -5 -4 -16 -3 -4 -12 rrcurveto
          -5 -18 -15 -34 -39 -23 -39 -22 -46 -15 -39 0 -128 0 -91 103 -28 124 rrcurveto
          hintmask 10100111
          298 4 rlineto
          17 0 8 14 6 16 3 7 -9 7 -7 0 rrcurveto
          hintmask 11010111
          -323 -9 rlineto
          -2 14 -1 15 0 14 0 7 1 8 0 7 rrcurveto
          hintmask 10001111
          339 5 rlineto
          17 0 8 14 6 16 3 7 -9 7 -7 0 rrcurveto
          hintmask 11010111
          -352 -10 rlineto
          22 123 86 106 126 0 92 0 53 -33 10 -10 12 -11 27 -28 5 -40 4 -23 2 -7 11 -1 10 -1 2 15 -1 9 -1 52 -3 26 -4 31 rrcurveto
          -1 14 -4 14 -8 2 -17 5 -41 7 -18 6 rrcurveto
          -18 6 -56 6 -32 0 rrcurveto
          endchar
        </CharString>
        <CharString name="Euro.tablining">
          1 -15 35 224 34 76 36 208 32 hstem
          60 85 284 34 vstem
          18 244 rmoveto
          299 -3 rlineto
          16.9989929199 -0.0390014648438 8.00100708008 12.0390014648 6 16 3 7 -9.00300598145 7.14199829102 -6.99699401855 -0.141998291016 rrcurveto
          -307 -5 rlineto
          -14.0010070801 -0.22900390625 -9.99899291992 -12.7709960938 0 -9 0 -6 7 -5.92999267578 7 -0.0700073242188 rrcurveto
          18 110 rmoveto
          299 -3 rlineto
          16.9980010986 -0.162994384766 8.00199890137 12.1629943848 6 16 3 7 -9.00199890137 7.06799316406 -6.99800109863 -0.0679931640625 rrcurveto
          -307 -3 rlineto
          -14.0019989014 -0.22900390625 -9.99800109863 -14.7709960938 0 -9 0 -6 7 -5.92999267578 7 -0.0700073242188 rrcurveto
          252 -369 rmoveto
          54.0800018311 0 59.9199981689 15 22 12 6.03999328613 3.29460144043 14.8380126953 8.56019592285 3.12199401855 10.1452026367 8 26 7 35.1947021484 0 13.8052978516 0 11.1799926758 -3 14.8200073242 -8 0 -7 0 -11.8090057373 -17.4649963379 -5.1909942627 -11.5350036621 -18 -40 -40.5800018311 -46 -58.4199981689 0 rrcurveto
          -135.427001953 -30.5729980469 169.570007324 135.429992676 125.839996338 46.1600036621 147.160003662 125.839996338 hvcurveto
          59.9900054932 0 29.0099945068 -32 23 -66 4.93600463867 -14.1649932861 5.01399230957 -7.83500671387 11.0500030518 0 10.0500030518 0 2.94999694824 13.9400024414 0 9.05999755859 0 31 -1.93200683594 36.7290039062 -3.06799316406 12.2709960938 -2 8 -1 17 -9 0 -10 0 -60.4199981689 24 -46.5800018311 0 rrcurveto
          -173.089996338 -95.9100036621 -156.962997437 -163.037002563 -154.830001831 73.1699981689 -170.169998169 154.830001831 hvcurveto
          endchar
        </CharString>
        <CharString name="F">
          24 -5 29 292 36 59 -20 220 40 -29 31 hstemhm
          121 80 186 32 33 24 hintmask 11110111
          235 611 rmoveto
          -68 callsubr
          hintmask 11101111
          -1 7 -10 2 -7 0 rrcurveto
          hintmask 11110111
          -26 1 -155.81300354 -5.90400695801 -116.18699646 2.90400695801 rrcurveto
          hintmask 11101111
          -40 1 -5 1 -54 0 -17 0 -12 -3 0 -8 0 -9 10 -7 23 -4 50 -9 11 -31 0 -60 rrcurveto
          -422 vlineto
          0 -49 -17 -18 -50 -9 -23 -4 -10 -5 0 -9 0 -8 12 -3 17 0 54 0 22.783996582 7 49.216003418 0 38.3170013428 0 5.68299865723 -7 54 0 17 0 12 3 0 8 rrcurveto
          0 9 -10 5 -23 4 -50 9 -14 25 -2 43 -3 66 0 63 0 61 0 17 10.5070037842 7.22900390625 13.4929962158 0.77099609375 35 2 38 0 42 -1 16.1199951172 -0.384002685547 20.8800048828 -7.61599731445 10 -31 rrcurveto
          2 -7 8.31399536133 -16 12.6860046387 0 8 0 1 8 0 9 -3 51 -2 20 5 52 1 9 -9 7 -5 0 -5 0 -11 -12 -2 -5 -5 -12 -3 -4 -9 -8 rrcurveto
          -12 -11 -17 -4 -15 0 -24 0 -50 -3 -42 0 -9 0 -1 11 0 11 -2 49 0 88 2 50 rrcurveto
          1 26 2 24 31 0 rrcurveto
          endchar
        </CharString>
        <CharString name="G">
          250 -14 37 233 34 335 38 hstemhm
          45 99 414 86 -86 67 -31 38 hintmask 11111000
          621 624 rmoveto
          -2 15 -156 24 -50 0 rrcurveto
          -193.817993164 -174.182006836 -141 -193 -192.235992432 161.764007568 -150.764007568 192.235992432 hvcurveto
          37 0 39.8170013428 9.1103515625 47.1829986572 13.8896484375 43.4279937744 12.7839050293 23.4190063477 11.3098907471 40.1529998779 20.9062042236 7.88900756836 4.10729980469 6.11099243164 8.89270019531 0 5 0 5 -8.83599853516 4.7666015625 -4.16400146484 7.2333984375 rrcurveto
          hintmask 11110100
          -3.32499694824 5.77540588379 -2.61799621582 3.56050109863 -0.0570068359375 6.66409301758 -0.337997436523 39.8260040283 -0.662002563477 23.1739959717 6 39 4 27 9 14 29 8 5 1 16 8 0 9 0 13 -16 3 -5 0 -36 0 -18.2550048828 -4 -34.7449951172 0 rrcurveto
          -55 0 -21.8350067139 4 -49.1649932861 0 rrcurveto
          -5 -15 -7 -10 -10 15 -7 5 hvcurveto
          20 0 61 -9 17 -22 rrcurveto
          hintmask 11111000
          9 -12 -6 -46 0 -30 0 -35 -6 -30 -18 -12 -14.3150024414 -9.54299926758 -41.6849975586 -26.4570007324 -77 -1 -160.966003418 -2.09049987793 -96.033996582 164.111495972 0 160.979003906 0 158 111.266998291 121 148.733001709 0 95 0 51 -37 13 -16 rrcurveto
          hintmask 11110010
          16 -19 7 -13 8 -21 4 -12 5.16700744629 -15 13.8329925537 0 8 0 7 10 0 10 rrcurveto
          0 26 -5 44 -6 42 rrcurveto
          endchar
        </CharString>
        <CharString name="Gamma">
          37 -3 27 587 37 -22 25 hstemhm
          111 86 281 25 hintmask 11011000
          197 113 rmoveto
          148 callsubr
          hintmask 10111000
          149 callsubr
          endchar
        </CharString>
        <CharString name="Gbreve">
          250 -14 37 233 34 335 38 29 70 hstemhm
          45 99 106 300 8 67 -67 86 -50 38 hintmask 0001010000000000
          282 825 rmoveto
          43 callsubr
          hintmask 1110100100000000
          339 -201 rmoveto
          60 callsubr
          hintmask 1110101000000000
          61 callsubr
          hintmask 1110100100000000
          62 callsubr
          hintmask 1110100010000000
          63 callsubr
          endchar
        </CharString>
        <CharString name="Gcaron">
          250 -14 37 233 34 335 38 37 133 hstemhm
          45 99 414 67 -67 86 -50 38 hintmask 00010000
          410 769 rmoveto
          50 callsubr
          hintmask 11101010
          211 -145 rmoveto
          60 callsubr
          hintmask 11101100
          61 callsubr
          hintmask 11101010
          62 callsubr
          hintmask 11101001
          63 callsubr
          endchar
        </CharString>
        <CharString name="Gcircumflex">
          250 -14 37 233 34 335 38 37 132 hstemhm
          45 99 414 67 -67 86 -50 38 hintmask 00010000
          410 763 rmoveto
          -2 callsubr
          hintmask 11101010
          211 -139 rmoveto
          60 callsubr
          hintmask 11101100
          61 callsubr
          hintmask 11101010
          62 callsubr
          hintmask 11101001
          63 callsubr
          endchar
        </CharString>
        <CharString name="Gcommaaccent">
          250 -274 21 108 88 43 37 233 34 335 38 hstemhm
          45 99 270.5 53.5 90 67 -67 86 -50 38 hintmask 1100001000000000
          383.5 -145 rmoveto
          69 callsubr
          hintmask 0011110010000000
          237.5 769 rmoveto
          60 callsubr
          hintmask 0011110100000000
          61 callsubr
          hintmask 0011110010000000
          62 callsubr
          hintmask 0011110001000000
          63 callsubr
          endchar
        </CharString>
        <CharString name="Gdotaccent">
          250 -14 37 233 34 335 38 37 110 hstemhm
          45 99 201 110 103 67 -67 86 -50 38 hintmask 0001010000000000
          400 810 rmoveto
          2 callsubr
          hintmask 1110100100000000
          221 -186 rmoveto
          60 callsubr
          hintmask 1110101000000000
          61 callsubr
          hintmask 1110100100000000
          62 callsubr
          hintmask 1110100010000000
          63 callsubr
          endchar
        </CharString>
        <CharString name="H">
          344 -5 29 278 48 272 31 hstem
          138 80 392 80 vstem
          690 100 rmoveto
          -67 callsubr
          endchar
        </CharString>
        <CharString name="Hbar">
          383 -5 29 280 46 106 36 130 31 hstem
          141 80 414 80 vstem
          715 100 rmoveto
          356 49 vlineto
          15 0 9 9 7 13 3 7 -9 7 -7 0 rrcurveto
          -67 60 hlineto
          0 38 3 23 50 9 23 4 10 7 0 9 0 8 -12 3 -17 0 -54 0 -1 -3 -36 0 -45 0 -17 3 -54 0 -17 0 -12 -3 0 -8 rrcurveto
          0 -9 10 -7 23 -4 50 -9 15 -25 0 -36 rrcurveto
          -60 -410 vlineto
          -3 59 hlineto
          0 39 18 23 50 9 23 4 10 7 0 9 0 8 -12 3 -17 0 -54 0 -11 -3 -41 0 -40 0 -9 3 -54 0 -17 0 -12 -3 0 -8 rrcurveto
          0 -9 10 -7 23 -4 50 -9 3 -16 0 -46 rrcurveto
          -59 -55 vlineto
          -12 -12 -9 -9 -6 5 -12 9 hvcurveto
          65 -357 hlineto
          0 -48 -10 -18 -50 -9 -23 -4 -10 -5 0 -9 0 -8 12 -3 17 0 54 0 13 5 43 0 46 0 17 -5 54 0 17 0 12 3 0 8 rrcurveto
          0 9 -10 5 -23 4 -46 8 -32 32 0 42 0 77 -1 52 0 58 0 8 0 2.96899414062 5 0.031005859375 161 1 86 0 157 -1 3 -0.0189971923828 2 0.0189971923828 0 -7 rrcurveto
          0 -59 2 -65 -2 -76 0 -43 -26 -22 -42 -8 -23 -4 -10 -5 0 -9 0 -8 12 -3 17 0 54 0 11 5 42 0 41 0 9 -5 54 0 rrcurveto
          17 12 3 8 hvcurveto
          0 9 -10 5 -23 4 -50 9 -4 18 -1 49 rrcurveto
          -81 356 rmoveto
          1 -33 0 -28 0 -33 0 -9 -2.00100708008 -2.90100097656 -4.99899291992 -0.0989990234375 -152 -3 -88 0 -153 3 rrcurveto
          -6 -8 1 8 hvcurveto
          97 1 vlineto
          endchar
        </CharString>
        <CharString name="Hcircumflex">
          344 -5 29 278 48 272 31 47 132 hstem
          138 80 392 80 vstem
          432.954101562 763 rmoveto
          -2 callsubr
          257.045898438 -663 rmoveto
          -67 callsubr
          endchar
        </CharString>
        <CharString name="I">
          -96 -5 29 598 31 hstem
          151 80 vstem
          151 550 rmoveto
          -66 callsubr
          endchar
        </CharString>
        <CharString name="IJ">
          190 -200 42 153 29 598 31 hstem
          151 80 255 80 vstem
          486 hmoveto
          75 callsubr
          -335 -1 rmoveto
          -66 callsubr
          endchar
        </CharString>
        <CharString name="Iacute">
          -96 -5 29 598 31 101 72 hstem
          151 80 vstem
          93.953125 705 rmoveto
          -3 callsubr
          57.046875 -155 rmoveto
          -66 callsubr
          endchar
        </CharString>
        <CharString name="Ibreve">
          -96 -5 29 598 31 39 70 hstemhm
          30.9530029297 300 -179.95300293 80 hintmask 00100000
          62.953125 825 rmoveto
          43 callsubr
          hintmask 11001000
          88.046875 -275 rmoveto
          -66 callsubr
          endchar
        </CharString>
        <CharString name="Icircumflex">
          -96 -5 29 598 31 47 132 hstem
          151 80 vstem
          190.953125 763 rmoveto
          -2 callsubr
          -39.953125 -213 rmoveto
          -66 callsubr
          endchar
        </CharString>
        <CharString name="Idieresis">
          -96 -5 29 598 31 47 110 hstemhm
          30.9530029297 110 10.0469970703 80 -10.0469970703 110 hintmask 00100000
          275.953125 810 rmoveto
          2 callsubr
          -190 hmoveto
          2 callsubr
          hintmask 11001000
          65.046875 -260 rmoveto
          -66 callsubr
          endchar
        </CharString>
        <CharString name="Idotaccent">
          -96 -5 29 598 31 47 110 hstemhm
          125.95300293 110 -84.9530029297 80 hintmask 00100000
          180.953125 810 rmoveto
          2 callsubr
          hintmask 11001000
          -29.953125 -260 rmoveto
          -66 callsubr
          endchar
        </CharString>
        <CharString name="Igrave">
          -96 -5 29 598 31 101 72 hstem
          151 80 vstem
          249.953125 705 rmoveto
          -5 callsubr
          -98.953125 -155 rmoveto
          -66 callsubr
          endchar
        </CharString>
        <CharString name="Imacron">
          -96 -5 29 598 31 70 54 hstemhm
          30.9530029297 300 -179.95300293 80 hintmask 00100000
          54.953125 777 rmoveto
          40 callsubr
          hintmask 11001000
          -166.953125 -227 rmoveto
          -66 callsubr
          endchar
        </CharString>
        <CharString name="Iogonek">
          -126 -287 71 213 25 608 22 hstem
          36 85 20 80 vstem
          46 -3 rmoveto
          45 0 24 3 36 2 -68 -49 -47 -55 0 -72 0 -63 51 -50 63 0 50 0 54 47 15 26 5 9 7 10 0 13 0 8 -7 1 -5 -3 rrcurveto
          -9 -5 -38 -35 -35 0 -35 0 -31 26 0 35 0 68 17 39 48 50 49 -1 28 -4 53 0 16 0 0 22 -16 3 -31 6 -21 7 -24 22 rrcurveto
          -16 15 -3 15 0 22 rrcurveto
          448 vlineto
          0 17 8 12 11 9 21 18 21 7 24 10 9 4 3 18 -12 0 -58 0 -21 -3 -51 0 -47 0 -13 3 -60 0 -9 0 -1 -18 10 -4 rrcurveto
          24 -10 17 -6 21 -18 13 -12 10 -9 0 -18 rrcurveto
          -448 vlineto
          0 -22 -3 -15 -16 -15 -24 -22 -22 -7 -30 -6 -17 -3 5 -22 12 0 rrcurveto
          endchar
        </CharString>
        <CharString name="Iota">
          -96 -5 29 598 31 hstem
          151 80 vstem
          151 550 rmoveto
          -66 callsubr
          endchar
        </CharString>
        <CharString name="Iotadieresis">
          -96 -5 29 598 31 71 110 hstemhm
          30.9550018311 110 10.0449981689 80 -10.0449981689 110 hintmask 00100000
          275.955078125 834 rmoveto
          2 callsubr
          -190 hmoveto
          2 callsubr
          hintmask 11001000
          65.044921875 -284 rmoveto
          -66 callsubr
          endchar
        </CharString>
        <CharString name="Itilde">
          -96 -5 29 598 31 91 63 -55 63 hstemhm
          20.9550018311 320 -189.955001831 80 hintmask 00010000
          20.955078125 738 rmoveto
          -1 callsubr
          hintmask 00100000
          0 callsubr
          hintmask 00010000
          1 callsubr
          hintmask 11000100
          130.044921875 -188 rmoveto
          -66 callsubr
          endchar
        </CharString>
        <CharString name="J">
          -196 -200 42 780 31 hstem
          133 80 vstem
          133 hmoveto
          0 -96 -19 -60 -44 -2 -17.9813995361 -0.817001342773 -15.6387023926 5.24699401855 -16.3798980713 24.5700073242 -12 18 -11.9799957275 8 -26.0200042725 0 -18.0299987793 0 -17.9700012207 -27.7890014648 0 -27.2109985352 0 -22 42 -22 70 2 51.978805542 1.48500061035 36.4161987305 27.9360046387 25.6049957275 36.578994751 rrcurveto
          28 40 25 26 0 210 rrcurveto
          409 vlineto
          1 46 6 16 50 9 23 4 10 7 0 9 0 8 -12 3 -17 0 -54 0 -3.32099914551 -3 -36.6790008545 0 -45.6450042725 0 -17.3549957275 3 -54 0 -17 0 -12 -3 0 -8 rrcurveto
          0 -9 10 -7 23 -4 50 -9 17 -16 -1 -46 rrcurveto
          endchar
        </CharString>
        <CharString name="Jcircumflex">
          -196 -200 42 780 31 47 132 hstem
          133 80 vstem
          183.220703125 763 rmoveto
          -2 callsubr
          -50.220703125 -763 rmoveto
          75 callsubr
          endchar
        </CharString>
        <CharString name="K">
          202 -5 29 299 22 277 31 hstem
          131 80 vstem
          439 620 rmoveto
          23 -6 2.69000244141 -24.8509979248 -21.6900024414 -22.1490020752 rrcurveto
          -200 -204 rlineto
          -7.43699645996 -7.5950012207 -12.56300354 -10.4049987793 -7 0 -5 0 0 14 0 5 rrcurveto
          187 vlineto
          0 39 4 23 50 9 23 4 10 7 0 9 0 8 -12 3 -17 0 -54 0 -5.16200256348 -2 -37.8379974365 0 -43.68699646 0 -14.31300354 2 -54 0 -17 0 -12 -3 0 -8 rrcurveto
          0 -9 10 -7 23 -4 50 -9 17 -16 0 -46 rrcurveto
          -450 vlineto
          0 -50 -17 -18 -50 -9 -23 -4 -10 -5 0 -9 0 -8 12 -3 17 0 54 0 22.783996582 7 49.216003418 0 38.3170013428 0 5.68299865723 -7 54 0 17 0 12 3 0 8 rrcurveto
          0 9 -10 5 -23 4 -50 9 -12 34 -2 43 -3 80 -2 49 0 63 0 7 -1 14 5 0 5 0 10.3769989014 -8.85699462891 7.62300109863 -8.14300537109 84.1629943848 -89.8930053711 78.8370056152 -89.1069946289 49 -55 rrcurveto
          17 -19 9 -17 -39 -9 -19 -4 -8 -4 0 -9 0 -8 12 -3 17 0 54 0 5.78399658203 1.6953125 38.216003418 -0.6953125 47.6119995117 -0.865676879883 20.3880004883 -4.13432312012 54 0 17 0 12 3 0 8 rrcurveto
          0 9 -10 4 -23 5 -57 12 -10 11 -43 48 -100 110 -41 36 -101 112 -7 7 -2.91000366211 5.61700439453 4.91000366211 5.38299560547 70.4429931641 77.2239990234 49.5570068359 48.7760009766 72 61 46 39 56 18 50 9 rrcurveto
          23 4 10 7 0 9 0 8 -12.0839996338 4.69200134277 -16.9160003662 -1.69200134277 -30 -3 -52.3370056152 0.00799560546875 -52.6629943848 -1.00799560547 -28.8540039062 -0.552001953125 8.85400390625 0.552001953125 -54 0 -17 0 -12 -3 0 -8 0 -9 8.40600585938 -5.10600280762 22.5939941406 -5.89399719238 rrcurveto
          endchar
        </CharString>
        <CharString name="Kappa">
          202 -5 29 299 22 277 31 hstem
          131 80 vstem
          439 620 rmoveto
          77 callsubr
          endchar
        </CharString>
        <CharString name="Kcommaaccent">
          202 -274 21 108 88 52 29 299 22 277 31 hstem
          131 80 147.5 53.5 vstem
          327.5 -145 rmoveto
          69 callsubr
          111.5 765 rmoveto
          77 callsubr
          endchar
        </CharString>
</ttFont>
